<?xml version="1.0" standalone="no"?>
<!DOCTYPE svg PUBLIC "-//W3C//DTD SVG 1.1//EN" "http://www.w3.org/Graphics/SVG/1.1/DTD/svg11.dtd" >
<svg xmlns="http://www.w3.org/2000/svg" xmlns:xlink="http://www.w3.org/1999/xlink" version="1.1">
<metadata>
Created by FontForge 20161116 at Fri Jan  1 01:00:00 1904
 By Jimmy Wärting
The digitally encoded machine readable software for producing the Typefaces licensed to you is copyrighted (c) 2000, Linotype Library GmbH or its affiliated Linotype-Hell companies. All rights reserved. This software is now the property of Heidelberger Druckmaschinen AG and its licensors and may not be reproduced, used, displayed, modified, disclosed or transferred without the express written approval of Heidelberger Druckmaschinen AG.
</metadata>
<defs>
<font id="SnellRoundhand-Script" horiz-adv-x="909" >
  <font-face 
    font-family="SnellRoundhand Script"
    font-weight="400"
    font-style="italic"
    font-stretch="normal"
    units-per-em="2048"
    panose-1="2 11 5 0 0 0 0 0 0 0"
    ascent="1638"
    descent="-410"
    x-height="704"
    cap-height="1425"
    bbox="-1169 -663 2615 1830"
    underline-thickness="102"
    underline-position="-256"
    slope="-320"
    unicode-range="U+0020-F002"
  />
<missing-glyph horiz-adv-x="0" 
 />
    <glyph glyph-name=".notdef" horiz-adv-x="0" 
 />
    <glyph glyph-name="glyph1" horiz-adv-x="0" 
 />
    <glyph glyph-name="equal" unicode=" " horiz-adv-x="512" 
 />
    <glyph glyph-name="uni00A0" unicode="&#xa0;" horiz-adv-x="512" 
 />
    <glyph glyph-name="greater" unicode="!" horiz-adv-x="682" 
d="M340 285q201 313 446 589q31 31 58 68q26 35 28 74q-2 65 -67 69q-39 0 -66 -32q-28 -35 -63 -123q-146 -332 -348 -637zM219 152q-31 0 -51 -21q-25 -22 -25 -55q0 -31 25 -51q20 -25 51 -25q33 0 55 25q21 20 21 51q-4 71 -76 76v0z" />
    <glyph glyph-name="question" unicode="&#x22;" horiz-adv-x="682" 
d="M565 1311q6 39 0 92q-6 24 -18 41q-15 14 -43 14q-53 -2 -60 -55q-6 -53 -2 -92l33 -367q2 -10 6 -31q2 -22 23 -24q20 2 26 24q2 21 2 31zM842 1311q6 39 0 92q-6 24 -19 41q-14 14 -43 14q-53 -2 -59 -55t-2 -92l33 -367q2 -10 6 -31q2 -22 22 -24q21 2 27 24
q2 21 2 31z" />
    <glyph glyph-name="at" unicode="#" horiz-adv-x="1024" 
d="M1030 422h-162l101 250h170l20 65h-162l146 348h-78l-146 -348h-217l146 348h-78l-145 -348h-185l-20 -65h176l-100 -250h-185l-20 -66h176l-148 -356h78l148 356h217l-148 -356h78l146 356h172zM891 672l-101 -250h-217l101 250h217z" />
    <glyph glyph-name="A" unicode="$" horiz-adv-x="1024" 
d="M807 643v0q-25 39 -41 82q-21 43 -21 90q0 113 68 186q63 74 172 76q53 0 94 -10zM758 530v0q41 -51 67 -110q27 -64 27 -121q-2 -125 -78 -197q-78 -77 -207 -77q-59 -2 -121 20zM1184 1229l-88 -137q-37 10 -91 10q-161 -2 -258 -92q-100 -93 -100 -232q0 -51 31 -114
q26 -66 67 -119l-317 -492v0q-111 56 -113 193q0 63 31 119q29 55 92 96q-33 6 -53 6q-82 -2 -129 -55q-51 -56 -51 -150q0 -80 59 -143q27 -31 64 -56q37 -24 80 -40l-60 -95l17 -10l63 98q53 -16 137 -16q146 0 262 96q119 90 123 252q0 74 -33 135q-34 62 -96 142l-2 2
l279 434q96 -35 98 -158q0 -41 -10 -82q-15 -45 -47 -74q16 -6 39 -6q49 0 83 43q33 39 33 105q-2 86 -53 133q-51 49 -125 65l84 131z" />
    <glyph glyph-name="B" unicode="%" horiz-adv-x="1593" 
d="M1497 610q-162 -4 -307 -129q-70 -59 -111 -133q-45 -76 -45 -160q2 -188 187 -188q88 0 167 47q78 45 144 113q135 145 139 280q0 70 -41 119t-133 51v0zM1493 586q88 2 88 -80q-4 -133 -115 -299q-53 -76 -114 -127q-66 -55 -134 -55q-92 -2 -94 84q0 67 37 149
q33 82 86 156q53 75 119 123q65 47 127 49v0zM1313 942q-375 -471 -588 -737q-217 -268 -219 -279q0 -10 10 -10q6 2 70 80q63 78 164 196q212 254 430 512q47 54 172 203q57 70 100 123q39 51 41 59q0 27 -23 29q-22 0 -41 -12q-20 -14 -49 -60q-20 -32 -86 -88
q-30 -24 -71 -41q-43 -20 -93 -20q-59 0 -88 31q-28 28 -53 67q-22 39 -61 68q-41 26 -123 26q-74 0 -156 -38q-80 -37 -149 -103q-70 -63 -111 -141q-45 -78 -45 -158q4 -180 180 -182q78 0 162 47q82 43 152 115q69 71 110 153t39 160l4 4q25 -31 60 -51q34 -23 73 -23
q58 0 107 25q47 20 78 49zM434 584q0 75 37 159q33 84 88 156q55 74 121 121q65 45 131 45q86 -2 86 -88q-4 -135 -121 -301q-55 -78 -123 -129q-67 -56 -139 -56q-82 5 -80 93v0z" />
    <glyph glyph-name="C" unicode="&#x26;" horiz-adv-x="1251" 
d="M1505 256q-72 -102 -184 -170q-113 -70 -242 -70q-90 0 -174 43q-86 41 -149 105q75 72 168 180q57 76 116 131q60 51 135 53q56 0 93 -22q34 -23 51 -60q31 33 33 72q0 49 -35 78q-35 27 -90 27q-64 -3 -119 -43q-57 -41 -113 -111q-55 -68 -116 -143q-64 -78 -140 -148
v0q-200 207 -213 492q41 24 105 57q63 31 125 70q30 22 59 43q29 22 47 43q41 43 43 96q0 59 -35 92q-37 31 -94 31q-74 0 -139 -45q-66 -45 -115 -115q-104 -149 -106 -293q-119 -51 -207 -151q-94 -103 -96 -240q0 -117 79 -192q78 -80 213 -82q99 2 164 39q64 36 107 71
v0q78 -57 176 -84q98 -26 180 -26q295 2 483 264zM823 989q-2 -108 -86 -178q-86 -68 -211 -119v0q0 41 8 96q7 56 35 125q39 80 88 123q47 41 93 41q71 0 73 -88v0zM223 291q0 104 49 200q50 93 144 136v0q4 -312 241 -518q-37 -31 -90 -52q-55 -24 -131 -24q-96 2 -153 82
q-60 73 -60 176v0z" />
    <glyph glyph-name="Ucircumflex" unicode="&#x2019;" horiz-adv-x="455" 
d="M334 815q92 29 188 107q47 36 76 86q29 49 29 106q0 35 -21 64q-22 26 -57 26q-80 0 -82 -78q0 -39 29 -53q26 -18 57 -18q-4 -45 -27 -80q-22 -37 -57 -64q-33 -24 -68 -43q-36 -20 -69 -35z" />
    <glyph glyph-name="E" unicode="(" horiz-adv-x="797" 
d="M1354 1425q-572 -245 -887 -700q-199 -285 -293 -569q-94 -287 -96 -742h24q15 695 420 1239q346 496 832 752v20z" />
    <glyph glyph-name="F" unicode=")" horiz-adv-x="797" 
d="M-469 -586q573 246 887 701q198 284 293 573q94 287 96 737h-25q-16 -694 -420 -1239q-344 -495 -831 -751v-21z" />
    <glyph glyph-name="G" unicode="*" horiz-adv-x="682" 
d="M418 1102q2 -33 35 -33q32 2 100 31q65 26 121 47q-15 -55 -43 -125q-13 -35 -21 -60q-10 -28 -10 -40q0 -33 33 -33q26 -2 41 51q14 51 35 199v0q34 -37 90 -107q28 -31 53 -53q22 -25 35 -25q26 0 28 29q-2 37 -67 84q-29 25 -60 49q-34 23 -59 47q150 21 205 33
q26 10 39 18q10 9 10 21q-2 37 -35 39q-20 -2 -90 -29q-72 -31 -135 -51q24 65 51 129q27 61 29 92q0 16 -6 31q-9 12 -25 12q-43 -2 -51 -84l-12 -65l-19 -107v0q-45 64 -94 125q-23 29 -41 47q-21 19 -37 19q-35 -3 -35 -39q-2 -33 187 -174l-195 -29q-24 -2 -41 -14
q-16 -13 -16 -35v0z" />
    <glyph glyph-name="H" unicode="+" horiz-adv-x="1229" 
d="M752 387h-318v-70h318v-317h69v317h318v70h-318v317h-69v-317z" />
    <glyph glyph-name="I" unicode="," horiz-adv-x="512" 
d="M-66 -254q136 19 246 102q111 84 115 209q0 39 -19 68q-20 27 -61 27q-78 -3 -80 -84q0 -33 25 -50q22 -18 45 -18q16 0 24 4q-4 -51 -30 -92q-29 -43 -72 -74q-92 -63 -193 -80v-12z" />
    <glyph glyph-name="J" unicode="-" horiz-adv-x="682" 
d="M174 381l-22 -57h471l24 57h-473z" />
    <glyph glyph-name="uni00AD" unicode="&#xad;" horiz-adv-x="682" 
d="M174 381l-22 -57h471l24 57h-473z" />
    <glyph glyph-name="K" unicode="." horiz-adv-x="512" 
d="M211 152q-31 0 -51 -21q-25 -22 -25 -55q0 -31 25 -51q20 -25 51 -25q33 0 55 25q21 20 21 51q-4 71 -76 76v0z" />
    <glyph glyph-name="L" unicode="/" horiz-adv-x="569" 
d="M297 -33l579 1491h-75l-580 -1491h76z" />
    <glyph glyph-name="M" unicode="0" horiz-adv-x="1024" 
d="M225 250q0 -115 60 -189q57 -75 176 -77q125 2 258 84q131 79 243 204q113 127 183 271q69 141 71 268q0 123 -53 199q-57 73 -188 75q-125 -2 -252 -77q-131 -76 -244 -201q-112 -125 -182 -270q-72 -146 -72 -287v0zM348 242q6 299 195 546q88 119 186 193
q98 70 188 72q99 -2 140 -68q37 -63 37 -160q-7 -309 -199 -551q-88 -114 -191 -184q-106 -74 -208 -74q-82 0 -115 70q-33 63 -33 156v0z" />
    <glyph glyph-name="N" unicode="1" horiz-adv-x="758" 
d="M221 -16v0l168 32q309 539 668 1061l-8 8q-293 -243 -668 -350l8 -22q236 67 426 188l4 -4z" />
    <glyph glyph-name="O" unicode="2" horiz-adv-x="1024" 
d="M1018 338q-37 -82 -113 -172q-37 -43 -80 -70q-45 -30 -94 -30q-31 0 -78 20q-47 16 -98 37q-49 22 -96 39q-49 16 -86 16t-70 -14q-35 -15 -65 -31l-5 8q129 82 289 148q158 63 305 135q148 72 246 174q96 100 98 248q0 100 -75 178q-76 76 -236 78q-184 -4 -285 -111
q-100 -106 -100 -221q2 -154 139 -156q101 2 150 90l-8 7q-21 -9 -37 -15q-17 -8 -41 -8q-53 0 -86 43q-35 39 -35 94q0 60 27 105q24 45 65 75q84 64 178 64q105 -2 160 -66q53 -63 53 -170q0 -61 -16 -120q-19 -60 -68 -121q-94 -119 -366 -244q-580 -272 -578 -344
q-2 -18 13 -20q12 2 26 20q15 21 39 45q25 27 66 45q41 19 98 19q53 -2 102 -19q47 -18 90 -45q45 -22 88 -43q43 -20 82 -22q78 0 142 34q63 33 114 82q103 109 160 236z" />
    <glyph glyph-name="P" unicode="3" horiz-adv-x="1024" 
d="M557 541q59 8 117 8q192 -4 194 -193q-4 -161 -125 -252q-120 -96 -280 -96q-107 0 -172 51q-72 50 -72 148q0 94 47 143q41 47 105 47q16 0 28 -4l2 8q-45 43 -110 45q-86 -2 -133 -59q-49 -57 -49 -143q0 -60 32 -107q29 -49 78 -84q105 -67 242 -69q211 2 366 102
q160 98 164 266q-2 107 -61 162q-60 55 -164 59v4q172 19 311 91q68 36 109 88q39 53 39 123q0 94 -62 157q-63 64 -198 66q-142 -2 -234 -84q-98 -80 -100 -195q0 -53 35 -90q30 -41 90 -41q51 0 88 27q35 26 37 63q-33 -16 -72 -16q-47 0 -72 39q-24 37 -24 82
q2 86 71 135q66 47 148 47q86 -2 129 -53q41 -56 41 -137q-2 -107 -56 -164q-26 -31 -61 -49q-37 -21 -80 -37q-41 -13 -84 -21q-45 -10 -92 -16q-94 -10 -172 -19v-32z" />
    <glyph glyph-name="Q" unicode="4" horiz-adv-x="1024" 
d="M1261 1057l-116 -13l-420 -636h-500v8l1008 831h-53l-1020 -864h551l-252 -383l143 20l231 363h250l15 25h-250z" />
    <glyph glyph-name="R" unicode="5" horiz-adv-x="1024" 
d="M979 1085l-516 -526l10 -8q51 29 107 49q55 18 114 18q178 -4 178 -186q-2 -170 -106 -293q-107 -129 -287 -131q-219 2 -223 213q0 80 45 127q41 47 109 49q20 0 38 -4l3 8q-50 52 -119 54q-84 -2 -133 -58q-54 -57 -54 -143q2 -135 107 -203q100 -67 231 -67
q199 4 353 135q155 127 159 299q-4 233 -262 233q-55 0 -94 -10q-43 -10 -82 -29l-4 4l352 353q51 -23 88 -35q35 -17 80 -17q66 0 135 45q68 43 105 95l-6 8q-64 -55 -164 -57q-88 0 -164 77v0z" />
    <glyph glyph-name="S" unicode="6" horiz-adv-x="1024" 
d="M958 614q-4 -202 -137 -395q-61 -92 -139 -149q-78 -62 -160 -62q-80 2 -106 66q-27 59 -25 129q0 59 14 114q13 56 33 109q45 104 113 188q69 84 143 136q76 47 137 49q82 -2 107 -60q20 -55 20 -125v0zM510 616q127 242 366 490q121 117 259 190q135 74 286 76
q72 0 117 -22q45 -23 72 -58q26 -35 39 -71q10 -39 10 -74q0 -25 -4 -49q26 18 49 53q20 31 20 74q0 73 -61 127q-64 51 -207 53q-90 0 -186 -27q-99 -26 -201 -80q-203 -106 -383 -278q-178 -168 -289 -369q-114 -200 -116 -391q0 -51 14 -98q12 -49 39 -90q51 -86 168 -88
q102 2 205 63q102 62 186 156q182 202 188 405q0 219 -209 223q-110 -2 -200 -67q-92 -64 -158 -148h-4z" />
    <glyph glyph-name="T" unicode="7" horiz-adv-x="1024" 
d="M360 -197l1012 1303l-12 8q-41 -43 -90 -70q-52 -28 -115 -28q-82 2 -147 43q-62 41 -136 43q-67 0 -112 -25q-47 -26 -99 -67l-4 4q41 59 76 131l-16 6q-19 -35 -41 -76q-21 -41 -43 -74q-19 -24 -66 -71q-20 -23 -37 -41q-18 -19 -18 -29q0 -16 12 -16q15 0 35 30
q18 29 45 64t64 63q36 27 86 27q77 -2 145 -43q37 -16 76 -29q37 -14 76 -14q81 0 145 33q59 28 117 80l4 -4l-1137 -1268z" />
    <glyph glyph-name="U" unicode="8" horiz-adv-x="1024" 
d="M1012 604q135 35 237 127q103 90 107 234q-4 296 -297 305q-152 -2 -264 -95q-117 -94 -119 -253q2 -103 45 -201q-187 -2 -332 -109q-151 -108 -156 -303q3 -143 99 -231q92 -92 233 -94q168 2 281 104q112 100 114 260q-2 86 -24 160q-27 72 -62 141q-32 70 -59 146
q-29 75 -29 163q0 131 68 209q63 76 168 78q108 -2 172 -84q63 -82 63 -219q0 -256 -249 -319zM344 334q0 368 385 362q43 -86 82 -178q37 -92 39 -196q2 -121 -43 -209q-49 -95 -184 -97q-134 2 -205 99q-74 92 -74 219v0z" />
    <glyph glyph-name="V" unicode="9" horiz-adv-x="1024" 
d="M999 895q-6 -258 -151 -424q-141 -174 -277 -176q-123 -2 -120 194q2 189 129 381q59 90 135 148q75 57 155 59q70 0 101 -51q28 -51 28 -131v0zM899 502q-123 -283 -389 -584q-129 -141 -281 -231q-151 -95 -313 -97q-137 2 -225 76q-90 74 -92 195q0 39 6 65
q-49 -16 -72 -51q-24 -37 -24 -84q2 -102 102 -166q96 -65 248 -67q217 4 438 133q221 127 407 327q189 201 301 426q115 224 117 418q0 107 -53 174q-55 64 -172 66q-84 -2 -182 -56q-99 -57 -187 -147t-141 -199q-59 -108 -59 -219q0 -98 49 -157q49 -62 141 -62
q121 2 221 76q97 72 156 164h4z" />
    <glyph glyph-name="W" unicode=":" horiz-adv-x="512" 
d="M135 78q2 -72 76 -74q31 0 53 25q23 20 23 49q0 33 -21 55q-22 23 -53 23q-76 -2 -78 -78v0zM504 629q2 -74 76 -76q71 2 75 74q0 32 -18 55q-23 22 -53 22q-33 0 -56 -18q-24 -22 -24 -57v0z" />
    <glyph glyph-name="X" unicode=";" horiz-adv-x="512" 
d="M-66 -254q136 19 246 102q111 84 115 209q0 39 -19 68q-20 27 -61 27q-78 -3 -80 -84q0 -33 25 -50q22 -18 45 -18q16 0 24 4q-4 -51 -30 -92q-29 -43 -72 -74q-92 -63 -193 -80v-12zM504 629q2 -74 76 -76q34 0 55 27q20 22 20 55q0 29 -20 49q-23 20 -51 20
q-33 0 -56 -20q-24 -20 -24 -55v0z" />
    <glyph glyph-name="Y" unicode="&#x3c;" horiz-adv-x="1229" 
d="M1118 -12v69l-635 295l635 295v70v0l-704 -328v-76l704 -325v0z" />
    <glyph glyph-name="Z" unicode="=" horiz-adv-x="1229" 
d="M1139 522h-705v-69h705v69zM1139 252h-705v-70h705v70z" />
    <glyph glyph-name="bracketleft" unicode="&#x3e;" horiz-adv-x="1229" 
d="M500 -12v0l704 325v76l-704 328v0v-70l635 -295l-635 -295v-69z" />
    <glyph glyph-name="backslash" unicode="?" 
d="M322 264q18 41 59 74q39 35 88 61q104 56 197 95q124 57 219 149q94 90 96 207q-2 129 -80 192q-80 60 -205 60q-145 -2 -268 -94q-59 -43 -94 -103q-39 -61 -39 -129q2 -182 184 -186q58 0 107 30q47 25 75 66l-14 10q-31 -41 -76 -59q-43 -23 -88 -23q-73 2 -100 58
q-29 53 -27 114q2 127 103 209q96 80 209 82q198 -4 202 -213q2 -176 -133 -295q-49 -39 -108 -67q-60 -31 -121 -62q-60 -30 -113 -69t-92 -101zM219 152q-31 0 -51 -21q-25 -22 -25 -55q0 -31 25 -51q20 -25 51 -25q33 0 55 25q21 20 21 51q-4 71 -76 76v0z" />
    <glyph glyph-name="bracketright" unicode="@" horiz-adv-x="1638" 
d="M790 571q3 168 99 305q43 66 96 103q51 39 100 39q125 -4 127 -166q-2 -143 -96 -301q-43 -72 -96 -121q-55 -49 -115 -49q-53 0 -82 45q-33 45 -33 145v0zM1243 979v0q-20 43 -55 78q-35 32 -103 35q-90 0 -163 -46q-74 -47 -129 -122q-115 -160 -117 -347
q0 -126 53 -196q53 -74 152 -74q94 2 155 64q31 26 51 51q19 22 29 37h4q-2 -25 43 -84q25 -25 62 -45q36 -23 90 -23q98 0 174 51q74 47 125 125q53 78 78 168q24 88 24 170q-2 275 -194 453q-193 180 -517 184q-327 -2 -546 -213q-226 -211 -230 -565q0 -109 47 -232
q46 -124 144 -233q98 -106 250 -176q149 -70 358 -72q133 2 252 47q121 41 190 80l-16 37v0q-82 -41 -186 -78q-107 -41 -242 -41q-311 6 -489 207q-183 197 -185 438q4 363 193 564q182 198 460 200q281 -2 465 -164q189 -163 193 -438q0 -151 -82 -299q-39 -67 -98 -112
q-58 -48 -136 -48q-51 0 -71 31q-25 25 -25 66q0 39 17 96l129 512h-131z" />
    <glyph glyph-name="asciicircum" unicode="A" horiz-adv-x="1933" 
d="M1503 637q-41 -100 -72 -209q-14 -55 -24 -111q-10 -57 -10 -116q0 -88 45 -150q43 -65 137 -67q78 2 158 55q79 51 159 133q162 174 303 365l-14 6q-78 -113 -252 -301q-80 -84 -162 -146q-79 -63 -143 -63q-63 0 -86 47q-22 41 -22 104q0 142 65 318q64 176 162 356
q209 377 430 592l-6 8q-166 -49 -320 -156q-153 -106 -286 -239q-269 -281 -392 -449q-182 -229 -385 -405q-98 -84 -194 -133q-98 -51 -189 -51q-34 0 -65 10q-35 10 -53 37q18 6 30 24q9 17 9 35q-2 72 -70 76q-37 0 -55 -23q-23 -26 -23 -61q-2 -41 37 -88
q39 -49 168 -51q98 2 207 57q104 53 213 143q217 191 420 453h280zM1239 661q176 228 375 422q196 191 411 301l4 -4q-337 -334 -516 -719h-274z" />
    <glyph glyph-name="underscore" unicode="B" horiz-adv-x="1821" 
d="M928 917q8 -63 8 -129q-2 -194 -94 -311q-95 -123 -250 -125q-123 2 -180 109q-60 98 -60 215q4 301 277 524q266 227 657 233q53 0 104 -2q50 -4 95 -16q47 -8 88 -27q41 -18 71 -47q-178 -118 -315 -319q-139 -201 -297 -471q-149 -258 -276 -406q-131 -151 -330 -153
q-37 0 -82 16q-47 15 -59 58q65 2 67 67q0 72 -69 76q-80 -2 -82 -88q0 -64 63 -107q60 -45 166 -47q231 4 401 164q170 154 306 379q137 227 264 446t272 355v0q68 -74 70 -172q-2 -181 -111 -295q-110 -113 -297 -117v-25q123 7 205 -45q80 -53 82 -182q0 -182 -92 -319
q-94 -144 -285 -148q-63 0 -102 39q-43 35 -43 90q0 53 16 86q14 33 47 39q-24 25 -57 25q-53 -2 -84 -37q-33 -35 -33 -88q0 -78 74 -127q69 -49 184 -51q176 4 334 139q158 133 164 338q-2 131 -80 194q-78 64 -201 68v4q146 29 264 121q121 92 125 250q0 86 -32 145
q-33 59 -101 111q127 79 254 92v24q-125 -14 -285 -98v0q-151 84 -393 86q-448 -8 -727 -262q-286 -246 -290 -532q0 -138 81 -234q80 -100 232 -102q174 2 270 137q96 133 98 319q0 58 -10 135z" />
    <glyph glyph-name="grave" unicode="C" horiz-adv-x="1366" 
d="M1094 1139q-2 -27 -2 -56q6 -90 63 -129q53 -39 135 -39q158 2 277 97q118 92 122 237q0 207 -256 209q-159 -2 -354 -100q-194 -99 -372 -264q-177 -164 -291 -361q-119 -199 -121 -397q0 -55 20 -119q21 -63 66 -121q45 -55 119 -90q71 -37 176 -39q286 8 434 180
q149 166 149 324q0 229 -254 225l3 -24q174 -2 178 -168q-4 -187 -150 -344q-143 -162 -352 -168q-137 4 -197 102q-63 94 -61 217q2 215 108 414q52 98 119 190q66 90 144 168q159 162 331 256q172 92 314 94q82 0 129 -28q45 -33 45 -117q-4 -145 -105 -244
q-102 -102 -219 -104q-67 0 -119 35q-57 33 -57 114q0 27 2 50h-24z" />
    <glyph glyph-name="a" unicode="D" horiz-adv-x="1821" 
d="M2031 1511q-215 -39 -387 -178v0q-172 135 -413 137q-410 -8 -674 -264q-268 -248 -272 -518q0 -149 77 -252q78 -106 232 -108q211 2 340 168q129 161 131 419v60h-25v-70q-2 -223 -114 -381q-113 -162 -301 -164q-72 0 -121 29q-49 27 -80 70q-59 92 -57 225
q6 336 272 547q256 211 598 215q92 0 194 -29q103 -33 191 -102q-162 -140 -287 -338q-127 -199 -239 -400q-111 -200 -236 -354q-123 -151 -278 -198q-101 18 -156 30q-53 11 -102 11q-76 2 -78 -43q0 -43 102 -43q82 0 131 10q49 6 105 16q67 -16 143 -26q78 -13 201 -13
q354 4 626 250q281 242 289 616q0 66 -6 129q-8 66 -31 127q-41 127 -135 222q156 145 365 184zM893 -8q-156 0 -275 20v4q201 72 344 222q142 147 250 335q109 189 213 377q103 189 224 332v0q51 -55 75 -137q21 -82 21 -166q0 -164 -51 -336q-52 -172 -160 -319
q-105 -146 -264 -238q-162 -92 -377 -94v0z" />
    <glyph glyph-name="b" unicode="E" horiz-adv-x="1366" 
d="M700 369q47 69 125 125q76 53 160 55q158 -2 156 -184q-2 -93 -43 -160q-43 -68 -115 -113q-150 -92 -307 -92q-162 2 -260 104q-101 99 -101 232q0 112 39 192q39 76 101 127q63 52 141 90q76 37 156 70q139 64 137 217q-2 129 69 262q37 64 101 101q61 38 149 38
q205 3 209 -180q0 -75 -61 -166q-31 -41 -76 -67q-47 -31 -109 -31q-59 0 -90 10l-2 -22q29 -10 92 -12q123 0 228 75q104 72 108 209q-2 113 -90 162q-84 47 -188 47q-236 -4 -353 -135q-118 -131 -118 -315q0 -113 -17 -152q-22 -41 -90 -68q-88 -38 -172 -79
q-84 -43 -149 -99q-144 -106 -146 -307q6 -326 471 -336q215 4 402 135q88 60 141 134q53 71 53 143q0 86 -55 139t-166 55q-219 -6 -344 -194z" />
    <glyph glyph-name="c" unicode="F" horiz-adv-x="1593" 
d="M1233 661q-115 -206 -295 -419q-88 -101 -199 -164q-110 -70 -245 -70q-103 0 -160 31q-60 27 -86 61q-27 37 -31 66q-8 29 -8 37q12 -2 20 -2q31 0 45 22q13 21 13 49q-2 70 -68 72q-43 -2 -67 -35q-25 -33 -25 -76q0 -63 37 -110q35 -49 88 -80q113 -59 231 -59
q162 2 293 61q129 61 232 158q204 207 348 461q90 6 221 22q-27 -51 -55 -104q-29 -52 -52 -111l13 -6q120 188 290 332q-28 8 -51 8q-41 -2 -67 -25q-27 -22 -45 -49q-9 -10 -37 -16q-29 -6 -68 -11q-37 -2 -76 -6q-36 -6 -63 -8q55 78 102 166q47 84 105 168
q57 84 139 154q78 69 197 112q258 -2 329 10q39 7 49 21q11 14 11 39q0 28 -29 37q-29 4 -70 4q-61 -6 -153 -8q-141 4 -514 8q-545 -4 -840 -174q-297 -168 -299 -400q0 -108 82 -170q78 -63 215 -63q213 2 365 127q153 119 157 272q0 64 -22 119l-21 -4q17 -43 19 -113
q0 -80 -45 -149q-45 -68 -117 -119q-154 -107 -334 -109q-131 0 -203 62q-71 57 -71 153q12 207 254 338q241 129 651 131q371 -6 551 -8v-4q-223 -65 -367 -239q-145 -172 -262 -365h-88l-4 -25h80z" />
    <glyph glyph-name="d" unicode="G" horiz-adv-x="1251" 
d="M930 1636q-43 -37 -76 -94q-33 -59 -33 -127q0 -88 51 -162q-151 -96 -295 -262q-69 -80 -110 -170q-45 -90 -45 -182q0 -115 67 -180q66 -70 181 -70q98 0 188 41q90 39 162 98l4 -4q-102 -172 -256 -346q-78 -80 -170 -131q-96 -53 -207 -55q-108 0 -186 53
q-80 51 -82 143q0 21 4 48q18 -7 35 -7q69 2 71 72q-4 68 -71 72q-56 -2 -82 -41q-27 -39 -27 -94q2 -121 99 -195q92 -74 233 -76q291 6 494 213q198 199 323 438q47 58 86 105q37 45 39 67q-2 33 -35 31q-92 -2 -131 -59q-43 -58 -80 -146q-24 -47 -131 -114
q-51 -33 -110 -56q-60 -24 -119 -24q-96 0 -131 61q-39 58 -37 146q0 73 37 157q30 82 84 162q112 168 235 258v0q82 -76 183 -104q100 -29 194 -29q156 -2 287 55q63 31 100 76q39 47 39 111q-2 88 -74 116q-71 27 -151 27q-324 -6 -596 -188v0q-45 57 -45 149q0 53 26 111
q25 53 70 94zM1630 1333q-2 -115 -104 -174q-103 -61 -238 -61q-250 0 -362 125q106 84 247 147q142 61 277 63q59 3 119 -12q59 -18 61 -88v0z" />
    <glyph glyph-name="e" unicode="H" horiz-adv-x="1706" 
d="M934 1087q10 -18 16 -38q6 -23 6 -56q0 -59 -28 -108q-31 -49 -78 -86q-103 -76 -215 -76q-86 2 -127 55q-43 51 -43 115q4 244 344 387q336 143 903 145v-4q-285 -71 -457 -276q-172 -207 -315 -447q-129 -221 -289 -444q-80 -107 -166 -174q-88 -72 -186 -72
q-47 0 -82 19q-37 14 -51 45q61 0 63 65q-2 64 -67 66q-35 0 -58 -21q-26 -22 -26 -59q2 -76 76 -107q69 -32 135 -32q135 2 252 73q116 70 215 181q196 231 315 448h295q-66 -104 -129 -242q-68 -137 -70 -284q0 -78 41 -133q39 -58 131 -60q97 2 193 70q96 67 182 162
q176 206 246 338l-19 8q-110 -189 -272 -361q-78 -80 -156 -131q-77 -53 -145 -53q-33 0 -51 37q-19 37 -19 84q2 174 107 393q100 217 248 420q151 205 305 338q151 135 262 137q31 0 51 -16q18 -19 33 -41q14 -23 29 -39q14 -19 38 -19q29 0 48 21q18 18 18 47
q-2 47 -35 71q-37 25 -82 25q-135 -2 -272 -76q-137 -73 -264 -190q-258 -248 -408 -481h-295q420 716 731 714q56 0 82 4q25 7 25 29q-2 21 -31 21q-33 -2 -70 -13q-38 -16 -94 -16q-501 2 -921 -113q-201 -61 -322 -166q-125 -102 -127 -256q0 -90 74 -151q68 -66 195 -66
q131 0 241 84q53 41 84 97q33 53 33 118q0 54 -23 92z" />
    <glyph glyph-name="f" unicode="I" horiz-adv-x="1251" 
d="M-31 221q0 -63 35 -112q33 -50 82 -80q109 -62 229 -62q293 4 510 205q215 197 385 506q180 315 328 500q149 188 254 190q108 0 147 8q35 8 35 27q-2 24 -35 22q-20 -2 -100 -16q-80 -21 -217 -21q-371 13 -752 -100q-178 -57 -293 -151q-116 -95 -118 -234
q0 -115 75 -174q74 -63 195 -63q145 2 244 90q100 88 102 211q-2 43 -12 77l-23 -4q11 -28 11 -78q-2 -108 -99 -186q-94 -84 -217 -86q-174 2 -178 180q2 168 129 267q125 100 311 147q187 51 379 68q193 12 332 12v-4q-96 -35 -182 -111q-88 -76 -166 -172
q-158 -201 -258 -358q-45 -74 -117 -191q-74 -120 -172 -243q-98 -121 -221 -205q-123 -86 -273 -88q-127 2 -196 61q-70 58 -53 131q34 -4 55 19q20 20 20 53q-2 70 -75 72q-47 -2 -72 -31q-29 -31 -29 -76v0z" />
    <glyph glyph-name="g" unicode="J" horiz-adv-x="1251" 
d="M1022 1024q12 -45 12 -80q-2 -119 -96 -197q-94 -81 -221 -81q-90 2 -133 55q-45 51 -45 125q2 166 137 268q127 100 319 154q416 96 713 92v-4q-160 -76 -297 -224q-139 -149 -262 -335q-240 -389 -434 -723q-199 -37 -391 -60q-193 -24 -353 -63q-159 -35 -254 -107
q-96 -73 -98 -211q0 -55 29 -100q28 -47 71 -78q95 -65 220 -65q294 6 518 221q223 209 379 463q260 71 407 178q147 104 266 287l-16 10q-119 -180 -256 -277q-137 -98 -371 -168l-4 5q88 127 205 331q115 203 242 414q129 213 249 356q60 72 113 111t98 39q64 -2 125 6
q29 4 47 12q17 8 17 23q0 14 -10 20q-13 4 -25 4q-41 -2 -109 -20q-34 -6 -71 -12q-39 -9 -82 -9q-125 0 -326 -16q-198 -21 -405 -74q-203 -53 -342 -155q-146 -103 -148 -269q0 -102 74 -163q72 -66 203 -66q135 0 237 88q103 84 105 213q0 41 -15 84zM-66 -586
q-94 0 -153 52q-62 51 -64 163q5 129 88 201q82 68 222 102q141 37 315 60q172 22 354 55v0q-104 -182 -305 -397q-98 -101 -213 -166q-117 -68 -244 -70v0z" />
    <glyph glyph-name="h" unicode="K" horiz-adv-x="1821" 
d="M2064 545q-94 -129 -295 -322q-96 -88 -190 -149q-94 -66 -168 -66q-61 -2 -64 72q0 39 25 88q21 49 49 108q29 60 49 119q21 60 21 109q2 157 -125 219v4q207 16 356 123q150 104 258 235q111 131 201 230q90 100 178 102q53 0 80 -22q25 -25 25 -66q0 -45 -29 -72
q4 -16 35 -16q32 0 55 27q20 26 20 61q-2 53 -49 84q-51 29 -135 29q-149 -4 -270 -107q-125 -104 -240 -241q-112 -136 -233 -240q-123 -109 -273 -111q-41 4 -77 7q-19 0 -21 -17q0 -18 29 -18q22 2 45 4q33 0 65 -21q29 -22 31 -84q0 -53 -27 -114q-28 -66 -63 -133
q-35 -68 -61 -131q-29 -66 -29 -121q0 -66 47 -97q45 -34 106 -34q84 2 185 63q100 62 196 152q203 194 306 338zM928 1014q12 -37 14 -86q-2 -103 -94 -183q-92 -84 -232 -86q-67 0 -112 50q-51 47 -51 127q2 178 157 286q148 111 367 170q473 111 768 105v-4
q-219 -62 -377 -242q-160 -184 -326 -463q-129 -225 -284 -444q-78 -103 -164 -166q-86 -70 -180 -70q-52 0 -86 21q-41 18 -41 47q24 0 39 22q12 21 12 39q-2 66 -68 70q-78 -4 -80 -82q2 -78 76 -109q66 -32 135 -32q129 2 240 71q111 68 205 170q190 221 317 439
q80 126 158 258q80 131 166 239q88 113 188 180q100 66 223 68q54 0 80 6q27 6 27 23q-2 20 -31 20q-24 -2 -92 -25q-55 -18 -131 -20q-567 0 -977 -137q-199 -68 -313 -170q-119 -101 -119 -236q2 -106 82 -170q74 -65 178 -65q174 4 270 100q95 92 95 189q0 49 -19 96z
" />
    <glyph glyph-name="i" unicode="L" horiz-adv-x="1139" 
d="M1384 543q-391 -336 -751 -705v0q-13 101 -82 168q-70 64 -209 66q-51 -2 -82 -6l-4 4q276 118 453 358q176 238 319 483q47 -4 111 -4q299 4 493 137q195 127 199 271q0 73 -45 110q-47 33 -125 33q-223 -6 -418 -164q-197 -155 -317 -344q-127 12 -217 94
q-93 82 -95 199q0 74 56 131q51 57 137 59q78 -2 129 -28l8 22q-53 29 -135 31q-94 -2 -154 -63q-65 -60 -65 -152q2 -133 96 -213q90 -82 221 -104q-170 -289 -325 -533q-80 -117 -166 -201q-88 -83 -191 -118q-73 -2 -227 -13q-70 -6 -121 -20q-51 -16 -53 -41
q2 -16 18 -23q17 -10 41 -10q47 2 101 15q53 12 98 28q100 37 143 39q127 0 209 -67q84 -70 86 -203q0 -17 -6 -29q-8 -12 -18 -24q-23 -19 -25 -47q0 -21 27 -23q36 2 73 43q35 43 58 102q139 156 374 373q238 217 392 356zM1638 1433q121 -2 123 -120q-2 -92 -59 -164
q-62 -70 -156 -119q-203 -98 -403 -98q-62 0 -105 4q90 164 252 325q80 76 170 123q86 47 178 49v0z" />
    <glyph glyph-name="j" unicode="M" horiz-adv-x="2048" 
d="M2283 555q-249 -537 -868 -539v4q131 60 225 144q90 82 154 178q119 199 180 381q53 149 195 414q67 120 141 206q72 84 141 86q33 0 64 -6q30 -8 59 -8q39 -2 41 25q0 22 -27 30q-28 9 -61 9q-80 0 -172 -21q-94 -27 -207 -98q-221 -135 -538 -561q-121 -170 -269 -373
q-149 -201 -305 -342l-4 4q123 174 195 383q69 207 137 410q67 202 170 356q104 153 289 215l-2 18q-324 -67 -535 -278t-391 -516q-156 -264 -301 -461q-72 -92 -152 -149q-77 -58 -170 -58q-20 0 -41 10q-22 7 -26 19q18 8 24 24q7 17 7 33q0 29 -17 47q-14 21 -43 21
q-70 -2 -72 -72q2 -63 50 -84q43 -22 98 -22q203 4 348 192q74 90 143 203q70 112 144 235q147 254 338 480q188 223 454 321l4 -4q-202 -107 -309 -272q-106 -168 -166 -365q-57 -197 -114 -395q-58 -201 -162 -375l14 -20q207 157 361 356q153 197 290 397
q185 258 391 457q207 199 390 235l4 -4q-195 -88 -312 -278q-116 -193 -204 -420t-197 -420q-55 -96 -125 -170q-74 -74 -168 -121q-53 11 -110 13q-11 0 -27 -2q-18 -2 -18 -21q2 -22 43 -22q20 2 57 8q35 8 117 8q583 -4 862 551z" />
    <glyph glyph-name="k" unicode="N" horiz-adv-x="1479" 
d="M2056 1112q68 23 119 76q51 49 53 121q0 59 -41 96q-41 35 -113 37q-133 -2 -274 -135q-145 -136 -289 -355q-225 -368 -395 -762l-4 5q37 145 37 260q-4 211 -39 383q-37 174 -39 337q0 70 8 115q6 45 15 76q18 53 32 92q-57 -2 -84 -61q-28 -58 -34 -103
q-160 -387 -414 -813q-123 -200 -260 -329q-137 -134 -283 -136q-37 0 -55 15q-21 14 -23 24q17 4 23 21q4 16 4 28q-2 60 -61 62q-74 -4 -78 -76q2 -57 57 -82q51 -24 100 -24q168 4 316 141q147 135 270 334q250 428 367 716h4q-2 -75 -2 -147q2 -203 39 -403
q34 -203 39 -406q0 -117 -25 -235h14q230 538 488 954q86 135 225 278q68 70 139 113q72 41 137 43q97 -2 101 -92q0 -41 -17 -84q-18 -45 -57 -72v-12z" />
    <glyph glyph-name="l" unicode="O" horiz-adv-x="1593" 
d="M1429 1194q2 80 -30 137q-35 57 -138 59h-28l-4 5q51 36 131 38q51 0 82 -22q30 -23 45 -59q22 -76 20 -162q-4 -383 -215 -709v0q-254 158 -254 475q0 125 51 236q50 106 109 170q29 4 49 4q98 -2 129 -49q29 -51 29 -123h24zM475 299q6 348 213 657q201 308 467 400
l4 -4q-82 -97 -119 -207q-35 -113 -35 -205q3 -309 275 -479q-86 -144 -254 -287q-82 -70 -166 -111q-86 -47 -164 -47q-55 0 -94 29q-43 25 -72 66q-55 86 -55 188v0zM1837 553q-137 -131 -307 -133q-111 0 -191 37q99 137 181 327q83 187 86 359q2 313 -240 315
q-51 0 -98 -20q-47 -23 -78 -52q-246 -51 -533 -356q-131 -147 -221 -328q-90 -182 -92 -374q0 -336 324 -344q96 2 190 45q96 41 184 110q181 144 285 297q39 -16 88 -26q49 -15 113 -15q82 0 170 41q88 37 151 103z" />
    <glyph glyph-name="m" unicode="P" horiz-adv-x="1593" 
d="M2001 1489q-111 -27 -217 -74q-88 41 -236 43q-473 -8 -809 -270q-162 -121 -256 -264q-98 -148 -98 -291q0 -107 68 -180q63 -76 172 -76q90 0 163 45q72 41 125 106q113 142 115 303v78h-25v-78q-2 -151 -106 -286q-49 -62 -117 -101q-67 -43 -147 -43q-182 2 -182 205
q2 187 108 338q102 152 268 260q348 225 709 229q51 0 113 -6q57 -8 102 -28q-92 -41 -178 -115q-86 -78 -166 -178q-162 -207 -309 -445q-144 -233 -281 -413q-67 -86 -135 -146q-70 -59 -139 -75v0q-264 59 -437 59q-59 0 -83 -16q-27 -15 -27 -43q0 -25 45 -41
q43 -19 143 -19q160 2 252 21q47 10 74 16q29 4 37 4q172 -39 354 -41q338 0 555 137q215 136 393 414l-16 8q-313 -526 -914 -534q-172 0 -339 24v4q227 86 387 269q159 182 284 399q127 217 250 408q123 190 281 286v0q88 -55 88 -198q-2 -168 -88 -301q-41 -62 -90 -101
q-54 -41 -107 -41q-72 -2 -74 68q0 31 25 53q-19 31 -53 33q-68 -4 -70 -72q0 -47 39 -76q37 -30 108 -30q148 2 279 116q63 58 102 125q39 68 39 146q2 196 -168 297q45 24 95 45q51 18 98 35z" />
    <glyph glyph-name="n" unicode="Q" horiz-adv-x="1479" 
d="M1245 850q-67 -68 -143 -113t-197 -45q-219 4 -219 223q4 215 176 365q166 149 371 153q125 -2 192 -77q68 -76 68 -195q-2 -182 -100 -342q-99 -162 -248 -295q-322 -270 -580 -389q-160 37 -327 39q-134 0 -215 -27q-82 -26 -84 -90q2 -37 47 -55t112 -18q181 0 375 84
v0q61 -31 176 -72q115 -47 236 -49q276 6 495 200q217 185 359 398l-13 8q-55 -72 -123 -156q-69 -84 -157 -164q-86 -77 -193 -127q-110 -53 -241 -53q-238 2 -420 72q299 129 651 416q164 139 272 295q107 155 109 313q-2 166 -96 237q-99 72 -254 72q-266 -4 -455 -166
q-194 -157 -199 -354q0 -121 82 -195q76 -75 203 -75q211 2 352 168zM12 68q2 45 54 61q47 12 88 12q157 -2 292 -61q-41 -19 -129 -43q-86 -29 -168 -29q-137 0 -137 60v0z" />
    <glyph glyph-name="o" unicode="R" horiz-adv-x="1821" 
d="M950 889q-2 -156 -102 -291q-49 -66 -119 -104q-72 -43 -162 -43q-209 4 -211 243q2 176 99 314q94 135 243 231q320 192 649 194q82 0 166 -10q82 -14 150 -49q-215 -108 -379 -330q-164 -223 -303 -464q-68 -117 -135 -222q-68 -104 -137 -188q-68 -82 -142 -129
q-73 -47 -153 -49q-47 2 -82 24q-37 21 -45 45q30 0 45 23q12 20 12 45q0 29 -16 47q-19 16 -47 16q-82 -2 -84 -81q2 -74 65 -107q60 -37 129 -37q221 4 397 182q174 175 322 418q149 246 291 465q141 219 293 320v0q41 -29 59 -74q18 -47 18 -100q-2 -181 -108 -302
q-107 -124 -291 -126q-43 0 -86 8l-8 -21q69 -6 110 -33q41 -26 41 -104q0 -51 -20 -117q-23 -67 -53 -137q-29 -67 -52 -131q-24 -61 -24 -109q0 -67 43 -102q41 -37 113 -37q172 0 374 213q92 96 158 187q66 90 111 163l-19 9q-137 -217 -297 -375q-184 -172 -313 -172
q-60 2 -60 65q5 90 66 234q27 71 45 137q19 63 19 109q0 135 -127 184v4q192 -2 337 92q148 94 152 309q-2 168 -156 254q86 49 187 66l-2 12q-50 -4 -111 -25q-61 -22 -104 -38q-70 36 -160 51q-90 12 -182 12q-389 -4 -719 -219q-156 -102 -252 -240q-100 -135 -100 -292
q6 -275 282 -281q185 4 297 147q111 140 113 316h-25z" />
    <glyph glyph-name="p" unicode="S" horiz-adv-x="1139" 
d="M66 526q-54 0 -84 -45q-35 -47 -35 -121q2 -174 116 -282q111 -109 299 -111q240 -4 422 150q183 155 221 567q9 131 25 262q14 131 49 242q37 108 107 178q69 65 186 67q64 0 105 -34q38 -37 40 -111q0 -88 -45 -149q66 0 111 34q45 31 45 97q-2 84 -68 137
q-65 51 -176 51q-241 -2 -368 -211t-133 -575q0 -242 -113 -453q-57 -100 -156 -162q-96 -63 -237 -65q-168 2 -264 82q-101 78 -101 188q-2 80 37 133q17 -20 43 -20q66 2 68 73q0 76 -94 78v0z" />
    <glyph glyph-name="q" unicode="T" horiz-adv-x="1593" 
d="M1309 1012q2 -39 2 -80q-2 -150 -133 -258q-134 -115 -349 -117q-313 0 -317 248q10 473 1073 493q201 -10 401 -16v-4q-219 -49 -378 -246q-162 -199 -304 -438q-141 -238 -303 -416q-163 -182 -391 -186q-121 0 -200 53q-82 49 -95 147q17 -4 25 -4q29 0 47 21
q21 16 21 47q-5 72 -76 76q-47 -2 -72 -31q-27 -31 -27 -78q0 -69 37 -119q31 -49 84 -79q113 -58 236 -58q151 2 274 56q121 51 215 131q94 77 164 165q68 86 111 156q67 105 123 193q53 90 98 165q90 152 170 252q80 103 176 152t237 49q146 -2 201 8q27 6 39 17
q10 8 10 26q0 31 -20 45q-19 15 -45 15q-27 0 -68 -4q-43 -9 -100 -9q-139 6 -371 13q-733 -7 -1030 -197q-293 -186 -287 -395q0 -264 334 -273q230 2 371 123q141 117 143 281q0 37 -2 76h-24z" />
    <glyph glyph-name="r" unicode="U" horiz-adv-x="1706" 
d="M1861 1425q-428 -688 -618 -958q-84 -117 -266 -275q-88 -71 -176 -122q-90 -54 -166 -54q-29 0 -51 21q-27 20 -27 69q0 50 29 115q28 62 73 139q97 156 222 334q129 178 225 338t98 264q0 80 -53 123q-53 39 -141 39q-254 -6 -443 -186q-90 -82 -141 -178
q-55 -99 -55 -195q2 -174 172 -174q84 0 155 57q70 54 107 117l-23 4q-32 -55 -92 -100q-61 -51 -145 -53q-78 0 -115 45q-35 41 -35 106q0 94 56 188q53 93 139 170q180 168 397 174q51 0 86 -18q33 -20 33 -72q-2 -102 -103 -262q-96 -159 -225 -340q-127 -180 -225 -344
q-47 -80 -76 -147q-31 -70 -31 -123q0 -68 43 -104q41 -37 113 -39q78 2 158 39q78 34 155 90q156 118 258 235l5 -4q-23 -35 -43 -84q-23 -51 -23 -98q0 -80 39 -127q39 -49 125 -51q90 2 178 51q90 47 176 125q176 166 338 379l-16 6q-138 -180 -316 -353
q-88 -79 -172 -131q-86 -53 -162 -53q-94 2 -92 101q0 69 62 182q57 110 161 270q216 315 566 864h-138z" />
    <glyph glyph-name="s" unicode="V" horiz-adv-x="1479" 
d="M1431 1458q-106 -86 -258 -123q-153 -39 -268 -69q-67 -19 -149 -45q-84 -31 -160 -76t-123 -113q-51 -67 -51 -164q0 -86 59 -137q58 -51 144 -51q98 2 161 67q64 66 66 152q-2 45 -6 76h-23q4 -35 4 -72q-2 -88 -61 -141q-57 -58 -135 -58q-64 0 -105 41
q-47 37 -47 109q0 86 47 154q45 65 115 110q70 49 147 80q39 16 76 29q37 10 68 18q104 29 207 55q49 13 96 29q45 16 88 37l4 -4q-172 -115 -272 -281q-105 -168 -172 -360q-68 -189 -136 -379q-69 -188 -178 -348l11 -10q258 153 493 299q328 200 606 483q133 139 215 276
q78 136 80 256q0 60 -18 97q-21 34 -74 34q-78 -4 -80 -79q-2 -54 45 -72q2 -47 -18 -139q-23 -95 -97 -222q-73 -124 -225 -276q-153 -152 -409 -319q-195 -127 -434 -269l-5 4q70 78 125 164q52 84 95 176q81 183 149 375q68 193 162 371q94 174 256 305z" />
    <glyph glyph-name="t" unicode="W" horiz-adv-x="1933" 
d="M1374 1442q-6 -13 -78 -39q-73 -29 -282 -88q-271 -70 -449 -168q-186 -98 -188 -279q0 -92 59 -139q55 -51 139 -51q107 0 172 69q66 64 68 170q0 25 -4 50h-25q4 -25 4 -50q-2 -84 -55 -145q-57 -68 -153 -70q-66 0 -105 43q-43 41 -43 115q2 123 96 205q93 82 230 137
q139 53 282 98q144 43 248 84l4 -4q-172 -121 -270 -272q-100 -156 -162 -326q-61 -170 -117 -342q-55 -172 -143 -329q-20 -29 -61 -54q-19 -12 -31 -24q-16 -17 -16 -29q0 -18 28 -20q41 2 78 47q35 43 94 100q481 444 807 844l4 -2q-110 -240 -192 -502
q-86 -262 -228 -471l13 -16q63 61 178 139q112 76 217 145q242 156 571 463q154 150 256 301q103 152 105 289q0 43 -19 82q-20 37 -71 39q-80 -4 -82 -76q0 -57 45 -86q-21 -184 -131 -352q-52 -84 -123 -164q-72 -80 -152 -154q-342 -297 -655 -489l-4 4q110 139 176 301
q65 162 117 321q53 164 127 312q71 145 194 258q29 22 60 55q30 33 32 57q-2 29 -26 29q-43 -2 -97 -49q-55 -51 -110 -121q-115 -156 -164 -229q-131 -178 -375 -432q-245 -258 -450 -451l-4 4q94 146 159 320q66 172 131 342q66 174 156 325q45 78 100 142q56 65 123 116z
" />
    <glyph glyph-name="u" unicode="X" horiz-adv-x="1706" 
d="M1061 862q-47 -102 -133 -182q-88 -84 -195 -86q-100 2 -149 80q-52 71 -52 166q5 256 166 421q154 168 340 172q123 -2 180 -77q54 -76 54 -193q-11 -364 -310 -743q-137 -178 -305 -293q-168 -117 -335 -119q-54 0 -89 19q-34 16 -41 36q13 9 23 23q10 12 10 39
q-2 76 -76 80q-71 -2 -75 -90q0 -62 71 -97q68 -34 172 -34q217 6 426 163q209 152 318 332l4 -4q-39 -117 -39 -229q-2 -105 55 -180q56 -80 183 -82q176 4 356 168q180 159 340 387l-15 6q-100 -148 -282 -330q-86 -84 -180 -139q-97 -60 -187 -60q-92 2 -121 88
q-28 82 -26 179q2 165 86 360q82 193 217 365q135 176 291 286q153 113 301 115q37 0 61 -4q23 -6 35 -17q25 -18 29 -45q4 -24 16 -45q10 -22 51 -22q29 0 45 20q17 21 17 45q-2 58 -49 82q-48 19 -127 19q-154 2 -353 -99q-200 -104 -409 -399l-4 4q37 98 39 207
q-2 160 -86 231q-86 72 -230 72q-139 -2 -250 -59q-112 -62 -196 -156q-168 -203 -170 -412q0 -118 69 -188q70 -74 187 -74q127 2 219 92q94 86 141 201h-18z" />
    <glyph glyph-name="v" unicode="Y" horiz-adv-x="1593" 
d="M1933 1425l-534 -819q-166 -250 -379 -420q-103 -82 -195 -129q-92 -49 -161 -49q-27 0 -50 21q-26 18 -26 69q2 94 108 254q101 158 232 336q131 182 231 342q102 158 105 256q0 174 -199 172q-225 -6 -434 -184q-97 -82 -158 -178q-65 -99 -65 -195q0 -70 38 -121
q37 -53 121 -55q99 2 172 55q74 51 119 123l-16 2q-47 -63 -109 -108q-63 -47 -158 -47q-61 0 -92 43q-30 40 -30 104q0 104 63 201q61 96 152 172q196 159 385 163q100 -2 100 -92q-2 -104 -104 -264q-101 -164 -232 -342t-231 -334q-49 -77 -78 -143q-31 -66 -31 -115
q-2 -157 172 -159q82 2 168 43t172 106q176 139 301 293l4 -4q-41 -53 -84 -125q-45 -72 -98 -152q-104 -163 -229 -329q-123 -164 -258 -273q-140 -114 -287 -116q-117 2 -186 63q-76 62 -76 170q2 111 49 166q45 51 106 51q74 -2 146 -39l8 17q-35 22 -82 39
q-47 16 -98 16q-96 0 -164 -62q-74 -61 -76 -174q4 -137 107 -204q100 -68 239 -68q269 6 486 207q217 196 397 465l878 1351h-139z" />
    <glyph glyph-name="w" unicode="Z" horiz-adv-x="1366" 
d="M1603 543q-102 -174 -243 -318q-146 -147 -322 -151q-61 0 -123 24q-63 21 -129 49q-63 29 -125 52q-61 22 -118 22q-82 0 -154 -26q-70 -29 -133 -64l-4 4q305 225 770 639t631 553q47 35 94 63q22 15 35 27q12 12 12 21q-2 20 -25 20q-28 -2 -51 -25q-24 -26 -57 -61
q-31 -35 -88 -61q-58 -29 -156 -29q-76 0 -147 25q-72 20 -140 49q-67 28 -137 49q-69 20 -143 20q-162 0 -279 -88q-120 -88 -123 -258q3 -110 68 -170q61 -59 152 -59q79 2 133 35l-4 22q-56 -33 -131 -33q-78 0 -134 58q-59 53 -59 151q2 123 80 203t197 82
q57 -2 118 -25q60 -24 123 -57q64 -33 137 -55q72 -27 152 -27q78 0 156 31q77 29 135 63l4 -4q-928 -798 -1440 -1235q-18 -14 -35 -32q-18 -19 -18 -39q-2 -19 16 -21q13 2 39 31q25 29 66 68q41 38 98 67q55 29 129 31q61 0 119 -27q55 -28 112 -63q60 -35 123 -62
q62 -26 129 -28q209 4 398 168q184 159 307 385z" />
    <glyph glyph-name="x" unicode="[" horiz-adv-x="797" 
d="M-336 -592h436l9 25h-334l1267 1974h326l10 24h-418z" />
    <glyph glyph-name="y" unicode="\" horiz-adv-x="455" 
d="M717 530q-2 11 -13 11q-12 2 -73 -86q-205 -256 -352 -361q-72 -53 -125 -84q-54 -30 -84 -45q-13 -6 -13 -12q0 -8 6 -10q15 -2 140 71q123 72 323 277q45 49 115 133q33 39 55 70q21 28 21 36v0z" />
    <glyph glyph-name="z" unicode="]" horiz-adv-x="797" 
d="M764 1431l-10 -24h333l-1271 -1974h-326l-8 -25h420l1296 2023h-434z" />
    <glyph glyph-name="braceleft" unicode="^" horiz-adv-x="1229" 
d="M508 340l315 627v0l318 -627h80l-377 745h-41l-377 -745h82z" />
    <glyph glyph-name="bar" unicode="_" horiz-adv-x="1024" 
d="M1024 -256v102h-1024v-102h1024z" />
    <glyph glyph-name="Uacute" unicode="&#x2018;" horiz-adv-x="455" 
d="M608 1212q-88 -24 -186 -102q-45 -37 -74 -86q-33 -51 -33 -111q0 -32 23 -59q22 -31 55 -31q80 0 82 78q0 39 -27 57q-26 15 -59 15q4 24 12 47q9 20 21 39q22 35 53 59q35 27 70 45q35 19 65 31z" />
    <glyph glyph-name="asciitilde" unicode="a" 
d="M725 584h-4q-8 55 -47 96q-43 39 -125 41q-86 -2 -180 -60q-97 -57 -181 -147q-82 -90 -133 -188q-55 -101 -55 -189q0 -61 33 -106q30 -45 104 -47q92 4 191 79q96 72 151 136l4 -2q-26 -56 -28 -113q0 -96 114 -100q72 2 156 57q80 55 164 139q170 182 284 363l-12 4
q-149 -228 -313 -379q-78 -74 -144 -115q-67 -45 -112 -45q-55 0 -55 53q2 78 120 254q113 174 269 389h-133zM123 131q0 94 47 195q45 96 113 180q69 86 145 139q76 51 135 51q88 -2 92 -96q-2 -90 -49 -188q-51 -101 -127 -185t-151 -139q-76 -55 -131 -55q-74 2 -74 98v0
z" />
    <glyph glyph-name="Adieresis" unicode="b" 
d="M786 1413q-464 -702 -618 -946q-82 -131 -111 -203q-32 -69 -30 -119q0 -75 51 -116q49 -43 121 -45q90 2 184 45q92 43 176 114q172 150 231 328v0q70 -63 164 -63q70 0 125 38q53 33 86 74l-14 14q-35 -45 -84 -73q-51 -33 -111 -33q-53 0 -94 25q-43 20 -63 45
q8 43 8 90q0 59 -19 98q-18 35 -55 35q-31 0 -43 -19q-14 -20 -14 -49q0 -24 12 -45q8 -24 8 -45q0 -67 -45 -160q-47 -94 -123 -184q-71 -88 -155 -147q-84 -64 -160 -64q-86 2 -88 92q-2 43 27 107q26 61 106 190q150 234 664 1020z" />
    <glyph glyph-name="Aring" unicode="c" horiz-adv-x="682" 
d="M917 526q-124 -190 -319 -346q-88 -69 -180 -114q-94 -50 -166 -50q-51 0 -76 41q-29 35 -29 92q0 93 48 189q43 94 108 176q68 82 139 133q70 47 123 49q72 0 72 -76q-2 -45 -21 -86q43 3 86 23t45 68q-2 51 -43 75q-45 21 -104 21q-90 0 -190 -51q-99 -54 -187 -140
q-88 -84 -141 -186q-57 -102 -57 -203q0 -75 53 -116q49 -41 125 -41q217 6 438 204q186 164 291 326z" />
    <glyph glyph-name="Ccedilla" unicode="d" 
d="M1251 1417l-528 -842h-6q2 66 -35 107q-37 39 -107 39q-88 0 -188 -57q-102 -58 -192 -148q-91 -90 -148 -190q-59 -103 -61 -191q0 -63 41 -104q39 -45 112 -47q56 2 107 26q49 23 94 60q90 75 156 155l4 -2q-17 -28 -31 -63q-18 -37 -18 -78q-3 -94 129 -98
q69 2 149 55q78 53 160 137q184 197 274 354l-16 9q-119 -195 -287 -361q-176 -172 -274 -170q-45 2 -45 49q0 60 88 203q84 143 215 340q280 410 542 817h-135zM659 573q-2 -63 -53 -151q-51 -92 -129 -180t-158 -146q-77 -63 -135 -63q-43 0 -57 30q-18 27 -18 70
q0 74 49 170q47 94 118 182q74 92 152 152q76 57 139 59q60 -2 78 -37q14 -34 14 -86v0z" />
    <glyph glyph-name="Eacute" unicode="e" horiz-adv-x="682" 
d="M614 639q-2 -53 -43 -96q-41 -45 -108 -82q-139 -76 -244 -92q49 100 152 211q51 51 100 84q49 32 90 32q51 0 53 -57v0zM930 541q-129 -207 -328 -361q-94 -74 -182 -119q-90 -45 -162 -45q-53 0 -78 45q-22 43 -22 91q2 108 51 194q153 33 321 113q80 41 131 86
q52 47 52 92q-2 82 -109 84q-90 -2 -188 -53q-99 -54 -187 -140q-84 -84 -139 -184t-55 -190q2 -168 180 -170q107 2 217 57q109 55 209 139q209 180 305 350z" />
    <glyph glyph-name="Ntilde" unicode="f" horiz-adv-x="455" 
d="M293 680q-279 -469 -539 -844q-135 -178 -278 -284q-146 -111 -312 -113q-231 6 -233 231q2 78 43 121q41 41 104 45v17h-18q-117 0 -168 -56q-51 -55 -51 -137q2 -121 98 -182q90 -62 215 -64q334 -2 606 299q271 303 650 967h475v24h-463q133 230 289 455
q77 107 155 174q78 66 154 68q88 -2 86 -90q-2 -64 -19 -115q50 4 80 37q29 31 29 80q0 59 -41 86q-41 26 -106 26q-111 0 -209 -63q-101 -62 -193 -168q-182 -221 -342 -490h-158v-24h146z" />
    <glyph glyph-name="Odieresis" unicode="g" 
d="M799 704l-76 -116h-6q0 57 -35 94q-37 39 -117 39q-84 0 -182 -51q-100 -54 -191 -142q-88 -84 -145 -184q-59 -102 -61 -201q0 -57 37 -106q32 -51 112 -53q53 0 105 22q49 23 94 55q90 70 155 152l5 -4q-62 -90 -148 -219q-90 -129 -201 -260q-106 -129 -233 -215
q-125 -90 -264 -92q-107 0 -176 47q-72 49 -74 157q0 84 41 135q37 50 117 50h16v16q-25 8 -61 8q-97 0 -158 -57q-64 -57 -66 -148q2 -104 99 -168q96 -63 245 -65q191 2 340 92q148 86 252 201q109 117 170 207q62 90 74 102q82 4 297 123q102 61 209 164q53 53 102 116
q49 62 92 138l-8 12q-108 -180 -287 -330q-182 -149 -391 -198v0q226 344 459 679h-141zM561 696q88 -4 86 -88q-2 -100 -53 -200q-51 -103 -129 -187q-76 -84 -150 -135q-75 -53 -123 -53q-81 2 -83 100q0 88 47 186q45 99 112 183q70 86 148 139t145 55v0z" />
    <glyph glyph-name="Udieresis" unicode="h" 
d="M793 1411q-433 -674 -912 -1411h133q86 170 297 422q101 117 199 194q98 78 174 80q29 0 47 -10q16 -14 16 -47q-2 -37 -47 -100q-49 -66 -112 -140q-60 -73 -109 -149q-51 -78 -51 -144q0 -55 35 -88q33 -34 86 -34q78 2 172 65q92 62 182 152q186 194 266 331l-12 5
q-72 -119 -256 -312q-88 -88 -178 -149q-43 -31 -84 -47q-43 -21 -80 -21q-49 2 -49 53q0 48 51 117q49 68 109 146q63 77 112 149q45 72 47 123q-2 125 -125 125q-69 0 -141 -39q-72 -41 -137 -100q-131 -131 -217 -246l-4 4l725 1077z" />
    <glyph glyph-name="aacute" unicode="i" horiz-adv-x="455" 
d="M344 704q-190 -282 -274 -411t-84 -211q0 -39 28 -68q25 -28 80 -30q76 2 168 63q90 62 180 150q191 192 275 333l-17 11q-71 -127 -262 -320q-88 -88 -176 -149q-88 -64 -151 -64q-45 0 -43 53q-2 50 94 189q92 139 313 454h-131zM594 1085q-29 0 -45 -18
q-21 -21 -21 -49q2 -66 66 -68q63 2 65 68q0 28 -18 49q-18 18 -47 18v0z" />
    <glyph glyph-name="agrave" unicode="j" horiz-adv-x="455" 
d="M319 704l-354 -571q-141 -246 -334 -471q-98 -106 -208 -170q-111 -67 -240 -69q-115 0 -182 53q-70 53 -72 172q0 63 43 112q43 52 125 52h14v18q-20 6 -55 6q-84 0 -152 -51q-71 -53 -73 -145q4 -123 106 -181q101 -61 234 -61q278 6 487 192q207 183 342 410
q227 41 412 190q182 150 309 349l-19 8q-139 -211 -317 -350q-180 -142 -371 -174v0l432 681h-127zM573 1085q-28 0 -45 -18q-20 -21 -20 -49q2 -66 65 -68q64 2 66 68q0 28 -19 49q-18 18 -47 18v0z" />
    <glyph glyph-name="acircumflex" unicode="k" 
d="M786 1411q-456 -711 -909 -1411h135q54 104 137 223q82 117 173 223q92 107 176 174q82 66 139 68q65 0 70 -84q-3 -96 -82 -153q-80 -58 -205 -58q-43 2 -66 4q-32 -2 -30 -18q0 -19 30 -19q35 0 64 9q28 8 47 8q33 0 35 -39q0 -19 -13 -47q-12 -29 -32 -64
q-17 -35 -29 -69q-16 -35 -16 -66q2 -108 129 -108q145 2 340 194q206 219 288 348l-18 13q-154 -217 -279 -338q-196 -193 -317 -193q-33 0 -33 39q2 55 33 115q27 55 29 104q-2 84 -60 117v4q96 14 193 70q47 28 75 65q27 37 27 86q0 51 -29 82q-30 29 -98 31
q-131 -4 -239 -109q-113 -104 -218 -229l-4 4q353 500 684 1030z" />
    <glyph glyph-name="adieresis" unicode="l" horiz-adv-x="455" 
d="M788 1425q-460 -725 -634 -979q-91 -137 -129 -217q-39 -80 -39 -141q-2 -100 118 -104q113 -2 306 180q157 151 313 370l-23 9q-157 -224 -319 -375q-78 -74 -145 -115q-70 -45 -123 -45q-45 0 -45 51q0 37 34 103q35 67 125 205q172 258 705 1058h-144z" />
    <glyph glyph-name="atilde" unicode="m" horiz-adv-x="1366" 
d="M14 0q84 176 287 424q96 117 197 192q98 78 176 80q57 0 57 -55q-2 -29 -37 -92q-37 -66 -96 -154q-59 -86 -125 -188q-65 -103 -125 -207h131q131 266 330 477q96 100 184 160q88 59 152 59q51 0 53 -51q-2 -39 -47 -102q-49 -66 -113 -144q-59 -77 -108 -151
q-51 -78 -51 -139q0 -54 32 -89q31 -34 92 -36q129 4 287 159q160 154 330 385l-17 9q-172 -238 -329 -379q-156 -148 -260 -150q-52 0 -54 53q0 45 52 117q49 70 108 150q64 82 113 155q45 76 47 129q0 107 -119 109q-65 0 -137 -39q-72 -37 -143 -100q-144 -129 -234 -263
l-4 5q41 55 102 145q29 43 50 84q18 41 18 67q0 52 -31 76q-30 25 -82 25q-80 -2 -153 -43q-76 -41 -144 -109q-135 -141 -217 -250l-4 5l271 380h-125q-226 -360 -447 -704h133z" />
    <glyph glyph-name="aring" unicode="n" 
d="M317 698q-198 -311 -444 -698h127q84 170 295 422q100 117 201 194q98 78 176 80q57 0 59 -49q-2 -51 -47 -117q-47 -67 -109 -141q-59 -74 -108 -145q-51 -74 -51 -138q0 -55 39 -88q39 -34 98 -34q90 2 186 73q92 72 185 172q157 176 245 314l-14 8q-98 -152 -285 -350
q-100 -101 -176 -146q-76 -47 -139 -47q-57 0 -57 58q0 40 51 110q49 70 108 148q62 81 109 153q45 72 47 123q0 53 -33 88q-35 33 -96 33q-68 0 -137 -41q-72 -41 -137 -105q-136 -133 -226 -249l-4 4l271 374z" />
    <glyph glyph-name="ccedilla" unicode="o" 
d="M1149 528q-92 -108 -217 -110q-68 0 -109 41q-41 39 -45 86q-2 82 -49 129t-131 47q-109 -2 -209 -60q-102 -57 -184 -145t-129 -178q-51 -94 -51 -166q0 -84 47 -135q45 -51 131 -53q96 2 188 51q90 47 168 123q160 159 209 325h4q23 -35 66 -59q41 -27 96 -27
q125 2 231 121zM135 123q0 86 47 182q45 98 113 186q70 91 143 148q76 57 142 57q88 -4 88 -102q-4 -168 -144 -367q-65 -94 -143 -153q-80 -66 -164 -66q-82 2 -82 115v0z" />
    <glyph glyph-name="eacute" unicode="p" 
d="M598 1102q-571 -885 -1132 -1765h126q283 477 484 765q80 127 241 344q78 103 160 172q78 68 150 70q28 0 49 -20q20 -25 20 -95q-2 -94 -51 -196q-49 -103 -104 -170q-105 -6 -236 -39q-59 -14 -102 -43q-43 -31 -43 -76q0 -33 28 -49q27 -16 56 -16q55 2 110 24
q54 23 103 58q100 73 170 133q53 12 110 26q58 15 125 43q68 33 148 97q79 63 170 174l-17 8q-225 -283 -506 -322l-4 4q64 62 115 146q49 84 51 190q-2 86 -43 121q-43 35 -112 35q-58 0 -111 -27q-53 -24 -102 -69q-99 -91 -162 -181l-4 4q223 330 448 654h-135zM272 8
q-22 0 -39 12q-20 13 -20 37q0 37 37 62q33 20 80 33q51 12 100 20q25 4 49 6q23 2 37 4l4 -4q-29 -37 -104 -98q-35 -29 -72 -49q-37 -23 -72 -23v0z" />
    <glyph glyph-name="egrave" unicode="q" 
d="M790 704l-69 -116h-4q0 51 -37 92q-41 39 -109 41q-84 -2 -184 -55q-100 -56 -195 -144q-90 -88 -151 -184q-61 -100 -64 -189q0 -71 39 -116q37 -47 113 -49q61 2 115 24q51 23 94 58q88 73 158 157l4 -4q-310 -434 -602 -882h131q211 339 430 665q245 51 428 205
q180 151 284 323l-12 11q-100 -160 -268 -308q-168 -149 -418 -208v0l440 679h-123zM561 696q53 0 74 -28q16 -29 16 -78q-2 -72 -53 -170q-51 -96 -127 -189q-76 -90 -154 -151q-77 -64 -135 -64q-82 0 -82 101q0 73 47 170q45 96 113 190q70 94 150 156q79 61 151 63v0z
" />
    <glyph glyph-name="ecircumflex" unicode="r" horiz-adv-x="682" 
d="M330 704q-232 -354 -449 -704h133q74 170 162 270q227 254 397 371l4 -4q-22 -39 -22 -88q2 -150 145 -152q78 2 140 49q59 43 102 86l-12 9q-39 -37 -92 -76q-56 -41 -119 -43q-78 0 -82 100q0 62 35 111q30 49 65 84q-35 4 -76 4q-34 0 -47 -10q-14 -13 -24 -35
q-248 -182 -391 -354l-4 4l260 378h-125z" />
    <glyph glyph-name="edieresis" unicode="s" horiz-adv-x="682" 
d="M928 534q-113 -180 -289 -335q-176 -158 -399 -195l-4 4q77 19 139 78q59 61 61 139q0 54 -14 99q-17 43 -35 81q-18 43 -35 84q-16 41 -16 84q0 54 31 88q28 35 86 35q49 0 73 -26q25 -25 25 -70q-2 -59 -31 -113q51 0 90 27q39 25 39 76q-2 61 -49 96q-51 35 -135 35
q-92 0 -158 -49q-69 -49 -69 -144q2 -71 45 -155q18 -41 30 -82q13 -43 13 -82q0 -76 -41 -135q-43 -64 -129 -66q-70 0 -121 37q-53 37 -55 107q0 26 8 49q10 22 30 35q9 -41 54 -44q30 0 45 23q12 18 12 47q-2 62 -70 62q-57 -2 -92 -41q-35 -41 -37 -99q2 -100 72 -149
q68 -51 166 -51q258 6 455 176q194 166 317 368z" />
    <glyph glyph-name="iacute" unicode="t" horiz-adv-x="569" 
d="M483 942l-159 -238h-115l-12 -24h110q-119 -180 -209 -315q-43 -68 -67 -127q-29 -58 -29 -107q0 -68 47 -106q45 -41 109 -41q84 2 172 55q86 51 176 133q180 176 321 362l-12 9q-119 -160 -301 -338q-90 -84 -176 -139q-90 -58 -166 -58q-35 0 -61 19q-27 14 -27 51
q0 69 92 205q88 135 252 397h274l13 24h-271l162 238h-123z" />
    <glyph glyph-name="igrave" unicode="u" 
d="M340 704q-168 -233 -268 -376q-103 -144 -105 -244q0 -94 123 -100q96 2 193 75q96 72 182 172l4 -4q-8 -10 -18 -47q-15 -39 -15 -80q0 -53 35 -84q35 -30 90 -32q80 2 170 69q90 64 178 156q183 203 264 325l-20 7q-80 -119 -260 -316q-84 -88 -170 -149
q-41 -31 -78 -47q-37 -21 -72 -21q-24 0 -39 19q-16 16 -16 41q-2 61 90 202q92 140 311 434h-141l-180 -274q-51 -82 -199 -238q-69 -71 -141 -122q-72 -54 -133 -54q-57 0 -59 64q2 74 124 239q119 164 285 385h-135z" />
    <glyph glyph-name="icircumflex" unicode="v" 
d="M340 704q-33 -53 -84 -120q-51 -72 -104 -146q-54 -73 -89 -145q-40 -74 -40 -137q2 -174 178 -172q90 2 184 47q92 43 176 114q172 152 229 320v0q29 -25 72 -43q41 -21 84 -21q70 0 137 39q64 35 95 94l-17 11q-39 -62 -96 -88q-60 -31 -117 -31q-41 0 -82 20
q-45 19 -67 50q6 36 8 79q0 80 -21 115q-22 31 -51 31q-24 0 -39 -21q-16 -18 -16 -45q0 -20 8 -39q8 -20 8 -36q-2 -70 -43 -164q-43 -94 -114 -189q-72 -92 -154 -153q-84 -66 -166 -66q-51 0 -74 27q-24 26 -24 63q0 66 43 148q39 82 96 168q123 180 213 290h-133z" />
    <glyph glyph-name="idieresis" unicode="w" horiz-adv-x="1366" 
d="M346 704q-164 -210 -254 -344q-94 -135 -96 -229q2 -143 156 -147q92 2 182 77q90 74 170 185l4 -4q-4 -13 -12 -41q-13 -31 -13 -72q0 -72 49 -109q45 -36 113 -36q172 4 348 155q176 148 250 326v0q64 -62 156 -64q157 0 227 125l-18 13q-58 -111 -205 -113
q-53 0 -90 22q-37 21 -64 46q10 47 12 100q0 55 -14 90q-16 35 -59 37q-62 0 -62 -66q-2 -35 25 -78q-8 -90 -55 -186q-47 -98 -121 -186q-72 -84 -152 -139q-82 -58 -157 -58q-84 2 -84 90q0 60 43 142q39 82 96 170q127 186 211 294h-142q-167 -268 -325 -477
q-80 -98 -154 -157q-73 -62 -145 -62t-72 86q0 105 109 244q104 135 278 366h-135z" />
    <glyph glyph-name="ntilde" unicode="x" horiz-adv-x="1024" 
d="M1270 551q-92 -160 -287 -338q-94 -84 -182 -139q-90 -58 -160 -58q-102 2 -100 123q0 76 47 170q45 94 116 182q72 89 154 146q78 57 150 59q57 -2 57 -61q-2 -41 -27 -96q17 -5 29 -5q43 0 72 27q24 23 24 51q0 47 -37 78q-37 29 -104 31q-105 -2 -193 -57
q-88 -54 -139 -113v0q0 76 -45 131q-47 53 -139 55q-96 -2 -156 -59q-31 -27 -57 -62q-27 -36 -51 -77l18 -13q31 56 90 119q29 31 62 49q34 19 71 19q49 0 74 -33q23 -33 23 -84q0 -76 -46 -174q-43 -98 -118 -193q-72 -94 -158 -155q-88 -66 -172 -66q-72 0 -117 33
q-45 31 -47 86q2 35 25 53q14 -28 51 -28q29 0 45 20q14 16 14 43q0 29 -14 47q-18 21 -57 21q-43 -2 -72 -37q-31 -35 -33 -90q2 -78 56 -123q53 -47 149 -49q115 2 211 69q96 66 164 154l4 -4q-23 -43 -23 -97q0 -53 41 -86q37 -34 111 -36q90 2 192 59q101 57 197 143
q201 185 303 359z" />
    <glyph glyph-name="oacute" unicode="y" 
d="M338 704q-201 -288 -293 -419t-92 -203q0 -96 123 -98q67 2 133 34q63 33 119 80q59 47 104 101q47 51 78 88l4 -4q-145 -254 -375 -557q-114 -142 -243 -234q-131 -96 -277 -98q-92 2 -160 57q-73 53 -75 156q0 155 143 192v6q-100 3 -168 -47q-72 -51 -74 -157
q2 -101 101 -164q92 -66 231 -68q152 2 270 60q119 53 217 143q193 190 344 420q402 71 715 528l-14 6q-287 -422 -686 -510v0q217 349 444 688h-127q-172 -278 -352 -479q-88 -96 -166 -151q-80 -58 -141 -58q-58 0 -58 60q0 39 39 100q35 64 95 143q125 166 278 385h-137z
" />
    <glyph glyph-name="ograve" unicode="z" horiz-adv-x="797" 
d="M1053 547q-111 -187 -254 -338q-70 -72 -135 -115q-68 -45 -127 -45q-46 2 -111 43q-31 19 -68 31q-41 12 -84 12q-69 -2 -151 -37l-4 4q168 111 469 349q137 108 233 190q94 80 96 96q0 17 -12 17t-20 -15q-11 -16 -29 -35q-16 -18 -47 -32q-31 -17 -82 -17
q-45 2 -107 33q-59 31 -151 33q-88 -2 -137 -55q-49 -54 -96 -146l14 -6q31 47 63 92q33 47 82 49q60 -2 121 -32q59 -31 107 -33q96 2 153 49l4 -4q-295 -240 -540 -420q-117 -86 -187 -143q-71 -56 -73 -70q0 -12 12 -14q16 0 31 16q12 14 30 31q19 20 43 33q25 14 51 14
q89 -4 156 -49q37 -19 74 -33q37 -16 82 -16q82 2 168 57t170 139q174 180 266 359z" />
    <glyph glyph-name="ocircumflex" unicode="{" horiz-adv-x="797" 
d="M836 1112q167 291 350 289l16 24q-59 0 -115 -10q-57 -10 -116 -47q-115 -66 -246 -268l-262 -414q-68 -109 -137 -172q-74 -61 -187 -94q66 -25 68 -88q0 -64 -80 -178l-260 -414q-41 -66 -66 -121q-28 -55 -28 -98q-4 -98 159 -107l19 25q-35 2 -57 27q-25 22 -27 51
q0 65 94 211l248 391q90 133 92 209q0 67 -70 90l2 4q123 31 203 104q78 74 152 195z" />
    <glyph glyph-name="odieresis" unicode="|" horiz-adv-x="455" 
d="M401 0h70v1458h-70v-1458z" />
    <glyph glyph-name="otilde" unicode="}" horiz-adv-x="797" 
d="M-27 -272q-168 -291 -350 -289l-16 -25q61 0 119 15q57 12 114 45q115 63 244 266l262 414q68 112 139 174q72 63 185 92q-68 24 -68 88q0 63 80 178l260 414q45 67 70 123q24 55 24 96t-35 74q-36 32 -125 32l-18 -24q37 -2 61 -25q23 -22 23 -53q0 -66 -94 -211
l-248 -391q-92 -133 -92 -209q-2 -68 69 -90l-2 -4q-122 -31 -198 -101q-80 -73 -156 -198z" />
    <glyph glyph-name="uacute" unicode="~" horiz-adv-x="1229" 
d="M1161 465v0q-33 -55 -76 -98q-43 -48 -104 -50q-41 0 -94 25q-56 23 -115 49q-59 29 -115 47q-59 19 -112 19q-101 -2 -162 -56q-61 -53 -94 -120l73 -41v0q23 57 68 102q45 43 129 45q61 0 113 -20q51 -23 98 -52q51 -28 102 -47q52 -20 107 -20q94 0 153 57
q31 27 58 57q24 31 45 62z" />
    <glyph glyph-name="fl" unicode="&#xa1;" horiz-adv-x="682" 
d="M442 436q-200 -313 -446 -590q-27 -28 -53 -63q-31 -37 -33 -78q2 -29 20 -47q19 -23 47 -23q39 0 68 35q29 33 61 121q146 332 349 637zM563 569q33 0 55 25q21 20 21 51q-4 72 -76 76q-31 0 -51 -21q-25 -22 -25 -55q0 -31 25 -51q20 -25 51 -25v0z" />
    <glyph glyph-name="questiondown" unicode="&#xa2;" horiz-adv-x="1024" 
d="M917 938l-120 -217q-97 -4 -197 -60q-102 -53 -186 -139q-84 -84 -135 -180q-54 -100 -54 -195q0 -159 164 -163l-135 -242l16 -4l138 246q110 6 237 69q125 64 215 150l-10 12q-57 -51 -168 -117q-53 -30 -107 -51q-55 -22 -102 -22q-20 0 -39 6l367 661q39 -12 39 -74
q-2 -38 -13 -69q13 -4 29 -4q41 0 68 28q26 27 26 58q-4 86 -133 90l117 213zM418 37q-62 35 -62 121q0 63 39 155q37 88 99 176q61 88 139 148q74 57 151 59z" />
    <glyph glyph-name="exclamdown" unicode="&#xa3;" horiz-adv-x="1517" 
d="M915 545q-63 -131 -147 -254q-88 -125 -215 -209v0q-115 43 -260 84q-146 41 -268 43q-70 0 -111 -25q-43 -24 -45 -75q2 -31 27 -54q24 -24 67 -41q88 -34 211 -34q201 4 336 61v0q76 -33 178 -64q102 -32 203 -34q379 2 571 346l-14 8q-160 -297 -492 -297
q-194 0 -372 74q303 166 454 471h510v24h-499q49 95 116 230q64 133 150 264q86 133 190 223q105 88 227 90q201 0 205 -205q-2 -133 -98 -270q-45 -63 -104 -104q-62 -43 -129 -43q-60 0 -103 34q-43 33 -43 95q0 57 29 106q26 49 67 90q90 82 183 111l-4 12
q-113 -35 -203 -117q-43 -39 -68 -92q-28 -51 -28 -112q0 -70 51 -111q49 -41 121 -41q73 0 141 37q65 35 119 94q112 123 114 289q0 110 -65 180q-66 70 -193 72q-151 -2 -274 -84q-123 -84 -221 -213q-191 -279 -303 -535h-586v-24h575zM4 184q72 -2 211 -41t264 -94
q-135 -45 -307 -45q-127 0 -201 33q-75 29 -77 72q2 38 32 57q31 18 78 18v0z" />
    <glyph glyph-name="macron" unicode="&#x2215;" horiz-adv-x="342" 
d="M-76 -16h58l847 1118h-59z" />
    <glyph glyph-name="quotedblleft" unicode="&#xa5;" horiz-adv-x="1024" 
d="M1206 620l17 25h-349l80 125h307l15 25h-305q114 196 311 409q98 100 219 164q121 63 258 65q55 0 86 -12q29 -14 29 -39q0 -28 -17 -49q-20 -22 -69 -26q24 -41 90 -41q53 0 74 30q20 29 20 64q4 90 -201 98q-282 -6 -464 -170q-185 -160 -299 -358l-5 4q19 55 35 108
q13 56 13 121q0 133 -84 215q-86 78 -287 80q-162 0 -315 -78q-72 -39 -117 -104q-49 -68 -49 -162q0 -63 49 -104q45 -43 108 -43q49 0 90 28q37 25 60 66l-8 6q-21 -8 -37 -14q-17 -9 -41 -9q-53 0 -86 33q-37 31 -37 78q0 111 96 195q94 81 285 83q53 0 104 -8t92 -37
q45 -26 70 -75q25 -52 25 -133q0 -213 -123 -385h-342l-15 -25h342l-77 -125h-295l-17 -25h295q-237 -368 -403 -620l157 16q35 88 154 275q117 186 213 329h348z" />
    <glyph glyph-name="quotesinglbase" unicode="&#x192;" horiz-adv-x="1024" 
d="M704 659l-213 -722q-32 -134 -86 -273q-26 -65 -63 -106q-37 -43 -84 -45q-39 2 -57 26q-19 25 -19 60q0 61 17 114q-54 0 -82 -28q-33 -33 -33 -80q0 -56 41 -84q37 -31 102 -33q62 2 111 35q47 33 80 82q35 51 61 106q25 58 43 105q162 415 291 843h317v25h-309
q17 51 51 160q33 108 82 229t111 207q31 41 63 65q31 23 64 23q69 2 72 -92q0 -27 -9 -55q-12 -31 -34 -54q51 0 88 31q34 27 36 88q0 53 -38 84q-41 31 -99 31q-92 -2 -170 -84q-80 -80 -145 -201q-131 -260 -178 -432h-328v-25h317z" />
    <glyph glyph-name="logicalnot" unicode="&#xa7;" horiz-adv-x="1024" 
d="M1051 1458q-144 -2 -248 -86q-111 -86 -113 -235q0 -52 27 -111q-142 -2 -252 -80q-117 -80 -119 -235q0 -74 45 -148q41 -74 92 -151q56 -74 94 -148q39 -78 41 -151q-2 -133 -90 -197q-90 -63 -211 -63q-102 2 -163 59q-66 57 -66 149q-2 142 119 213q-17 13 -41 13
q-80 -2 -137 -56q-62 -53 -64 -141q2 -127 101 -192q96 -68 243 -70q170 2 289 88q117 84 119 229q0 54 -13 105q148 20 254 108q107 88 109 222q-2 77 -41 151t-90 148q-51 73 -90 147q-45 74 -45 147q0 111 65 185q62 73 176 75q90 0 148 -43q53 -45 55 -141
q-2 -59 -18 -92q-17 -33 -33 -51q14 -4 27 -4q53 0 88 45q34 43 34 94q-2 121 -92 172q-90 45 -200 45v0zM457 750q0 112 77 182q74 67 195 69q35 -63 76 -120q37 -60 71 -115q35 -55 58 -111q22 -57 22 -116q-2 -113 -75 -179q-74 -67 -187 -86q-22 64 -59 121
q-39 56 -80 109q-41 55 -68 116q-30 60 -30 130v0z" />
    <glyph glyph-name="breve" unicode="&#xa4;" horiz-adv-x="1024" 
d="M334 205l63 -60v0l82 95v0q117 -97 256 -95q137 -2 250 95v0l84 -95v0l59 60l-84 90q84 115 84 248q2 139 -86 252l86 86l-59 59v0l-90 -88v0q-109 88 -244 88q-137 0 -252 -88v0l-86 88v0l-63 -59l90 -86q-49 -56 -70 -121q-20 -66 -20 -131q0 -135 88 -248zM731 215
q-133 2 -223 100q-94 95 -96 228q2 135 96 231q90 94 223 96q135 -2 227 -96q91 -96 93 -231q-2 -133 -93 -228q-92 -98 -227 -100v0z" />
    <glyph glyph-name="D" unicode="'" horiz-adv-x="455" 
d="M559 1311q6 39 0 92q-6 24 -18 41q-15 14 -43 14q-54 -2 -60 -55t-2 -92l33 -367q2 -10 6 -31q2 -22 23 -24q20 2 26 24q2 21 2 31z" />
    <glyph glyph-name="apple" unicode="&#x201c;" horiz-adv-x="797" 
d="M586 1212q-88 -24 -187 -102q-45 -37 -73 -86q-33 -51 -33 -111q0 -32 22 -59q23 -31 56 -31q80 0 82 78q0 39 -27 57q-27 19 -59 17q8 47 32 84q23 35 54 59q34 27 69 45q35 19 66 31zM928 1212q-88 -24 -187 -102q-45 -37 -73 -86q-33 -51 -33 -111q0 -32 22 -59
q23 -31 56 -31q80 0 82 78q0 39 -27 57q-27 19 -59 17q8 47 32 84q23 35 54 59q34 27 69 45q35 19 66 31z" />
    <glyph glyph-name="Acircumflex" unicode="&#xab;" 
d="M842 684q-219 -178 -447 -346q135 -152 250 -318l14 7q-22 86 -63 161q-43 76 -90 150q176 162 346 332zM586 684q-219 -178 -447 -346q135 -152 250 -318l14 7q-22 86 -63 161q-43 76 -90 150q176 162 346 332z" />
    <glyph glyph-name="dotaccent" unicode="&#x2039;" horiz-adv-x="682" 
d="M627 684q-219 -176 -447 -346q135 -152 250 -318l14 7q-51 168 -155 309q178 162 346 334z" />
    <glyph glyph-name="ring" unicode="&#x203a;" horiz-adv-x="682" 
d="M88 20q219 181 444 347q-135 149 -247 317l-15 -4q21 -86 64 -162t90 -151q-178 -158 -346 -332z" />
    <glyph glyph-name="cedilla" unicode="&#xf001;" 
d="M768 680q-141 -211 -242 -350q-102 -140 -104 -230q0 -53 33 -84q30 -30 88 -32q75 2 168 63q90 62 180 150q190 192 274 333l-16 11q-72 -127 -262 -320q-88 -88 -176 -149q-88 -64 -152 -64q-45 0 -47 47q0 39 43 111q41 72 102 164q133 190 258 387q-182 -10 -268 -13
h-227q135 230 291 455q77 107 155 174q78 66 154 68q88 -2 86 -90q-2 -64 -19 -115q50 4 80 37q29 31 29 80q0 59 -41 86q-41 26 -106 26q-111 0 -209 -63q-101 -62 -193 -168q-182 -221 -342 -490h-158v-24h146q-279 -469 -539 -844q-135 -178 -278 -284
q-146 -111 -312 -113q-231 6 -233 231q2 78 43 121q41 41 104 45v17h-18q-117 0 -168 -56q-51 -55 -51 -137q2 -121 98 -182q90 -62 215 -64q334 -2 606 299q269 299 641 959l7 8h360z" />
    <glyph glyph-name="hungarumlaut" unicode="&#xf002;" 
d="M422 704q133 230 289 455q77 107 155 174q78 66 154 68q88 -2 86 -90q2 -66 -31 -127l-299 -480h-354zM1360 1425l-197 -35q-41 35 -114 35q-111 0 -209 -63q-101 -62 -193 -168q-182 -221 -342 -490h-158v-24h146q-279 -469 -539 -844q-135 -178 -278 -284
q-146 -111 -312 -113q-231 6 -233 231q2 78 43 121q41 41 104 45v17h-18q-117 0 -168 -56q-51 -55 -51 -137q2 -121 98 -182q90 -62 215 -64q334 -2 606 299q271 303 650 967h350l-15 -23q-53 -84 -106 -163q-55 -84 -102 -158q-48 -74 -76 -137q-31 -62 -31 -105
q0 -47 31 -78q28 -30 92 -32q65 2 156 63q88 62 180 152q192 194 274 335l-14 9q-115 -185 -299 -353q-88 -77 -164 -129q-78 -53 -123 -53q-51 2 -51 43q0 43 88 187q88 143 281 442l479 745v0z" />
    <glyph glyph-name="Oacute" unicode="&#x2013;" horiz-adv-x="1024" 
d="M995 324l25 57h-1024l-25 -57h1024z" />
    <glyph glyph-name="ae" unicode="&#x2020;" horiz-adv-x="1024" 
d="M934 967l223 360q16 25 29 47q10 21 10 39q0 43 -45 45q-29 0 -55 -31q-27 -30 -64 -96l-203 -364h-405l-12 -25h401l-629 -1094h56l675 1094h420l12 25h-413z" />
    <glyph glyph-name="ogonek" unicode="&#x2021;" horiz-adv-x="1024" 
d="M1335 942l12 25h-413l223 360q16 25 29 47q10 21 10 39q0 43 -45 45q-29 0 -55 -31q-27 -30 -64 -96l-203 -364h-405l-12 -25h401l-139 -242h-408l-12 -24h405l-475 -828h56l512 828h426l12 24h-424l149 242h420z" />
    <glyph glyph-name="caron" unicode="&#x2219;" horiz-adv-x="512" 
d="M418 428q-31 0 -51 -20q-25 -23 -25 -56q0 -30 25 -51q20 -25 51 -25q33 0 55 25q21 21 21 51q-5 72 -76 76v0z" />
    <glyph glyph-name="florin" unicode="&#xb6;" horiz-adv-x="1229" 
d="M303 -340l1026 1704h115l-1026 -1704h106l957 1589q53 86 120 111q66 22 134 20l26 45h-454q-199 -2 -347 -69q-151 -68 -249 -168q-99 -101 -148 -205q-51 -104 -51 -180q-4 -217 242 -217l-557 -926h106z" />
    <glyph glyph-name="radical" unicode="&#x2022;" horiz-adv-x="1024" 
d="M426 713q2 -152 106 -250q99 -105 250 -107q152 2 254 107q101 98 103 250q-2 151 -103 254q-102 100 -254 102q-151 -2 -250 -102q-104 -103 -106 -254v0z" />
    <glyph glyph-name="Lslash" unicode="&#x201a;" horiz-adv-x="455" 
d="M-23 -246q93 29 189 107q47 37 76 86q28 49 28 106q0 35 -20 64q-23 26 -58 26q-79 0 -81 -77q0 -39 28 -54q27 -18 58 -18q-5 -45 -27 -80q-23 -37 -57 -63q-33 -25 -68 -43q-37 -21 -70 -35z" />
    <glyph glyph-name="lslash" unicode="&#x201e;" horiz-adv-x="797" 
d="M266 -246q92 29 189 107q47 37 75 86q29 49 29 106q0 35 -20 64q-23 26 -58 26q-80 0 -82 -77q0 -39 29 -54q27 -18 57 -18q-4 -45 -26 -80q-23 -37 -58 -63q-32 -25 -67 -43q-37 -21 -70 -35zM-76 -246q92 29 189 107q47 37 75 86q29 49 29 106q0 35 -20 64
q-23 26 -58 26q-80 0 -82 -77q0 -39 29 -54q27 -18 57 -18q-4 -45 -26 -80q-23 -37 -58 -63q-32 -25 -67 -43q-37 -21 -70 -35z" />
    <glyph glyph-name="Ograve" unicode="&#x201d;" horiz-adv-x="797" 
d="M532 815q93 29 189 107q47 36 76 86q28 49 28 106q0 35 -20 64q-23 26 -58 26q-79 0 -81 -78q0 -39 28 -53q27 -18 58 -20q-5 -45 -27 -80q-23 -33 -57 -62q-33 -24 -68 -43q-37 -20 -70 -35zM190 815q93 29 189 107q47 36 76 86q28 49 28 106q0 35 -20 64q-23 26 -58 26
q-79 0 -81 -78q0 -39 28 -53q27 -18 58 -20q-5 -45 -27 -80q-23 -33 -57 -62q-33 -24 -68 -43q-37 -20 -70 -35z" />
    <glyph glyph-name="Ecircumflex" unicode="&#xbb;" 
d="M334 20q223 177 444 347q-135 149 -248 317l-14 -4q23 -86 66 -162q41 -78 90 -151q-178 -156 -346 -332zM78 20q221 177 446 347q-137 149 -250 317l-14 -4q23 -86 66 -162q41 -78 90 -151q-178 -156 -346 -332z" />
    <glyph glyph-name="Aacute" unicode="&#x2026;" horiz-adv-x="2048" 
d="M367 152q-31 0 -52 -21q-24 -22 -24 -55q0 -31 24 -51q21 -25 52 -25q32 0 55 25q20 20 20 51q-4 71 -75 76v0zM1049 152q-31 0 -52 -21q-24 -22 -24 -55q0 -31 24 -51q21 -25 52 -25q32 0 55 25q20 20 20 51q-4 71 -75 76v0zM1730 152q-30 0 -51 -21q-24 -22 -24 -55
q0 -31 24 -51q21 -25 51 -25q33 0 56 25q20 20 20 51q-4 71 -76 76v0z" />
    <glyph glyph-name="Scaron" unicode="&#x2030;" horiz-adv-x="2314" 
d="M2222 610q-162 -4 -307 -129q-70 -59 -111 -133q-45 -76 -45 -160q2 -188 186 -188q89 0 168 47q78 45 144 113q135 145 139 280q0 70 -41 119t-133 51v0zM2218 586q88 2 88 -80q-4 -133 -115 -299q-53 -76 -114 -127q-66 -55 -134 -55q-92 -2 -94 84q0 67 37 149
q33 82 86 156q53 75 119 123q65 47 127 49v0zM1497 610q-162 -4 -307 -129q-70 -59 -111 -133q-45 -76 -45 -160q2 -188 187 -188q88 0 167 47q78 45 144 113q135 145 139 280q0 70 -41 119t-133 51v0zM1493 586q88 2 88 -80q-4 -133 -115 -299q-53 -76 -114 -127
q-66 -55 -134 -55q-92 -2 -94 84q0 67 37 149q33 82 86 156q53 75 119 123q65 47 127 49v0zM1313 942q-375 -471 -588 -737q-217 -268 -219 -279q0 -10 10 -10q6 2 70 80q63 78 164 196q212 254 430 512q47 54 172 203q57 70 100 123q39 51 41 59q0 27 -23 29q-22 0 -41 -12
q-20 -14 -49 -60q-20 -32 -86 -88q-30 -24 -71 -41q-43 -20 -93 -20q-59 0 -88 31q-28 28 -53 67q-22 39 -61 68q-41 26 -123 26q-74 0 -156 -38q-80 -37 -149 -103q-70 -63 -111 -141q-45 -78 -45 -158q4 -180 180 -182q78 0 162 47q82 43 152 115q69 71 110 153t39 160
l4 4q25 -31 60 -51q34 -23 73 -23q58 0 107 25q47 20 78 49zM434 584q0 75 37 159q33 84 88 156q55 74 121 121q65 45 131 45q86 -2 86 -88q-4 -135 -121 -301q-55 -78 -123 -129q-67 -56 -139 -56q-82 5 -80 93v0z" />
    <glyph glyph-name="fi" unicode="&#xbf;" 
d="M659 457q-18 -37 -57 -68q-41 -33 -90 -63q-104 -58 -197 -99q-59 -26 -112 -63q-56 -37 -103 -82q-43 -43 -71 -96q-29 -54 -29 -115q0 -127 82 -188q78 -64 203 -64q145 2 270 96q127 93 131 230q-4 182 -184 186q-56 0 -103 -27q-49 -28 -80 -69l15 -10q71 81 164 81
q75 -2 102 -55q25 -55 25 -117q-5 -122 -101 -204q-98 -84 -211 -86q-200 4 -202 213q-5 176 133 295q51 43 110 71q60 31 119 60q61 30 115 71q53 39 90 97zM762 569q33 0 55 25q21 20 21 51q-5 72 -76 76q-31 0 -51 -21q-25 -22 -25 -55q0 -31 25 -51q20 -25 51 -25v0z
" />
    <glyph glyph-name="braceright" unicode="`" horiz-adv-x="455" 
d="M197 1171q-21 -2 -33 -18t-12 -37q0 -41 40 -90q35 -49 87 -94q51 -43 92 -70q41 -31 51 -31t10 9q-4 16 -74 73q-28 29 -53 62q-26 33 -31 69q-4 56 -22 91q-21 34 -55 36v0z" />
    <glyph glyph-name="ellipsis" unicode="&#xb4;" horiz-adv-x="455" 
d="M596 1171q-33 -2 -51 -36q-21 -35 -27 -91q-4 -36 -27 -69q-22 -33 -53 -62q-73 -57 -78 -73q0 -9 11 -9q12 0 53 31q41 27 92 70q51 45 88 94q35 49 37 90q0 21 -8 37q-13 16 -37 18v0z" />
    <glyph glyph-name="threequarters" unicode="&#x2c6;" horiz-adv-x="455" 
d="M197 831q141 99 262 220v0q57 -113 155 -224l17 11q-113 161 -115 333h-33q-133 -174 -295 -325z" />
    <glyph glyph-name="glyph130" unicode="&#x2dc;" horiz-adv-x="455" 
d="M567 934q72 -6 115 43q41 47 43 108q-2 13 -10 13q-15 0 -15 -19q-2 -26 -30 -47q-31 -24 -76 -24q-62 2 -143 38q-37 17 -72 29q-35 10 -60 10q-77 -2 -114 -49q-37 -45 -37 -98q-2 -21 8 -21q12 2 35 45q12 21 31 33q18 13 45 13q69 -3 137 -37q37 -13 74 -23
q32 -14 69 -14v0z" />
    <glyph glyph-name="Gbreve" unicode="&#xaf;" horiz-adv-x="455" 
d="M268 1005q-90 -2 -90 -40q0 -15 27 -13h409q45 0 62 13q14 10 14 26q2 17 -49 14h-373z" />
    <glyph glyph-name="gbreve" unicode="&#x2d8;" horiz-adv-x="455" 
d="M408 934q-54 0 -86 26q-33 23 -52 52q-32 69 -41 73q-14 -2 -12 -26q0 -51 51 -119q29 -31 68 -51q39 -25 94 -25q47 0 98 31q52 27 95 61q47 39 75 70q29 33 29 43q0 14 -10 14q-15 -4 -90 -73q-37 -29 -90 -52q-56 -24 -129 -24v0z" />
    <glyph glyph-name="Idotaccent" unicode="&#x2d9;" horiz-adv-x="455" 
d="M455 1071q-78 -2 -80 -78q0 -24 16 -45q12 -24 37 -24q35 0 57 24q21 21 21 51q0 25 -12 47q-13 23 -39 25v0z" />
    <glyph glyph-name="nonbreakingspace" unicode="&#xa8;" horiz-adv-x="455" 
d="M606 1069q-78 -2 -80 -78q0 -24 17 -45q12 -24 37 -24q34 0 57 24q20 21 20 51q0 25 -12 47q-12 23 -39 25v0zM311 1069q-78 -2 -80 -78q0 -24 17 -45q12 -24 37 -24q34 0 57 24q20 21 20 51q0 25 -12 47q-12 23 -39 25v0z" />
    <glyph glyph-name="Scedilla" unicode="&#x2da;" horiz-adv-x="455" 
d="M270 944q0 -61 41 -94q35 -35 86 -35q97 0 160 66q63 61 66 149q-3 62 -37 96q-35 33 -90 33q-93 -2 -156 -63q-70 -60 -70 -152v0zM573 1067q-2 -72 -53 -150q-24 -36 -55 -59q-33 -27 -70 -27q-76 2 -76 76q3 74 56 152q26 37 57 61q31 23 66 23q75 -4 75 -76v0z" />
    <glyph glyph-name="scedilla" unicode="&#xb8;" horiz-adv-x="455" 
d="M-317 -358q75 -21 155 -19q76 0 178 29q47 18 80 47q33 31 33 76q-2 69 -68 88q-63 18 -133 18l68 111h-23l-92 -152q88 2 123 -12t35 -61q-4 -72 -78 -95q-74 -24 -137 -24q-70 0 -139 10z" />
    <glyph glyph-name="cacute" unicode="&#x2db;" horiz-adv-x="455" 
d="M104 -375q50 0 80 10q29 11 35 19t12 25q5 16 7 28q-37 -22 -89 -24q-51 2 -75 34q-29 29 -29 70t18 74q15 33 31 57q43 64 58 80q-3 6 -13 6q-6 0 -20 -16q-15 -17 -31 -33q-41 -41 -70 -90q-28 -49 -30 -107q2 -55 32 -94q29 -37 84 -39v0z" />
    <glyph glyph-name="Ccaron" unicode="&#x2c7;" horiz-adv-x="455" 
d="M686 1171q-141 -96 -262 -219v0q-55 113 -156 223l-16 -10q113 -162 115 -334h32q133 177 295 326z" />
    <glyph glyph-name="Ocircumflex" unicode="&#x2014;" horiz-adv-x="2048" 
d="M2019 324l25 57h-2048l-25 -57h2048z" />
    <glyph glyph-name="Atilde" unicode="&#xc6;" horiz-adv-x="2048" 
d="M907 1075q31 -26 43 -61q12 -37 12 -78q-2 -121 -106 -234q-49 -53 -115 -86q-67 -36 -145 -36q-182 0 -184 182q0 76 51 168q49 92 155 176q107 84 281 141q172 53 418 55q176 -2 346 -30v-4q-143 -86 -313 -275q-170 -186 -283 -356q-47 -74 -119 -174
q-72 -105 -160 -205q-86 -100 -182 -168q-96 -72 -194 -74q-54 0 -88 21q-35 18 -41 57q22 0 30 23q9 18 9 35q-3 69 -70 71q-37 0 -57 -28q-23 -29 -23 -70q2 -76 72 -109q63 -32 129 -32q123 2 231 75q109 74 201 183q92 110 172 225q78 113 135 199q164 -23 348 -21
q-55 -194 -156 -373q-49 -84 -110 -139q-62 -57 -133 -67q-60 -7 -107 -9q-49 -2 -84 -8q-71 -6 -71 -41q2 -22 53 -20q61 2 145 32q84 27 166 29q101 0 193 -35q41 -10 121 -28q79 -17 120 -19q111 2 209 56q99 53 185 137q174 178 315 379l-14 4q-154 -215 -314 -348
q-160 -136 -438 -138q-76 0 -154 9q-77 8 -157 8q-51 0 -99 -8v6q177 84 285 241q109 156 172 332q41 0 135 14q90 11 137 19q-61 -131 -96 -277l12 -4q43 129 127 236q82 104 187 186q-39 2 -101 4q-28 0 -47 -14q-22 -19 -59 -82q-127 -49 -289 -57q47 163 146 325
q98 158 245 228q80 -11 160 -11q96 -2 203 27q51 16 82 49q28 33 30 88q-4 80 -75 105q-70 20 -140 18q-131 -2 -241 -43q-113 -45 -209 -104q-143 20 -295 20q-565 -6 -838 -205q-274 -194 -274 -403q0 -96 55 -156q54 -61 152 -61q145 2 266 117q123 108 127 264
q-2 92 -70 157zM2244 1474q80 0 136 -16q53 -20 55 -80q4 -84 -176 -80q-137 0 -262 21q-60 10 -107 16t-72 10q218 132 426 129v0zM1689 1266q115 -19 259 -35v-4q-347 -176 -480 -557q-102 0 -202 6q-48 4 -84 6q-37 2 -56 8q242 350 563 576v0z" />
    <glyph glyph-name="Ydieresis" unicode="&#xaa;" horiz-adv-x="545" 
d="M790 1020h-2q-8 33 -32 57q-27 23 -82 25q-56 0 -115 -35q-63 -35 -117 -88q-53 -53 -88 -111q-37 -59 -37 -108q-2 -39 19 -68q18 -33 72 -33q71 2 126 50q56 45 91 75h4q-13 -22 -15 -65q-2 -58 74 -60q49 0 109 39l-4 19q-56 -37 -91 -37q-34 0 -34 27q2 47 77 151
q74 104 174 236h-86zM678 1081q65 2 65 -49q-2 -47 -36 -104q-35 -60 -89 -113q-51 -53 -102 -88q-51 -39 -80 -39q-39 0 -37 59q0 58 31 117q29 58 72 107q45 51 92 82q47 28 84 28v0z" />
    <glyph glyph-name="glyph142" unicode="&#x141;" horiz-adv-x="1139" 
d="M1384 543q-391 -336 -751 -705v0q-13 101 -82 168q-70 64 -209 66q-51 -2 -82 -6l-4 4q188 77 326 215q133 137 239 303l387 114v25l-364 -111l-4 4q98 148 188 291q47 -4 111 -4q299 4 493 137q195 127 199 271q0 73 -45 110q-47 33 -125 33q-223 -6 -418 -164
q-197 -155 -317 -344q-127 12 -217 94q-93 82 -95 199q0 74 56 131q51 57 137 59q78 -2 129 -28l8 22q-53 29 -135 31q-94 -2 -154 -63q-65 -60 -65 -152q2 -133 96 -213q90 -82 221 -104q-112 -183 -213 -353l-362 -108v-25l344 105v0q-103 -174 -211 -299
q-109 -125 -240 -172q-73 -2 -227 -13q-70 -6 -121 -20q-51 -16 -53 -41q2 -16 18 -23q17 -10 41 -10q47 2 101 15q53 12 98 28q100 37 143 39q127 0 209 -67q84 -70 86 -203q0 -17 -6 -29q-8 -12 -18 -24q-23 -19 -25 -47q0 -21 27 -23q36 2 73 43q35 43 58 102
q139 156 374 373q238 217 392 356zM1638 1433q121 -2 123 -120q-2 -92 -59 -164q-62 -70 -156 -119q-203 -98 -403 -98q-62 0 -105 4q90 164 252 325q80 76 170 123q86 47 178 49v0z" />
    <glyph glyph-name="Otilde" unicode="&#xd8;" horiz-adv-x="1517" 
d="M514 147v0q-12 52 -18 97q-11 43 -11 94q4 264 215 586q99 151 226 249q125 99 264 101q108 -2 157 -99zM1503 1358v0q-123 102 -280 100q-146 -2 -287 -100q-141 -101 -275 -271l19 -10q100 125 239 238q140 114 304 118q81 0 143 -32q57 -35 96 -90l-98 -119v0
q-25 47 -68 78q-45 28 -114 28q-150 -2 -293 -102q-146 -100 -264 -258q-256 -336 -263 -633q0 -139 82 -250l-125 -143l15 -14l127 143v0q33 -37 88 -55q53 -19 110 -19q168 2 334 117q166 111 299 281q289 366 297 694q0 84 -10 149q-12 66 -64 133l129 152l-14 14z
M1356 1151q8 -31 8 -74q-2 -57 -31 -133l23 -4q30 61 32 139q0 27 -2 51q-2 27 -12 39l96 117v0q37 -84 37 -188q-6 -314 -250 -688q-114 -174 -258 -289q-145 -119 -303 -121q-57 0 -104 35q-49 35 -70 90z" />
    <glyph glyph-name="Idieresis" unicode="&#x152;" horiz-adv-x="2048" 
d="M1427 358q56 66 138 125q84 62 165 64q160 -4 160 -168q-4 -172 -135 -277q-131 -108 -315 -110q-148 2 -242 76q-92 69 -125 168q234 233 360 526q60 24 113 45q53 20 96 49q43 31 70 76q25 45 29 114q6 70 24 138q10 34 23 67q12 31 28 58q66 120 224 124q96 0 151 -45
q53 -49 55 -145q0 -111 -69 -184q-72 -76 -193 -78q-39 -2 -86 6v-22q35 -9 88 -9q127 0 232 76q106 74 110 209q-2 111 -82 166q-81 51 -184 51q-233 -4 -332 -137q-100 -133 -112 -332q-4 -84 -41 -129q-37 -47 -133 -74v0q57 146 59 301q-2 355 -342 363
q-172 -2 -299 -92q-127 -92 -278 -262l16 -17q117 131 248 236q131 106 291 110q155 -2 221 -102q61 -98 61 -254q-4 -166 -71 -322q-152 -43 -275 -147q-127 -106 -131 -278q-2 -68 25 -150q-60 -59 -146 -113q-88 -57 -178 -59q-127 2 -180 104q-53 97 -53 213
q2 166 73 334q68 166 174 303q107 142 226 226q116 84 215 86q182 0 184 -215q0 -54 -12 -129h22q13 59 15 129q0 106 -48 172q-51 65 -159 67q-111 -2 -246 -88q-137 -88 -266 -235q-129 -148 -211 -322q-88 -176 -90 -354q0 -144 78 -232q77 -90 221 -92q125 2 219 56
q94 51 174 126v0q104 -178 416 -182q237 2 411 123q176 119 180 293q-2 98 -69 147q-68 50 -160 50q-104 -3 -190 -66q-88 -66 -154 -145zM1055 352q0 131 82 236q77 102 202 135v0q-51 -121 -114 -240q-64 -121 -158 -223q-12 43 -12 92v0z" />
    <glyph glyph-name="fraction" unicode="&#xba;" horiz-adv-x="545" 
d="M383 772q0 -51 29 -80q28 -33 77 -33q74 0 146 37q67 35 121 88q114 113 116 205q0 53 -28 84q-31 29 -88 29q-68 0 -133 -33q-68 -35 -121 -88q-54 -53 -84 -109q-35 -55 -35 -100v0zM799 1016q-2 -94 -90 -209q-41 -53 -93 -88q-53 -39 -108 -39q-51 2 -51 63
q0 52 30 111q29 57 76 108q47 54 96 87q52 32 95 32q45 -2 45 -65v0z" />
    <glyph glyph-name="guilsinglleft" unicode="&#xe6;" horiz-adv-x="1175" 
d="M125 131q0 94 47 195q45 96 113 180q69 86 145 139q76 51 135 51q88 -2 92 -96q-2 -90 -49 -188q-51 -101 -127 -185t-151 -139q-76 -55 -131 -55q-74 2 -74 98v0zM1098 639q-2 -53 -43 -96q-41 -45 -109 -82q-139 -76 -244 -92q50 100 152 211q51 51 100 84q49 32 90 32
q52 0 54 -57v0zM795 704l-68 -120h-4q-8 55 -47 96q-43 39 -125 41q-86 -2 -180 -60q-97 -57 -181 -147q-81 -90 -133 -188q-55 -101 -55 -189q0 -61 33 -106q31 -45 104 -47q90 2 193 75q100 72 202 199l5 -4q-21 -43 -21 -100q0 -168 176 -170q107 2 217 57
q109 55 209 139q209 180 305 350l-16 11q-129 -207 -328 -361q-94 -74 -182 -119q-90 -45 -162 -45q-49 0 -71 45q-25 43 -25 91q2 108 51 194q154 33 322 113q80 41 131 86q51 47 51 92q-2 82 -109 84q-108 -2 -213 -70l-4 4l37 49h-112z" />
    <glyph glyph-name="onequarter" unicode="&#x131;" horiz-adv-x="455" 
d="M344 704q-190 -282 -274 -411t-84 -211q0 -39 28 -68q25 -28 80 -30q76 2 168 63q90 62 180 150q191 192 275 333l-17 11q-71 -127 -262 -320q-88 -88 -176 -149q-88 -64 -151 -64q-45 0 -43 53q-2 50 94 189q92 139 313 454h-131z" />
    <glyph glyph-name="glyph148" unicode="&#x142;" horiz-adv-x="455" 
d="M836 965v0l-299 -142l-5 4q70 99 400 598h-144q-284 -452 -444 -688l-289 -135l-12 -35v0l268 127l4 -4q-184 -274 -258 -397q-71 -127 -71 -205q-2 -100 123 -104q112 -2 305 180q157 151 313 370l-23 9q-157 -224 -319 -375q-78 -74 -145 -115q-70 -45 -123 -45
q-49 0 -49 51q0 27 16 68q18 39 63 113q89 141 357 542l317 148z" />
    <glyph glyph-name="guilsinglright" unicode="&#xf8;" 
d="M141 74q-6 22 -6 49q0 86 47 182q45 98 113 186q70 91 143 148q76 57 142 57q32 0 57 -22zM651 657q17 -22 17 -63q-4 -168 -144 -367q-65 -94 -143 -153q-80 -66 -164 -66q-49 0 -68 45zM778 844l-110 -133q-31 10 -70 10q-109 -2 -209 -60q-102 -57 -184 -145
t-129 -178q-51 -94 -51 -166q0 -104 67 -156l-108 -129l14 -16l113 135q36 -22 92 -22q96 2 188 51q90 47 168 123q160 159 209 325h4q23 -35 66 -59q41 -27 96 -27q125 2 231 121l-16 10q-92 -108 -217 -110q-68 0 -109 41q-41 39 -45 86q-6 110 -90 155l107 129z" />
    <glyph glyph-name="Igrave" unicode="&#x153;" horiz-adv-x="1175" 
d="M135 123q0 86 47 182q45 98 113 186q70 91 143 148q76 57 142 57q88 -4 88 -102q-4 -168 -144 -367q-65 -94 -143 -153q-80 -66 -164 -66q-82 2 -82 115v0zM1106 639q-2 -53 -43 -96q-41 -45 -109 -82q-139 -76 -243 -92q49 100 151 211q51 51 100 84q50 32 91 32
q51 0 53 -57v0zM25 172q0 -84 47 -135q45 -51 131 -53q172 4 317 139v0q19 -137 182 -139q107 2 217 57q109 55 209 139q209 180 308 350l-17 11q-133 -207 -330 -361q-94 -74 -182 -119q-90 -45 -162 -45q-49 0 -71 45q-25 43 -25 91q2 108 51 194q154 33 322 113
q80 41 131 86q51 47 51 92q-2 82 -108 84q-166 -4 -326 -141v0q-29 137 -172 141q-109 -2 -209 -60q-102 -57 -184 -145t-129 -178q-51 -94 -51 -166v0z" />
    <glyph glyph-name="approxequal" unicode="&#xdf;" horiz-adv-x="1139" 
d="M-891 -156q-18 4 -43 4q-96 0 -164 -45q-67 -47 -69 -145q2 -68 33 -113q30 -47 79 -77q105 -58 226 -58q209 4 389 127q180 119 309 299q432 631 702 1071q140 211 271 334q131 121 270 123q82 0 125 -45q41 -45 41 -117q0 -86 -62 -180q-63 -94 -213 -172
q-145 -68 -223 -125q-82 -61 -82 -162q2 -82 45 -172q21 -43 33 -86q12 -45 12 -92q0 -78 -45 -139q-45 -64 -147 -66q-80 0 -119 51q-39 47 -39 103q0 51 29 80q20 -37 59 -37q66 0 68 63q-2 66 -72 68q-59 0 -94 -41t-35 -109q0 -80 64 -139q59 -61 161 -63q271 4 461 174
q189 164 332 374l-18 9q-123 -176 -285 -330q-164 -154 -381 -201l-4 4q67 31 121 86q53 54 55 131q0 50 -12 97q-13 45 -33 88q-16 45 -29 90q-16 43 -16 86q-2 84 43 139q47 53 178 109q324 133 322 331q0 95 -66 156q-65 59 -180 61q-178 -2 -334 -124
q-160 -127 -309 -336q-295 -437 -641 -994q-107 -165 -281 -325q-86 -76 -178 -123q-92 -49 -188 -51q-103 2 -170 61q-72 58 -74 160q2 172 178 168v20z" />
    <glyph glyph-name="uni00B9" unicode="&#xb9;" horiz-adv-x="614" 
d="M379 430l137 21q39 65 94 149q56 84 117 172q131 184 223 315l-22 5q-191 -148 -432 -211l4 -17q157 41 264 105l4 -4z" />
    <glyph glyph-name="daggerdbl" unicode="&#xac;" horiz-adv-x="1229" 
d="M1069 149h70v373h-705v-69h635v-304z" />
    <glyph glyph-name="quotedblright" unicode="&#xb5;" 
d="M340 704l-977 -1367h139l486 686q26 -37 102 -39q96 2 193 75q96 72 182 172l4 -4q-8 -10 -18 -47q-15 -39 -15 -80q0 -53 35 -84q35 -30 90 -32q80 2 170 69q90 64 178 156q183 203 264 325l-20 7q-80 -119 -260 -316q-84 -88 -170 -149q-41 -31 -78 -47
q-37 -21 -72 -21q-24 0 -39 19q-16 16 -16 41q-2 61 90 202q92 140 311 434h-141l-180 -274q-51 -82 -199 -238q-69 -71 -141 -122q-72 -54 -133 -54q-57 0 -59 64q2 74 124 239q119 164 285 385h-135z" />
    <glyph glyph-name="guillemotright" unicode="&#x2122;" horiz-adv-x="2027" 
d="M649 1397h115q61 -2 94 -45q18 -23 31 -48q10 -28 16 -59h37v180h-684v-180h37q8 31 20 59q13 25 27 48q33 43 94 45h111v-660q0 -49 -33 -73q-33 -29 -74 -29v-29h320v29q-109 0 -111 98v664zM1546 600h19l319 643h6v-506q0 -100 -102 -102v-29h317v29q-51 0 -80 22
q-32 21 -32 80v535q0 114 129 125v28h-191l-342 -659v0l-330 659h-223v-28q47 0 94 -29q48 -29 50 -76v-547q0 -43 -23 -75q-22 -35 -90 -35v-29h266v29q-63 0 -86 33q-22 32 -22 82v487h4z" />
    <glyph glyph-name="glyph156" unicode="&#xd0;" horiz-adv-x="1821" 
d="M1190 707q-133 -240 -268 -433q-138 -194 -320 -249q-100 18 -156 30q-53 11 -102 11q-76 2 -78 -43q0 -43 103 -43q82 0 131 10q49 6 104 16q68 -16 143 -26q78 -13 201 -13q354 4 627 250q280 242 289 616q0 66 -7 129q-8 66 -30 127q-41 127 -135 222q155 145 364 184
l-4 16q-215 -39 -387 -178v0q-160 135 -465 137q-446 -8 -719 -264q-274 -248 -278 -518q0 -154 73 -254q70 -104 211 -106q209 2 332 168q121 161 123 419v60h-25v-70q-2 -223 -108 -381q-111 -162 -291 -164q-133 2 -182 103q-53 94 -51 221q6 336 278 547
q264 211 643 215q258 2 436 -131q-131 -111 -237 -264q-107 -154 -201 -320h-188q-15 0 -13 -12q-2 -12 13 -12h174zM1560 707q13 0 13 12t-13 12h-237q158 313 346 551v0q51 -55 76 -137q20 -82 20 -166q0 -164 -51 -336t-160 -319q-104 -146 -264 -238q-162 -92 -377 -94
q-155 0 -274 20v4q235 82 391 273q156 188 279 418h251z" />
    <glyph glyph-name="glyph157" unicode="&#xbd;" horiz-adv-x="1536" 
d="M1448 213q-25 -47 -72 -98q-24 -25 -51 -41q-31 -17 -64 -17q-45 2 -114 35q-62 31 -109 33q-24 0 -45 -6q-20 -10 -39 -21l-4 4q80 45 185 84q100 37 198 78q98 43 164 103q63 57 66 145q-3 78 -64 119t-141 41q-90 0 -176 -47q-41 -25 -66 -62q-29 -37 -29 -90
q0 -45 31 -74q27 -28 68 -28q59 0 98 59l-8 12q-21 -14 -49 -14q-29 0 -47 23q-23 22 -23 59q0 51 49 94q47 41 119 43q61 -2 92 -37q31 -39 31 -98q2 -78 -51 -147q-60 -70 -236 -146q-377 -162 -375 -207q0 -12 17 -12q14 2 47 39q18 16 43 24q24 11 59 11q68 -2 125 -35
q31 -14 60 -25q28 -14 59 -14q49 0 92 23q41 18 74 49q65 65 104 139zM416 -16h57l848 1118h-60zM379 430l137 21q39 65 94 149q56 84 117 172q131 184 223 315l-22 5q-191 -148 -432 -211l4 -17q157 41 264 105l4 -4z" />
    <glyph glyph-name="oe" unicode="&#xb1;" horiz-adv-x="1229" 
d="M752 451h-318v-70h318v-256h69v256h318v70h-318v253h-69v-253zM434 0h705v70h-705v-70z" />
    <glyph glyph-name="glyph159" unicode="&#xde;" horiz-adv-x="1593" 
d="M1057 1081q98 195 260 275q162 77 366 77h101v-4q-244 -61 -428 -280q-185 -221 -336 -490q-76 -127 -150 -245q-73 -119 -149 -215q-74 -93 -152 -150q-80 -55 -166 -57q-47 2 -81 24q-37 21 -46 45q31 0 46 23q12 20 12 45q0 29 -17 47q-18 16 -47 16q-82 -2 -84 -81
q2 -74 68 -107q65 -37 147 -37q152 2 271 78q114 76 209 197q94 120 178 264q82 143 170 280q55 86 143 158q86 70 172 72q66 -2 86 -37q16 -35 16 -78q0 -47 -20 -115q-25 -69 -76 -139t-141 -115q-88 -49 -219 -49q-53 0 -94 8l-9 -20q39 -12 115 -12q158 0 264 55
q109 51 172 127q66 80 92 158q27 80 27 139q-2 147 -147 147q-88 -2 -168 -51q-78 -47 -121 -92l-4 4q88 150 248 305q77 76 163 125q88 51 174 57v17q-92 8 -200 8q-238 2 -459 -78q-221 -84 -328 -299h142z" />
    <glyph glyph-name="glyph160" unicode="&#xbc;" horiz-adv-x="1536" 
d="M1606 635l-97 -8l-266 -365h-291v4l637 484h-61l-676 -525h375l-160 -225l108 12l152 213h150l10 37h-144zM438 -16h58l847 1118h-59zM379 430l137 21q39 65 94 149q56 84 117 172q131 184 223 315l-22 5q-191 -148 -432 -211l4 -17q157 41 264 105l4 -4z" />
    <glyph glyph-name="Ugrave" unicode="&#xf7;" horiz-adv-x="1229" 
d="M1139 317v70h-705v-70h705zM786 137q-30 0 -51 -20q-24 -23 -24 -56q0 -30 24 -51q21 -22 51 -24q33 2 56 24q20 21 20 51q-4 72 -76 76v0zM786 719q-30 0 -51 -21q-24 -22 -24 -55q0 -31 24 -51q21 -25 51 -25q33 0 56 25q20 20 20 51q-4 72 -76 76v0z" />
    <glyph glyph-name="glyph162" unicode="&#xa6;" horiz-adv-x="455" 
d="M401 0h70v530h-70v-530zM401 928h70v530h-70v-530z" />
    <glyph glyph-name="oslash" unicode="&#xb0;" horiz-adv-x="819" 
d="M709 516q127 2 208 86q80 82 82 207q-2 127 -82 209q-81 82 -208 84q-125 -2 -205 -84q-84 -82 -86 -209q2 -125 86 -207q80 -84 205 -86v0zM709 1044q98 -2 161 -69q62 -68 64 -166q-2 -96 -64 -164q-63 -70 -161 -72q-97 2 -160 72q-66 68 -66 164q0 98 66 166
q63 67 160 69v0z" />
    <glyph glyph-name="glyph164" unicode="&#xfe;" 
d="M729 1315q-735 -1151 -1263 -1978h126q230 397 514 847l5 -4q-9 -33 -7 -74q0 -51 33 -86q31 -34 88 -36q90 2 176 51q88 47 162 123q156 159 203 327h4q23 -39 66 -61q40 -27 96 -27q123 0 229 119l-12 14q-90 -110 -219 -112q-64 0 -105 39q-45 34 -49 88
q-4 82 -47 129q-45 47 -117 47q-100 0 -186 -74l-4 4l463 664h-156zM668 590q-4 -166 -142 -365q-63 -90 -141 -151q-78 -66 -156 -66q-92 0 -96 107q0 75 47 174q45 96 117 190t151 156q78 59 150 61q55 -2 66 -39q4 -37 4 -67v0z" />
    <glyph glyph-name="glyph165" unicode="&#xbe;" horiz-adv-x="1536" 
d="M559 -16h57l848 1118h-59zM545 766q39 4 75 4q117 -2 117 -117q-2 -98 -76 -147q-73 -51 -178 -51q-71 0 -108 36q-39 35 -39 91q0 90 106 94l2 8q-30 25 -71 27q-56 -2 -88 -37q-35 -35 -35 -88q2 -78 74 -115q67 -41 157 -41q139 0 246 61q106 60 109 160q-3 66 -43 99
q-43 30 -113 30v4q102 9 205 54q47 22 77 55q29 31 29 74q0 57 -45 96t-129 39q-92 -2 -158 -49q-30 -23 -51 -54q-20 -30 -20 -65q0 -31 24 -51q23 -25 58 -25q32 0 57 16q27 13 29 35q-23 -10 -47 -10q-25 0 -37 20q-15 17 -15 43q0 48 41 82q37 33 90 33q56 0 78 -28
q19 -31 19 -82q0 -62 -33 -95q-33 -34 -86 -53q-53 -14 -111 -20q-26 -2 -55 -6q-31 -3 -55 -7v-20zM1687 635l-96 -8l-266 -365h-291v4l637 484h-61l-676 -525h375l-160 -225l108 12l152 213h149l11 37h-144z" />
    <glyph glyph-name="uni00B2" unicode="&#xb2;" horiz-adv-x="614" 
d="M833 643q-24 -47 -71 -98q-25 -25 -51 -41q-31 -17 -64 -17q-45 2 -115 35q-61 31 -108 33q-25 0 -45 -6q-21 -10 -39 -21l-4 4q80 45 184 84q100 37 199 78q98 43 164 103q63 57 65 145q-2 78 -63 119q-62 41 -142 41q-90 0 -176 -47q-41 -25 -65 -62q-29 -37 -29 -90
q0 -45 31 -74q26 -28 67 -28q60 0 99 59l-9 12q-20 -14 -49 -14q-28 0 -47 23q-22 22 -22 59q0 51 49 94q47 41 119 43q61 -2 92 -37q30 -39 30 -98q3 -78 -51 -147q-59 -70 -235 -146q-377 -162 -375 -207q0 -12 16 -12q15 2 48 39q18 16 43 25q24 10 59 10q67 -2 125 -35
q31 -14 59 -25q29 -14 60 -14q49 0 92 23q41 18 73 49q66 65 105 139z" />
    <glyph glyph-name="Delta" unicode="&#xae;" horiz-adv-x="1638" 
d="M885 680q57 -86 100 -150q39 -67 70 -112q55 -92 106 -92h117v14q-33 20 -80 72q-47 51 -96 112l-127 172q78 25 125 84q47 60 49 148q-2 100 -78 145q-74 43 -174 43h-367v-37q50 0 84 -20q33 -23 33 -88v-498q0 -63 -29 -86q-30 -27 -88 -25v-36h340v36
q-110 0 -108 111v207h123zM758 1079h100q74 0 127 -33q51 -34 53 -129q-2 -200 -172 -200h-108v362zM131 713q4 -316 219 -527q211 -215 526 -219q318 4 529 219q213 211 217 527q-4 317 -217 528q-211 213 -529 217q-315 -4 -526 -217q-215 -211 -219 -528v0zM1536 713
q-4 -283 -191 -475q-184 -197 -469 -201q-280 4 -464 201q-193 192 -195 475q2 286 195 479q184 192 464 196q285 -4 469 -196q187 -193 191 -479v0z" />
    <glyph glyph-name="glyph168" unicode="&#x2212;" horiz-adv-x="1229" 
d="M1139 317v70h-705v-70h705z" />
    <glyph glyph-name="glyph169" unicode="&#xf0;" 
d="M590 1044q-15 0 -13 -12q-2 -12 13 -12h188q-2 -53 -10 -139q-8 -91 -41 -207q-45 45 -129 47q-109 -2 -209 -60q-102 -57 -184 -145t-129 -178q-51 -94 -51 -166q0 -84 47 -135q45 -51 131 -53q98 2 190 49q90 47 166 123q156 159 209 327h4q23 -35 66 -59
q41 -27 96 -27q125 2 231 121l-16 10q-92 -108 -217 -110q-64 0 -105 39q-43 34 -43 73q45 107 72 238q29 129 43 252h201q12 0 12 12t-12 12h-199q2 160 55 273q56 114 176 116q66 -2 111 -28q47 -29 80 -62v31q-27 29 -74 55q-47 27 -114 29q-130 0 -232 -94
q-102 -100 -125 -320h-188zM135 123q0 86 47 182q45 98 113 186q70 91 143 148q76 57 142 57q88 -4 88 -102q-4 -168 -144 -367q-65 -94 -143 -153q-80 -66 -164 -66q-82 2 -82 115v0z" />
    <glyph glyph-name="multiply" unicode="&#xd7;" horiz-adv-x="1229" 
d="M737 352l-303 -303l49 -49v0l303 303v0l303 -303v0l50 49l-303 303l303 303l-50 49v0l-303 -303v0l-303 303v0l-49 -49z" />
    <glyph glyph-name="uni00B3" unicode="&#xb3;" horiz-adv-x="614" 
d="M545 766q39 4 75 4q117 -2 117 -117q-2 -98 -76 -147q-73 -51 -178 -51q-71 0 -108 36q-39 35 -39 91q0 90 106 94l2 8q-30 25 -71 27q-56 -2 -88 -37q-35 -35 -35 -88q2 -78 74 -115q67 -41 157 -41q139 0 246 61q106 60 109 160q-3 66 -43 99q-43 30 -113 30v4
q102 9 205 54q47 22 77 55q29 31 29 74q0 57 -45 96t-129 39q-92 -2 -158 -49q-30 -23 -51 -54q-20 -30 -20 -65q0 -31 24 -51q23 -25 58 -25q32 0 57 16q27 13 29 35q-23 -10 -47 -10q-25 0 -37 20q-15 17 -15 43q0 48 41 82q37 33 90 33q56 0 78 -28q19 -31 19 -82
q0 -62 -33 -95q-33 -34 -86 -53q-53 -14 -111 -20q-26 -2 -55 -6q-31 -3 -55 -7v-20z" />
    <glyph glyph-name="guillemotleft" unicode="&#xa9;" horiz-adv-x="1638" 
d="M1208 522q-26 -69 -86 -125q-30 -24 -73 -41q-46 -18 -107 -18q-174 2 -264 115q-90 108 -90 284q4 162 90 266q84 103 246 105q69 0 118 -16q50 -17 76 -46q31 -28 43 -63q12 -37 12 -74h33v152q0 28 -47 45q-41 16 -90 29q-51 10 -135 10q-234 -4 -348 -142
q-117 -131 -117 -276q2 -231 137 -330q131 -98 316 -96q77 0 137 14q59 11 92 21q24 8 41 16q12 8 12 25l35 145h-31zM131 713q4 -316 219 -527q211 -215 526 -219q318 4 529 219q213 211 217 527q-4 317 -217 528q-211 213 -529 217q-315 -4 -526 -217q-215 -211 -219 -528
v0zM1536 713q-4 -283 -191 -475q-184 -197 -469 -201q-280 4 -464 201q-193 192 -195 475q2 286 195 479q184 192 464 196q285 -4 469 -196q187 -193 191 -479v0z" />
    <glyph glyph-name="circumflex" unicode="&#xff;" 
d="M338 704q-201 -288 -293 -419t-92 -203q0 -96 123 -98q67 2 133 34q63 33 119 80q59 47 104 101q47 51 78 88l4 -4q-145 -254 -375 -557q-114 -142 -243 -234q-131 -96 -277 -98q-92 2 -160 57q-73 53 -75 156q0 155 143 192v6q-100 3 -168 -47q-72 -51 -74 -157
q2 -101 101 -164q92 -66 231 -68q152 2 270 60q119 53 217 143q193 190 344 420q402 71 715 528l-14 6q-287 -422 -686 -510v0q217 349 444 688h-127q-172 -278 -352 -479q-88 -96 -166 -151q-80 -58 -141 -58q-58 0 -58 60q0 39 39 100q35 64 95 143q125 166 278 385h-137z
M919 1069q-78 -2 -80 -78q0 -24 17 -45q12 -24 37 -24q34 0 57 24q20 21 20 51q0 25 -12 47q-12 23 -39 25v0zM624 1069q-78 -2 -80 -78q0 -24 17 -45q12 -24 37 -24q34 0 57 24q20 21 20 51q0 25 -12 47q-12 23 -39 25v0z" />
    <glyph glyph-name="glyph174" unicode="&#xfd;" 
d="M338 704q-201 -288 -293 -419t-92 -203q0 -96 123 -98q67 2 133 34q63 33 119 80q59 47 104 101q47 51 78 88l4 -4q-145 -254 -375 -557q-114 -142 -243 -234q-131 -96 -277 -98q-92 2 -160 57q-73 53 -75 156q0 155 143 192v6q-100 3 -168 -47q-72 -51 -74 -157
q2 -101 101 -164q92 -66 231 -68q152 2 270 60q119 53 217 143q193 190 344 420q402 71 715 528l-14 6q-287 -422 -686 -510v0q217 349 444 688h-127q-172 -278 -352 -479q-88 -96 -166 -151q-80 -58 -141 -58q-58 0 -58 60q0 39 39 100q35 64 95 143q125 166 278 385h-137z
M863 1171q-33 -2 -51 -36q-21 -35 -27 -91q-4 -36 -27 -69q-22 -33 -53 -62q-73 -57 -78 -73q0 -9 11 -9q12 0 53 31q41 27 92 70q51 45 88 94q35 49 37 90q0 21 -8 37q-13 16 -37 18v0z" />
    <glyph glyph-name="ordfeminine" unicode="&#xf9;" 
d="M340 704q-168 -233 -268 -376q-103 -144 -105 -244q0 -94 123 -100q96 2 193 75q96 72 182 172l4 -4q-8 -10 -18 -47q-15 -39 -15 -80q0 -53 35 -84q35 -30 90 -32q80 2 170 69q90 64 178 156q183 203 264 325l-20 7q-80 -119 -260 -316q-84 -88 -170 -149
q-41 -31 -78 -47q-37 -21 -72 -21q-24 0 -39 19q-16 16 -16 41q-2 61 90 202q92 140 311 434h-141l-180 -274q-51 -82 -199 -238q-69 -71 -141 -122q-72 -54 -133 -54q-57 0 -59 64q2 74 124 239q119 164 285 385h-135zM510 1171q-21 -2 -33 -18t-12 -37q0 -41 40 -90
q35 -49 87 -94q51 -43 92 -70q41 -31 51 -31t10 9q-4 16 -74 73q-28 29 -53 62q-26 33 -31 69q-4 56 -22 91q-21 34 -55 36v0z" />
    <glyph glyph-name="Omega" unicode="&#xfc;" 
d="M340 704q-168 -233 -268 -376q-103 -144 -105 -244q0 -94 123 -100q96 2 193 75q96 72 182 172l4 -4q-8 -10 -18 -47q-15 -39 -15 -80q0 -53 35 -84q35 -30 90 -32q80 2 170 69q90 64 178 156q183 203 264 325l-20 7q-80 -119 -260 -316q-84 -88 -170 -149
q-41 -31 -78 -47q-37 -21 -72 -21q-24 0 -39 19q-16 16 -16 41q-2 61 90 202q92 140 311 434h-141l-180 -274q-51 -82 -199 -238q-69 -71 -141 -122q-72 -54 -133 -54q-57 0 -59 64q2 74 124 239q119 164 285 385h-135zM922 1069q-78 -2 -80 -78q0 -24 17 -45q12 -24 37 -24
q34 0 57 24q20 21 20 51q0 25 -12 47q-12 23 -39 25v0zM627 1069q-78 -2 -80 -78q0 -24 17 -45q12 -24 37 -24q34 0 57 24q20 21 20 51q0 25 -12 47q-12 23 -39 25v0z" />
    <glyph glyph-name="ordmasculine" unicode="&#xfb;" 
d="M340 704q-168 -233 -268 -376q-103 -144 -105 -244q0 -94 123 -100q96 2 193 75q96 72 182 172l4 -4q-8 -10 -18 -47q-15 -39 -15 -80q0 -53 35 -84q35 -30 90 -32q80 2 170 69q90 64 178 156q183 203 264 325l-20 7q-80 -119 -260 -316q-84 -88 -170 -149
q-41 -31 -78 -47q-37 -21 -72 -21q-24 0 -39 19q-16 16 -16 41q-2 61 90 202q92 140 311 434h-141l-180 -274q-51 -82 -199 -238q-69 -71 -141 -122q-72 -54 -133 -54q-57 0 -59 64q2 74 124 239q119 164 285 385h-135zM512 831q141 99 262 220v0q57 -113 155 -224l17 11
q-113 161 -115 333h-33q-133 -174 -295 -325z" />
    <glyph glyph-name="integral" unicode="&#xfa;" 
d="M340 704q-168 -233 -268 -376q-103 -144 -105 -244q0 -94 123 -100q96 2 193 75q96 72 182 172l4 -4q-8 -10 -18 -47q-15 -39 -15 -80q0 -53 35 -84q35 -30 90 -32q80 2 170 69q90 64 178 156q183 203 264 325l-20 7q-80 -119 -260 -316q-84 -88 -170 -149
q-41 -31 -78 -47q-37 -21 -72 -21q-24 0 -39 19q-16 16 -16 41q-2 61 90 202q92 140 311 434h-141l-180 -274q-51 -82 -199 -238q-69 -71 -141 -122q-72 -54 -133 -54q-57 0 -59 64q2 74 124 239q119 164 285 385h-135zM916 1171q-33 -2 -51 -36q-21 -35 -27 -91
q-4 -36 -27 -69q-22 -33 -53 -62q-73 -57 -78 -73q0 -9 11 -9q12 0 53 31q41 27 92 70q51 45 88 94q35 49 37 90q0 21 -8 37q-13 16 -37 18v0z" />
    <glyph glyph-name="glyph179" unicode="&#x161;" horiz-adv-x="682" 
d="M928 534q-113 -180 -289 -335q-176 -158 -399 -195l-4 4q77 19 139 78q59 61 61 139q0 54 -14 99q-17 43 -35 81q-18 43 -35 84q-16 41 -16 84q0 54 31 88q28 35 86 35q49 0 73 -26q25 -25 25 -70q-2 -59 -31 -113q51 0 90 27q39 25 39 76q-2 61 -49 96q-51 35 -135 35
q-92 0 -158 -49q-69 -49 -69 -144q2 -71 45 -155q18 -41 30 -82q13 -43 13 -82q0 -76 -41 -135q-43 -64 -129 -66q-70 0 -121 37q-53 37 -55 107q0 26 8 49q10 22 30 35q9 -41 54 -44q30 0 45 23q12 18 12 47q-2 62 -70 62q-57 -2 -92 -41q-35 -41 -37 -99q2 -100 72 -149
q68 -51 166 -51q258 6 455 176q194 166 317 368zM813 1171q-141 -96 -262 -219v0q-55 113 -156 223l-16 -10q113 -162 115 -334h32q133 177 295 326z" />
    <glyph glyph-name="pi" unicode="&#xf5;" 
d="M1149 528q-92 -108 -217 -110q-68 0 -109 41q-41 39 -45 86q-2 82 -49 129t-131 47q-109 -2 -209 -60q-102 -57 -184 -145t-129 -178q-51 -94 -51 -166q0 -84 47 -135q45 -51 131 -53q96 2 188 51q90 47 168 123q160 159 209 325h4q23 -35 66 -59q41 -27 96 -27
q125 2 231 121zM135 123q0 86 47 182q45 98 113 186q70 91 143 148q76 57 142 57q88 -4 88 -102q-4 -168 -144 -367q-65 -94 -143 -153q-80 -66 -164 -66q-82 2 -82 115v0zM809 934q72 -6 115 43q41 47 43 108q-2 13 -10 13q-15 0 -15 -19q-2 -26 -30 -47q-31 -24 -76 -24
q-62 2 -143 38q-37 17 -72 29q-35 10 -60 10q-77 -2 -114 -49q-37 -45 -37 -98q-2 -21 8 -21q12 2 35 45q12 21 31 33q18 13 45 13q69 -3 137 -37q37 -13 74 -23q32 -14 69 -14v0z" />
    <glyph glyph-name="partialdiff" unicode="&#xf2;" 
d="M1149 528q-92 -108 -217 -110q-68 0 -109 41q-41 39 -45 86q-2 82 -49 129t-131 47q-109 -2 -209 -60q-102 -57 -184 -145t-129 -178q-51 -94 -51 -166q0 -84 47 -135q45 -51 131 -53q96 2 188 51q90 47 168 123q160 159 209 325h4q23 -35 66 -59q41 -27 96 -27
q125 2 231 121zM135 123q0 86 47 182q45 98 113 186q70 91 143 148q76 57 142 57q88 -4 88 -102q-4 -168 -144 -367q-65 -94 -143 -153q-80 -66 -164 -66q-82 2 -82 115v0zM435 1171q-21 -2 -33 -18t-12 -37q0 -41 40 -90q35 -49 87 -94q51 -43 92 -70q41 -31 51 -31t10 9
q-4 16 -74 73q-28 29 -53 62q-26 33 -31 69q-4 56 -22 91q-21 34 -55 36v0z" />
    <glyph glyph-name="product" unicode="&#xf6;" 
d="M1149 528q-92 -108 -217 -110q-68 0 -109 41q-41 39 -45 86q-2 82 -49 129t-131 47q-109 -2 -209 -60q-102 -57 -184 -145t-129 -178q-51 -94 -51 -166q0 -84 47 -135q45 -51 131 -53q96 2 188 51q90 47 168 123q160 159 209 325h4q23 -35 66 -59q41 -27 96 -27
q125 2 231 121zM135 123q0 86 47 182q45 98 113 186q70 91 143 148q76 57 142 57q88 -4 88 -102q-4 -168 -144 -367q-65 -94 -143 -153q-80 -66 -164 -66q-82 2 -82 115v0zM847 1069q-78 -2 -80 -78q0 -24 17 -45q12 -24 37 -24q34 0 57 24q20 21 20 51q0 25 -12 47
q-12 23 -39 25v0zM552 1069q-78 -2 -80 -78q0 -24 17 -45q12 -24 37 -24q34 0 57 24q20 21 20 51q0 25 -12 47q-12 23 -39 25v0z" />
    <glyph glyph-name="summation" unicode="&#xf4;" 
d="M1149 528q-92 -108 -217 -110q-68 0 -109 41q-41 39 -45 86q-2 82 -49 129t-131 47q-109 -2 -209 -60q-102 -57 -184 -145t-129 -178q-51 -94 -51 -166q0 -84 47 -135q45 -51 131 -53q96 2 188 51q90 47 168 123q160 159 209 325h4q23 -35 66 -59q41 -27 96 -27
q125 2 231 121zM135 123q0 86 47 182q45 98 113 186q70 91 143 148q76 57 142 57q88 -4 88 -102q-4 -168 -144 -367q-65 -94 -143 -153q-80 -66 -164 -66q-82 2 -82 115v0zM437 831q141 99 262 220v0q57 -113 155 -224l17 11q-113 161 -115 333h-33q-133 -174 -295 -325z
" />
    <glyph glyph-name="mu" unicode="&#xf3;" 
d="M1149 528q-92 -108 -217 -110q-68 0 -109 41q-41 39 -45 86q-2 82 -49 129t-131 47q-109 -2 -209 -60q-102 -57 -184 -145t-129 -178q-51 -94 -51 -166q0 -84 47 -135q45 -51 131 -53q96 2 188 51q90 47 168 123q160 159 209 325h4q23 -35 66 -59q41 -27 96 -27
q125 2 231 121zM135 123q0 86 47 182q45 98 113 186q70 91 143 148q76 57 142 57q88 -4 88 -102q-4 -168 -144 -367q-65 -94 -143 -153q-80 -66 -164 -66q-82 2 -82 115v0zM841 1171q-33 -2 -51 -36q-21 -35 -27 -91q-4 -36 -27 -69q-22 -33 -53 -62q-73 -57 -78 -73
q0 -9 11 -9q12 0 53 31q41 27 92 70q51 45 88 94q35 49 37 90q0 21 -8 37q-13 16 -37 18v0z" />
    <glyph glyph-name="yen" unicode="&#xf1;" 
d="M317 698q-198 -311 -444 -698h127q84 170 295 422q100 117 201 194q98 78 176 80q57 0 59 -49q-2 -51 -47 -117q-47 -67 -109 -141q-59 -74 -108 -145q-51 -74 -51 -138q0 -55 39 -88q39 -34 98 -34q90 2 186 73q92 72 185 172q157 176 245 314l-14 8q-98 -152 -285 -350
q-100 -101 -176 -146q-76 -47 -139 -47q-57 0 -57 58q0 40 51 110q49 70 108 148q62 81 109 153q45 72 47 123q0 53 -33 88q-35 33 -96 33q-68 0 -137 -41q-72 -41 -137 -105q-136 -133 -226 -249l-4 4l271 374zM812 934q72 -6 115 43q41 47 43 108q-2 13 -10 13
q-15 0 -15 -19q-2 -26 -30 -47q-31 -24 -76 -24q-62 2 -143 38q-37 17 -72 29q-35 10 -60 10q-77 -2 -114 -49q-37 -45 -37 -98q-2 -21 8 -21q12 2 35 45q12 21 31 33q18 13 45 13q69 -3 137 -37q37 -13 74 -23q32 -14 69 -14v0z" />
    <glyph glyph-name="plusminus" unicode="&#xec;" horiz-adv-x="455" 
d="M344 704q-190 -282 -274 -411t-84 -211q0 -39 28 -68q25 -28 80 -30q76 2 168 63q90 62 180 150q191 192 275 333l-17 11q-71 -127 -262 -320q-88 -88 -176 -149q-88 -64 -151 -64q-45 0 -43 53q-2 50 94 189q92 139 313 454h-131zM289 1171q-21 -2 -33 -18t-12 -37
q0 -41 40 -90q35 -49 87 -94q51 -43 92 -70q41 -31 51 -31t10 9q-4 16 -74 73q-28 29 -53 62q-26 33 -31 69q-4 56 -22 91q-21 34 -55 36v0z" />
    <glyph glyph-name="greaterequal" unicode="&#xef;" horiz-adv-x="455" 
d="M344 704q-190 -282 -274 -411t-84 -211q0 -39 28 -68q25 -28 80 -30q76 2 168 63q90 62 180 150q191 192 275 333l-17 11q-71 -127 -262 -320q-88 -88 -176 -149q-88 -64 -151 -64q-45 0 -43 53q-2 50 94 189q92 139 313 454h-131zM702 1069q-78 -2 -80 -78q0 -24 17 -45
q12 -24 37 -24q34 0 57 24q20 21 20 51q0 25 -12 47q-12 23 -39 25v0zM407 1069q-78 -2 -80 -78q0 -24 17 -45q12 -24 37 -24q34 0 57 24q20 21 20 51q0 25 -12 47q-12 23 -39 25v0z" />
    <glyph glyph-name="lessequal" unicode="&#xee;" horiz-adv-x="455" 
d="M344 704q-190 -282 -274 -411t-84 -211q0 -39 28 -68q25 -28 80 -30q76 2 168 63q90 62 180 150q191 192 275 333l-17 11q-71 -127 -262 -320q-88 -88 -176 -149q-88 -64 -151 -64q-45 0 -43 53q-2 50 94 189q92 139 313 454h-131zM291 831q141 99 262 220v0
q57 -113 155 -224l17 11q-113 161 -115 333h-33q-133 -174 -295 -325z" />
    <glyph glyph-name="infinity" unicode="&#xed;" horiz-adv-x="455" 
d="M344 704q-190 -282 -274 -411t-84 -211q0 -39 28 -68q25 -28 80 -30q76 2 168 63q90 62 180 150q191 192 275 333l-17 11q-71 -127 -262 -320q-88 -88 -176 -149q-88 -64 -151 -64q-45 0 -43 53q-2 50 94 189q92 139 313 454h-131zM696 1171q-33 -2 -51 -36
q-21 -35 -27 -91q-4 -36 -27 -69q-22 -33 -53 -62q-73 -57 -78 -73q0 -9 11 -9q12 0 53 31q41 27 92 70q51 45 88 94q35 49 37 90q0 21 -8 37q-13 16 -37 18v0z" />
    <glyph glyph-name="notequal" unicode="&#xe8;" horiz-adv-x="682" 
d="M614 639q-2 -53 -43 -96q-41 -45 -108 -82q-139 -76 -244 -92q49 100 152 211q51 51 100 84q49 32 90 32q51 0 53 -57v0zM930 541q-129 -207 -328 -361q-94 -74 -182 -119q-90 -45 -162 -45q-53 0 -78 45q-22 43 -22 91q2 108 51 194q153 33 321 113q80 41 131 86
q52 47 52 92q-2 82 -109 84q-90 -2 -188 -53q-99 -54 -187 -140q-84 -84 -139 -184t-55 -190q2 -168 180 -170q107 2 217 57q109 55 209 139q209 180 305 350zM404 1171q-21 -2 -33 -18t-12 -37q0 -41 40 -90q35 -49 87 -94q51 -43 92 -70q41 -31 51 -31t10 9q-4 16 -74 73
q-28 29 -53 62q-26 33 -31 69q-4 56 -22 91q-21 34 -55 36v0z" />
    <glyph glyph-name="Oslash" unicode="&#xeb;" horiz-adv-x="682" 
d="M614 639q-2 -53 -43 -96q-41 -45 -108 -82q-139 -76 -244 -92q49 100 152 211q51 51 100 84q49 32 90 32q51 0 53 -57v0zM930 541q-129 -207 -328 -361q-94 -74 -182 -119q-90 -45 -162 -45q-53 0 -78 45q-22 43 -22 91q2 108 51 194q153 33 321 113q80 41 131 86
q52 47 52 92q-2 82 -109 84q-90 -2 -188 -53q-99 -54 -187 -140q-84 -84 -139 -184t-55 -190q2 -168 180 -170q107 2 217 57q109 55 209 139q209 180 305 350zM817 1069q-78 -2 -80 -78q0 -24 17 -45q12 -24 37 -24q34 0 57 24q20 21 20 51q0 25 -12 47q-12 23 -39 25v0z
M522 1069q-78 -2 -80 -78q0 -24 17 -45q12 -24 37 -24q34 0 57 24q20 21 20 51q0 25 -12 47q-12 23 -39 25v0z" />
    <glyph glyph-name="AE" unicode="&#xea;" horiz-adv-x="682" 
d="M614 639q-2 -53 -43 -96q-41 -45 -108 -82q-139 -76 -244 -92q49 100 152 211q51 51 100 84q49 32 90 32q51 0 53 -57v0zM930 541q-129 -207 -328 -361q-94 -74 -182 -119q-90 -45 -162 -45q-53 0 -78 45q-22 43 -22 91q2 108 51 194q153 33 321 113q80 41 131 86
q52 47 52 92q-2 82 -109 84q-90 -2 -188 -53q-99 -54 -187 -140q-84 -84 -139 -184t-55 -190q2 -168 180 -170q107 2 217 57q109 55 209 139q209 180 305 350zM407 831q141 99 262 220v0q57 -113 155 -224l17 11q-113 161 -115 333h-33q-133 -174 -295 -325z" />
    <glyph glyph-name="dieresis" unicode="&#xe9;" horiz-adv-x="682" 
d="M614 639q-2 -53 -43 -96q-41 -45 -108 -82q-139 -76 -244 -92q49 100 152 211q51 51 100 84q49 32 90 32q51 0 53 -57v0zM930 541q-129 -207 -328 -361q-94 -74 -182 -119q-90 -45 -162 -45q-53 0 -78 45q-22 43 -22 91q2 108 51 194q153 33 321 113q80 41 131 86
q52 47 52 92q-2 82 -109 84q-90 -2 -188 -53q-99 -54 -187 -140q-84 -84 -139 -184t-55 -190q2 -168 180 -170q107 2 217 57q109 55 209 139q209 180 305 350zM811 1171q-33 -2 -51 -36q-21 -35 -27 -91q-4 -36 -27 -69q-22 -33 -53 -62q-73 -57 -78 -73q0 -9 11 -9
q12 0 53 31q41 27 92 70q51 45 88 94q35 49 37 90q0 21 -8 37q-13 16 -37 18v0z" />
    <glyph glyph-name="acute" unicode="&#xe7;" horiz-adv-x="682" 
d="M917 526q-124 -190 -319 -346q-88 -69 -180 -114q-94 -50 -166 -50q-51 0 -76 41q-29 35 -29 92q0 93 48 189q43 94 108 176q68 82 139 133q70 47 123 49q72 0 72 -76q-2 -45 -21 -86q43 3 86 23t45 68q-2 51 -43 75q-45 21 -104 21q-90 0 -190 -51q-99 -54 -187 -140
q-88 -84 -141 -186q-57 -102 -57 -203q0 -75 53 -116q49 -41 125 -41q217 6 438 204q186 164 291 326zM-112 -358q75 -21 155 -19q76 0 178 29q47 18 80 47q33 31 33 76q-2 69 -68 88q-63 18 -133 18l68 111h-23l-92 -152q88 2 123 -12t35 -61q-4 -72 -78 -95
q-74 -24 -137 -24q-70 0 -139 10z" />
    <glyph glyph-name="copyright" unicode="&#xe3;" 
d="M725 584h-4q-8 55 -47 96q-43 39 -125 41q-86 -2 -180 -60q-97 -57 -181 -147q-82 -90 -133 -188q-55 -101 -55 -189q0 -61 33 -106q30 -45 104 -47q92 4 191 79q96 72 151 136l4 -2q-26 -56 -28 -113q0 -96 114 -100q72 2 156 57q80 55 164 139q170 182 284 363l-12 4
q-149 -228 -313 -379q-78 -74 -144 -115q-67 -45 -112 -45q-55 0 -55 53q2 78 120 254q113 174 269 389h-133zM123 131q0 94 47 195q45 96 113 180q69 86 145 139q76 51 135 51q88 -2 92 -96q-2 -90 -49 -188q-51 -101 -127 -185t-151 -139q-76 -55 -131 -55q-74 2 -74 98v0
zM856 934q72 -6 115 43q41 47 43 108q-2 13 -10 13q-15 0 -15 -19q-2 -26 -30 -47q-31 -24 -76 -24q-62 2 -143 38q-37 17 -72 29q-35 10 -60 10q-77 -2 -114 -49q-37 -45 -37 -98q-2 -21 8 -21q12 2 35 45q12 21 31 33q18 13 45 13q69 -3 137 -37q37 -13 74 -23
q32 -14 69 -14v0z" />
    <glyph glyph-name="trademark" unicode="&#xe5;" 
d="M725 584h-4q-8 55 -47 96q-43 39 -125 41q-86 -2 -180 -60q-97 -57 -181 -147q-82 -90 -133 -188q-55 -101 -55 -189q0 -61 33 -106q30 -45 104 -47q92 4 191 79q96 72 151 136l4 -2q-26 -56 -28 -113q0 -96 114 -100q72 2 156 57q80 55 164 139q170 182 284 363l-12 4
q-149 -228 -313 -379q-78 -74 -144 -115q-67 -45 -112 -45q-55 0 -55 53q2 78 120 254q113 174 269 389h-133zM123 131q0 94 47 195q45 96 113 180q69 86 145 139q76 51 135 51q88 -2 92 -96q-2 -90 -49 -188q-51 -101 -127 -185t-151 -139q-76 -55 -131 -55q-74 2 -74 98v0
zM562 944q0 -61 41 -94q35 -35 86 -35q97 0 160 66q63 61 66 149q-3 62 -37 96q-35 33 -90 33q-93 -2 -156 -63q-70 -60 -70 -152v0zM865 1067q-2 -72 -53 -150q-24 -36 -55 -59q-33 -27 -70 -27q-76 2 -76 76q3 74 56 152q26 37 57 61q31 23 66 23q75 -4 75 -76v0z" />
    <glyph glyph-name="paragraph" unicode="&#xe0;" 
d="M725 584h-4q-8 55 -47 96q-43 39 -125 41q-86 -2 -180 -60q-97 -57 -181 -147q-82 -90 -133 -188q-55 -101 -55 -189q0 -61 33 -106q30 -45 104 -47q92 4 191 79q96 72 151 136l4 -2q-26 -56 -28 -113q0 -96 114 -100q72 2 156 57q80 55 164 139q170 182 284 363l-12 4
q-149 -228 -313 -379q-78 -74 -144 -115q-67 -45 -112 -45q-55 0 -55 53q2 78 120 254q113 174 269 389h-133zM123 131q0 94 47 195q45 96 113 180q69 86 145 139q76 51 135 51q88 -2 92 -96q-2 -90 -49 -188q-51 -101 -127 -185t-151 -139q-76 -55 -131 -55q-74 2 -74 98v0
zM484 1171q-21 -2 -33 -18t-12 -37q0 -41 40 -90q35 -49 87 -94q51 -43 92 -70q41 -31 51 -31t10 9q-4 16 -74 73q-28 29 -53 62q-26 33 -31 69q-4 56 -22 91q-21 34 -55 36v0z" />
    <glyph glyph-name="registered" unicode="&#xe4;" 
d="M725 584h-4q-8 55 -47 96q-43 39 -125 41q-86 -2 -180 -60q-97 -57 -181 -147q-82 -90 -133 -188q-55 -101 -55 -189q0 -61 33 -106q30 -45 104 -47q92 4 191 79q96 72 151 136l4 -2q-26 -56 -28 -113q0 -96 114 -100q72 2 156 57q80 55 164 139q170 182 284 363l-12 4
q-149 -228 -313 -379q-78 -74 -144 -115q-67 -45 -112 -45q-55 0 -55 53q2 78 120 254q113 174 269 389h-133zM123 131q0 94 47 195q45 96 113 180q69 86 145 139q76 51 135 51q88 -2 92 -96q-2 -90 -49 -188q-51 -101 -127 -185t-151 -139q-76 -55 -131 -55q-74 2 -74 98v0
zM897 1069q-78 -2 -80 -78q0 -24 17 -45q12 -24 37 -24q34 0 57 24q20 21 20 51q0 25 -12 47q-12 23 -39 25v0zM602 1069q-78 -2 -80 -78q0 -24 17 -45q12 -24 37 -24q34 0 57 24q20 21 20 51q0 25 -12 47q-12 23 -39 25v0z" />
    <glyph glyph-name="germandbls" unicode="&#xe2;" 
d="M725 584h-4q-8 55 -47 96q-43 39 -125 41q-86 -2 -180 -60q-97 -57 -181 -147q-82 -90 -133 -188q-55 -101 -55 -189q0 -61 33 -106q30 -45 104 -47q92 4 191 79q96 72 151 136l4 -2q-26 -56 -28 -113q0 -96 114 -100q72 2 156 57q80 55 164 139q170 182 284 363l-12 4
q-149 -228 -313 -379q-78 -74 -144 -115q-67 -45 -112 -45q-55 0 -55 53q2 78 120 254q113 174 269 389h-133zM123 131q0 94 47 195q45 96 113 180q69 86 145 139q76 51 135 51q88 -2 92 -96q-2 -90 -49 -188q-51 -101 -127 -185t-151 -139q-76 -55 -131 -55q-74 2 -74 98v0
zM487 831q141 99 262 220v0q57 -113 155 -224l17 11q-113 161 -115 333h-33q-133 -174 -295 -325z" />
    <glyph glyph-name="bullet" unicode="&#xe1;" 
d="M725 584h-4q-8 55 -47 96q-43 39 -125 41q-86 -2 -180 -60q-97 -57 -181 -147q-82 -90 -133 -188q-55 -101 -55 -189q0 -61 33 -106q30 -45 104 -47q92 4 191 79q96 72 151 136l4 -2q-26 -56 -28 -113q0 -96 114 -100q72 2 156 57q80 55 164 139q170 182 284 363l-12 4
q-149 -228 -313 -379q-78 -74 -144 -115q-67 -45 -112 -45q-55 0 -55 53q2 78 120 254q113 174 269 389h-133zM123 131q0 94 47 195q45 96 113 180q69 86 145 139q76 51 135 51q88 -2 92 -96q-2 -90 -49 -188q-51 -101 -127 -185t-151 -139q-76 -55 -131 -55q-74 2 -74 98v0
zM891 1171q-33 -2 -51 -36q-21 -35 -27 -91q-4 -36 -27 -69q-22 -33 -53 -62q-73 -57 -78 -73q0 -9 11 -9q12 0 53 31q41 27 92 70q51 45 88 94q35 49 37 90q0 21 -8 37q-13 16 -37 18v0z" />
    <glyph glyph-name="tilde" unicode="&#x178;" horiz-adv-x="1593" 
d="M1933 1425l-534 -819q-166 -250 -379 -420q-103 -82 -195 -129q-92 -49 -161 -49q-27 0 -50 21q-26 18 -26 69q2 94 108 254q101 158 232 336q131 182 231 342q102 158 105 256q0 174 -199 172q-225 -6 -434 -184q-97 -82 -158 -178q-65 -99 -65 -195q0 -70 38 -121
q37 -53 121 -55q99 2 172 55q74 51 119 123l-16 2q-47 -63 -109 -108q-63 -47 -158 -47q-61 0 -92 43q-30 40 -30 104q0 104 63 201q61 96 152 172q196 159 385 163q100 -2 100 -92q-2 -104 -104 -264q-101 -164 -232 -342t-231 -334q-49 -77 -78 -143q-31 -66 -31 -115
q-2 -157 172 -159q82 2 168 43t172 106q176 139 301 293l4 -4q-41 -53 -84 -125q-45 -72 -98 -152q-104 -163 -229 -329q-123 -164 -258 -273q-140 -114 -287 -116q-117 2 -186 63q-76 62 -76 170q2 111 49 166q45 51 106 51q74 -2 146 -39l8 17q-35 22 -82 39
q-47 16 -98 16q-96 0 -164 -62q-74 -61 -76 -174q4 -137 107 -204q100 -68 239 -68q269 6 486 207q217 196 397 465l878 1351h-139zM1793 1724q-78 -2 -80 -78q0 -24 17 -45q12 -24 37 -24q34 0 57 24q20 21 20 51q0 25 -12 47q-12 23 -39 25v0zM1498 1724q-78 -2 -80 -78
q0 -24 17 -45q12 -24 37 -24q34 0 57 24q20 21 20 51q0 25 -12 47q-12 23 -39 25v0z" />
    <glyph glyph-name="glyph202" unicode="&#xdd;" horiz-adv-x="1593" 
d="M1933 1425l-534 -819q-166 -250 -379 -420q-103 -82 -195 -129q-92 -49 -161 -49q-27 0 -50 21q-26 18 -26 69q2 94 108 254q101 158 232 336q131 182 231 342q102 158 105 256q0 174 -199 172q-225 -6 -434 -184q-97 -82 -158 -178q-65 -99 -65 -195q0 -70 38 -121
q37 -53 121 -55q99 2 172 55q74 51 119 123l-16 2q-47 -63 -109 -108q-63 -47 -158 -47q-61 0 -92 43q-30 40 -30 104q0 104 63 201q61 96 152 172q196 159 385 163q100 -2 100 -92q-2 -104 -104 -264q-101 -164 -232 -342t-231 -334q-49 -77 -78 -143q-31 -66 -31 -115
q-2 -157 172 -159q82 2 168 43t172 106q176 139 301 293l4 -4q-41 -53 -84 -125q-45 -72 -98 -152q-104 -163 -229 -329q-123 -164 -258 -273q-140 -114 -287 -116q-117 2 -186 63q-76 62 -76 170q2 111 49 166q45 51 106 51q74 -2 146 -39l8 17q-35 22 -82 39
q-47 16 -98 16q-96 0 -164 -62q-74 -61 -76 -174q4 -137 107 -204q100 -68 239 -68q269 6 486 207q217 196 397 465l878 1351h-139zM1777 1826q-33 -2 -51 -36q-21 -35 -27 -91q-4 -36 -27 -69q-22 -33 -53 -62q-73 -57 -78 -73q0 -9 11 -9q12 0 53 31q41 27 92 70
q51 45 88 94q35 49 37 90q0 21 -8 37q-13 16 -37 18v0z" />
    <glyph glyph-name="onehalf" unicode="&#xd9;" horiz-adv-x="1706" 
d="M1861 1425q-428 -688 -618 -958q-84 -117 -266 -275q-88 -71 -176 -122q-90 -54 -166 -54q-29 0 -51 21q-27 20 -27 69q0 50 29 115q28 62 73 139q97 156 222 334q129 178 225 338t98 264q0 80 -53 123q-53 39 -141 39q-254 -6 -443 -186q-90 -82 -141 -178
q-55 -99 -55 -195q2 -174 172 -174q84 0 155 57q70 54 107 117l-23 4q-32 -55 -92 -100q-61 -51 -145 -53q-78 0 -115 45q-35 41 -35 106q0 94 56 188q53 93 139 170q180 168 397 174q51 0 86 -18q33 -20 33 -72q-2 -102 -103 -262q-96 -159 -225 -340q-127 -180 -225 -344
q-47 -80 -76 -147q-31 -70 -31 -123q0 -68 43 -104q41 -37 113 -39q78 2 158 39q78 34 155 90q156 118 258 235l5 -4q-23 -35 -43 -84q-23 -51 -23 -98q0 -80 39 -127q39 -49 125 -51q90 2 178 51q90 47 176 125q176 166 338 379l-16 6q-138 -180 -316 -353
q-88 -79 -172 -131q-86 -53 -162 -53q-94 2 -92 101q0 69 62 182q57 110 161 270q216 315 566 864h-138zM1418 1826q-21 -2 -33 -18t-12 -37q0 -41 40 -90q35 -49 87 -94q51 -43 92 -70q41 -31 51 -31t10 9q-4 16 -74 73q-28 29 -53 62q-26 33 -31 69q-4 56 -22 91
q-21 34 -55 36v0z" />
    <glyph glyph-name="section" unicode="&#xdc;" horiz-adv-x="1706" 
d="M1861 1425q-428 -688 -618 -958q-84 -117 -266 -275q-88 -71 -176 -122q-90 -54 -166 -54q-29 0 -51 21q-27 20 -27 69q0 50 29 115q28 62 73 139q97 156 222 334q129 178 225 338t98 264q0 80 -53 123q-53 39 -141 39q-254 -6 -443 -186q-90 -82 -141 -178
q-55 -99 -55 -195q2 -174 172 -174q84 0 155 57q70 54 107 117l-23 4q-32 -55 -92 -100q-61 -51 -145 -53q-78 0 -115 45q-35 41 -35 106q0 94 56 188q53 93 139 170q180 168 397 174q51 0 86 -18q33 -20 33 -72q-2 -102 -103 -262q-96 -159 -225 -340q-127 -180 -225 -344
q-47 -80 -76 -147q-31 -70 -31 -123q0 -68 43 -104q41 -37 113 -39q78 2 158 39q78 34 155 90q156 118 258 235l5 -4q-23 -35 -43 -84q-23 -51 -23 -98q0 -80 39 -127q39 -49 125 -51q90 2 178 51q90 47 176 125q176 166 338 379l-16 6q-138 -180 -316 -353
q-88 -79 -172 -131q-86 -53 -162 -53q-94 2 -92 101q0 69 62 182q57 110 161 270q216 315 566 864h-138zM1788 1724q-78 -2 -80 -78q0 -24 17 -45q12 -24 37 -24q34 0 57 24q20 21 20 51q0 25 -12 47q-12 23 -39 25v0zM1493 1724q-78 -2 -80 -78q0 -24 17 -45q12 -24 37 -24
q34 0 57 24q20 21 20 51q0 25 -12 47q-12 23 -39 25v0z" />
    <glyph glyph-name="threesuperior" unicode="&#xdb;" horiz-adv-x="1706" 
d="M1861 1425q-428 -688 -618 -958q-84 -117 -266 -275q-88 -71 -176 -122q-90 -54 -166 -54q-29 0 -51 21q-27 20 -27 69q0 50 29 115q28 62 73 139q97 156 222 334q129 178 225 338t98 264q0 80 -53 123q-53 39 -141 39q-254 -6 -443 -186q-90 -82 -141 -178
q-55 -99 -55 -195q2 -174 172 -174q84 0 155 57q70 54 107 117l-23 4q-32 -55 -92 -100q-61 -51 -145 -53q-78 0 -115 45q-35 41 -35 106q0 94 56 188q53 93 139 170q180 168 397 174q51 0 86 -18q33 -20 33 -72q-2 -102 -103 -262q-96 -159 -225 -340q-127 -180 -225 -344
q-47 -80 -76 -147q-31 -70 -31 -123q0 -68 43 -104q41 -37 113 -39q78 2 158 39q78 34 155 90q156 118 258 235l5 -4q-23 -35 -43 -84q-23 -51 -23 -98q0 -80 39 -127q39 -49 125 -51q90 2 178 51q90 47 176 125q176 166 338 379l-16 6q-138 -180 -316 -353
q-88 -79 -172 -131q-86 -53 -162 -53q-94 2 -92 101q0 69 62 182q57 110 161 270q216 315 566 864h-138zM1377 1486q141 99 262 220v0q57 -113 155 -224l17 11q-113 161 -115 333h-33q-133 -174 -295 -325z" />
    <glyph glyph-name="twosuperior" unicode="&#xda;" horiz-adv-x="1706" 
d="M1861 1425q-428 -688 -618 -958q-84 -117 -266 -275q-88 -71 -176 -122q-90 -54 -166 -54q-29 0 -51 21q-27 20 -27 69q0 50 29 115q28 62 73 139q97 156 222 334q129 178 225 338t98 264q0 80 -53 123q-53 39 -141 39q-254 -6 -443 -186q-90 -82 -141 -178
q-55 -99 -55 -195q2 -174 172 -174q84 0 155 57q70 54 107 117l-23 4q-32 -55 -92 -100q-61 -51 -145 -53q-78 0 -115 45q-35 41 -35 106q0 94 56 188q53 93 139 170q180 168 397 174q51 0 86 -18q33 -20 33 -72q-2 -102 -103 -262q-96 -159 -225 -340q-127 -180 -225 -344
q-47 -80 -76 -147q-31 -70 -31 -123q0 -68 43 -104q41 -37 113 -39q78 2 158 39q78 34 155 90q156 118 258 235l5 -4q-23 -35 -43 -84q-23 -51 -23 -98q0 -80 39 -127q39 -49 125 -51q90 2 178 51q90 47 176 125q176 166 338 379l-16 6q-138 -180 -316 -353
q-88 -79 -172 -131q-86 -53 -162 -53q-94 2 -92 101q0 69 62 182q57 110 161 270q216 315 566 864h-138zM1782 1826q-33 -2 -51 -36q-21 -35 -27 -91q-4 -36 -27 -69q-22 -33 -53 -62q-73 -57 -78 -73q0 -9 11 -9q12 0 53 31q41 27 92 70q51 45 88 94q35 49 37 90
q0 21 -8 37q-13 16 -37 18v0z" />
    <glyph glyph-name="glyph207" unicode="&#x160;" horiz-adv-x="1139" 
d="M66 526q-54 0 -84 -45q-35 -47 -35 -121q2 -174 116 -282q111 -109 299 -111q240 -4 422 150q183 155 221 567q9 131 25 262q14 131 49 242q37 108 107 178q69 65 186 67q64 0 105 -34q38 -37 40 -111q0 -88 -45 -149q66 0 111 34q45 31 45 97q-2 84 -68 137
q-65 51 -176 51q-241 -2 -368 -211t-133 -575q0 -242 -113 -453q-57 -100 -156 -162q-96 -63 -237 -65q-168 2 -264 82q-101 78 -101 188q-2 80 37 133q17 -20 43 -20q66 2 68 73q0 76 -94 78v0zM1661 1826q-141 -96 -262 -219v0q-55 113 -156 223l-16 -10
q113 -162 115 -334h32q133 177 295 326z" />
    <glyph glyph-name="Icircumflex" unicode="&#xd5;" horiz-adv-x="1593" 
d="M1429 1194q2 80 -30 137q-35 57 -138 59h-28l-4 5q51 36 131 38q51 0 82 -22q30 -23 45 -59q22 -76 20 -162q-4 -383 -215 -709v0q-254 158 -254 475q0 125 51 236q50 106 109 170q29 4 49 4q98 -2 129 -49q29 -51 29 -123h24zM475 299q6 348 213 657q201 308 467 400
l4 -4q-82 -97 -119 -207q-35 -113 -35 -205q3 -309 275 -479q-86 -144 -254 -287q-82 -70 -166 -111q-86 -47 -164 -47q-55 0 -94 29q-43 25 -72 66q-55 86 -55 188v0zM1837 553q-137 -131 -307 -133q-111 0 -191 37q99 137 181 327q83 187 86 359q2 313 -240 315
q-51 0 -98 -20q-47 -23 -78 -52q-246 -51 -533 -356q-131 -147 -221 -328q-90 -182 -92 -374q0 -336 324 -344q96 2 190 45q96 41 184 110q181 144 285 297q39 -16 88 -26q49 -15 113 -15q82 0 170 41q88 37 151 103zM1579 1589q72 -6 115 43q41 47 43 108q-2 13 -10 13
q-15 0 -15 -19q-2 -26 -30 -47q-31 -24 -76 -24q-62 2 -143 38q-37 17 -72 29q-35 10 -60 10q-77 -2 -114 -49q-37 -45 -37 -98q-2 -21 8 -21q12 2 35 45q12 21 31 33q18 13 45 13q69 -3 137 -37q37 -13 74 -23q32 -14 69 -14v0z" />
    <glyph glyph-name="onesuperior" unicode="&#xd2;" horiz-adv-x="1593" 
d="M1429 1194q2 80 -30 137q-35 57 -138 59h-28l-4 5q51 36 131 38q51 0 82 -22q30 -23 45 -59q22 -76 20 -162q-4 -383 -215 -709v0q-254 158 -254 475q0 125 51 236q50 106 109 170q29 4 49 4q98 -2 129 -49q29 -51 29 -123h24zM475 299q6 348 213 657q201 308 467 400
l4 -4q-82 -97 -119 -207q-35 -113 -35 -205q3 -309 275 -479q-86 -144 -254 -287q-82 -70 -166 -111q-86 -47 -164 -47q-55 0 -94 29q-43 25 -72 66q-55 86 -55 188v0zM1837 553q-137 -131 -307 -133q-111 0 -191 37q99 137 181 327q83 187 86 359q2 313 -240 315
q-51 0 -98 -20q-47 -23 -78 -52q-246 -51 -533 -356q-131 -147 -221 -328q-90 -182 -92 -374q0 -336 324 -344q96 2 190 45q96 41 184 110q181 144 285 297q39 -16 88 -26q49 -15 113 -15q82 0 170 41q88 37 151 103zM1207 1826q-21 -2 -33 -18t-12 -37q0 -41 40 -90
q35 -49 87 -94q51 -43 92 -70q41 -31 51 -31t10 9q-4 16 -74 73q-28 29 -53 62q-26 33 -31 69q-4 56 -22 91q-21 34 -55 36v0z" />
    <glyph glyph-name="sterling" unicode="&#xd6;" horiz-adv-x="1593" 
d="M1429 1194q2 80 -30 137q-35 57 -138 59h-28l-4 5q51 36 131 38q51 0 82 -22q30 -23 45 -59q22 -76 20 -162q-4 -383 -215 -709v0q-254 158 -254 475q0 125 51 236q50 106 109 170q29 4 49 4q98 -2 129 -49q29 -51 29 -123h24zM475 299q6 348 213 657q201 308 467 400
l4 -4q-82 -97 -119 -207q-35 -113 -35 -205q3 -309 275 -479q-86 -144 -254 -287q-82 -70 -166 -111q-86 -47 -164 -47q-55 0 -94 29q-43 25 -72 66q-55 86 -55 188v0zM1837 553q-137 -131 -307 -133q-111 0 -191 37q99 137 181 327q83 187 86 359q2 313 -240 315
q-51 0 -98 -20q-47 -23 -78 -52q-246 -51 -533 -356q-131 -147 -221 -328q-90 -182 -92 -374q0 -336 324 -344q96 2 190 45q96 41 184 110q181 144 285 297q39 -16 88 -26q49 -15 113 -15q82 0 170 41q88 37 151 103zM1618 1724q-78 -2 -80 -78q0 -24 17 -45q12 -24 37 -24
q34 0 57 24q20 21 20 51q0 25 -12 47q-12 23 -39 25v0zM1323 1724q-78 -2 -80 -78q0 -24 17 -45q12 -24 37 -24q34 0 57 24q20 21 20 51q0 25 -12 47q-12 23 -39 25v0z" />
    <glyph glyph-name="minus" unicode="&#xd4;" horiz-adv-x="1593" 
d="M1429 1194q2 80 -30 137q-35 57 -138 59h-28l-4 5q51 36 131 38q51 0 82 -22q30 -23 45 -59q22 -76 20 -162q-4 -383 -215 -709v0q-254 158 -254 475q0 125 51 236q50 106 109 170q29 4 49 4q98 -2 129 -49q29 -51 29 -123h24zM475 299q6 348 213 657q201 308 467 400
l4 -4q-82 -97 -119 -207q-35 -113 -35 -205q3 -309 275 -479q-86 -144 -254 -287q-82 -70 -166 -111q-86 -47 -164 -47q-55 0 -94 29q-43 25 -72 66q-55 86 -55 188v0zM1837 553q-137 -131 -307 -133q-111 0 -191 37q99 137 181 327q83 187 86 359q2 313 -240 315
q-51 0 -98 -20q-47 -23 -78 -52q-246 -51 -533 -356q-131 -147 -221 -328q-90 -182 -92 -374q0 -336 324 -344q96 2 190 45q96 41 184 110q181 144 285 297q39 -16 88 -26q49 -15 113 -15q82 0 170 41q88 37 151 103zM1207 1486q141 99 262 220v0q57 -113 155 -224l17 11
q-113 161 -115 333h-33q-133 -174 -295 -325z" />
    <glyph glyph-name="thorn" unicode="&#xd3;" horiz-adv-x="1593" 
d="M1429 1194q2 80 -30 137q-35 57 -138 59h-28l-4 5q51 36 131 38q51 0 82 -22q30 -23 45 -59q22 -76 20 -162q-4 -383 -215 -709v0q-254 158 -254 475q0 125 51 236q50 106 109 170q29 4 49 4q98 -2 129 -49q29 -51 29 -123h24zM475 299q6 348 213 657q201 308 467 400
l4 -4q-82 -97 -119 -207q-35 -113 -35 -205q3 -309 275 -479q-86 -144 -254 -287q-82 -70 -166 -111q-86 -47 -164 -47q-55 0 -94 29q-43 25 -72 66q-55 86 -55 188v0zM1837 553q-137 -131 -307 -133q-111 0 -191 37q99 137 181 327q83 187 86 359q2 313 -240 315
q-51 0 -98 -20q-47 -23 -78 -52q-246 -51 -533 -356q-131 -147 -221 -328q-90 -182 -92 -374q0 -336 324 -344q96 2 190 45q96 41 184 110q181 144 285 297q39 -16 88 -26q49 -15 113 -15q82 0 170 41q88 37 151 103zM1612 1826q-33 -2 -51 -36q-21 -35 -27 -91
q-4 -36 -27 -69q-22 -33 -53 -62q-73 -57 -78 -73q0 -9 11 -9q12 0 53 31q41 27 92 70q51 45 88 94q35 49 37 90q0 21 -8 37q-13 16 -37 18v0z" />
    <glyph glyph-name="cent" unicode="&#xd1;" horiz-adv-x="1479" 
d="M2056 1112q68 23 119 76q51 49 53 121q0 59 -41 96q-41 35 -113 37q-133 -2 -274 -135q-145 -136 -289 -355q-225 -368 -395 -762l-4 5q37 145 37 260q-4 211 -39 383q-37 174 -39 337q0 70 8 115q6 45 15 76q18 53 32 92q-57 -2 -84 -61q-28 -58 -34 -103
q-160 -387 -414 -813q-123 -200 -260 -329q-137 -134 -283 -136q-37 0 -55 15q-21 14 -23 24q17 4 23 21q4 16 4 28q-2 60 -61 62q-74 -4 -78 -76q2 -57 57 -82q51 -24 100 -24q168 4 316 141q147 135 270 334q250 428 367 716h4q-2 -75 -2 -147q2 -203 39 -403
q34 -203 39 -406q0 -117 -25 -235h14q230 538 488 954q86 135 225 278q68 70 139 113q72 41 137 43q97 -2 101 -92q0 -41 -17 -84q-18 -45 -57 -72v-12zM1743 1589q72 -6 115 43q41 47 43 108q-2 13 -10 13q-15 0 -15 -19q-2 -26 -30 -47q-31 -24 -76 -24q-62 2 -143 38
q-37 17 -72 29q-35 10 -60 10q-77 -2 -114 -49q-37 -45 -37 -98q-2 -21 8 -21q12 2 35 45q12 21 31 33q18 13 45 13q69 -3 137 -37q37 -13 74 -23q32 -14 69 -14v0z" />
    <glyph glyph-name="Thorn" unicode="&#xcc;" horiz-adv-x="1251" 
d="M-31 221q0 -63 35 -112q33 -50 82 -80q109 -62 229 -62q293 4 510 205q215 197 385 506q180 315 328 500q149 188 254 190q108 0 147 8q35 8 35 27q-2 24 -35 22q-20 -2 -100 -16q-80 -21 -217 -21q-371 13 -752 -100q-178 -57 -293 -151q-116 -95 -118 -234
q0 -115 75 -174q74 -63 195 -63q145 2 244 90q100 88 102 211q-2 43 -12 77l-23 -4q11 -28 11 -78q-2 -108 -99 -186q-94 -84 -217 -86q-174 2 -178 180q2 168 129 267q125 100 311 147q187 51 379 68q193 12 332 12v-4q-96 -35 -182 -111q-88 -76 -166 -172
q-158 -201 -258 -358q-45 -74 -117 -191q-74 -120 -172 -243q-98 -121 -221 -205q-123 -86 -273 -88q-127 2 -196 61q-70 58 -53 131q34 -4 55 19q20 20 20 53q-2 70 -75 72q-47 -2 -72 -31q-29 -31 -29 -76v0zM1358 1826q-21 -2 -33 -18t-12 -37q0 -41 40 -90
q35 -49 87 -94q51 -43 92 -70q41 -31 51 -31t10 9q-4 16 -74 73q-28 29 -53 62q-26 33 -31 69q-4 56 -22 91q-21 34 -55 36v0z" />
    <glyph glyph-name="yacute" unicode="&#xcf;" horiz-adv-x="1251" 
d="M-31 221q0 -63 35 -112q33 -50 82 -80q109 -62 229 -62q293 4 510 205q215 197 385 506q180 315 328 500q149 188 254 190q108 0 147 8q35 8 35 27q-2 24 -35 22q-20 -2 -100 -16q-80 -21 -217 -21q-371 13 -752 -100q-178 -57 -293 -151q-116 -95 -118 -234
q0 -115 75 -174q74 -63 195 -63q145 2 244 90q100 88 102 211q-2 43 -12 77l-23 -4q11 -28 11 -78q-2 -108 -99 -186q-94 -84 -217 -86q-174 2 -178 180q2 168 129 267q125 100 311 147q187 51 379 68q193 12 332 12v-4q-96 -35 -182 -111q-88 -76 -166 -172
q-158 -201 -258 -358q-45 -74 -117 -191q-74 -120 -172 -243q-98 -121 -221 -205q-123 -86 -273 -88q-127 2 -196 61q-70 58 -53 131q34 -4 55 19q20 20 20 53q-2 70 -75 72q-47 -2 -72 -31q-29 -31 -29 -76v0zM1771 1724q-78 -2 -80 -78q0 -24 17 -45q12 -24 37 -24
q34 0 57 24q20 21 20 51q0 25 -12 47q-12 23 -39 25v0zM1476 1724q-78 -2 -80 -78q0 -24 17 -45q12 -24 37 -24q34 0 57 24q20 21 20 51q0 25 -12 47q-12 23 -39 25v0z" />
    <glyph glyph-name="Yacute" unicode="&#xce;" horiz-adv-x="1251" 
d="M-31 221q0 -63 35 -112q33 -50 82 -80q109 -62 229 -62q293 4 510 205q215 197 385 506q180 315 328 500q149 188 254 190q108 0 147 8q35 8 35 27q-2 24 -35 22q-20 -2 -100 -16q-80 -21 -217 -21q-371 13 -752 -100q-178 -57 -293 -151q-116 -95 -118 -234
q0 -115 75 -174q74 -63 195 -63q145 2 244 90q100 88 102 211q-2 43 -12 77l-23 -4q11 -28 11 -78q-2 -108 -99 -186q-94 -84 -217 -86q-174 2 -178 180q2 168 129 267q125 100 311 147q187 51 379 68q193 12 332 12v-4q-96 -35 -182 -111q-88 -76 -166 -172
q-158 -201 -258 -358q-45 -74 -117 -191q-74 -120 -172 -243q-98 -121 -221 -205q-123 -86 -273 -88q-127 2 -196 61q-70 58 -53 131q34 -4 55 19q20 20 20 53q-2 70 -75 72q-47 -2 -72 -31q-29 -31 -29 -76v0zM1360 1486q141 99 262 220v0q57 -113 155 -224l17 11
q-113 161 -115 333h-33q-133 -174 -295 -325z" />
    <glyph glyph-name="eth" unicode="&#xcd;" horiz-adv-x="1251" 
d="M-31 221q0 -63 35 -112q33 -50 82 -80q109 -62 229 -62q293 4 510 205q215 197 385 506q180 315 328 500q149 188 254 190q108 0 147 8q35 8 35 27q-2 24 -35 22q-20 -2 -100 -16q-80 -21 -217 -21q-371 13 -752 -100q-178 -57 -293 -151q-116 -95 -118 -234
q0 -115 75 -174q74 -63 195 -63q145 2 244 90q100 88 102 211q-2 43 -12 77l-23 -4q11 -28 11 -78q-2 -108 -99 -186q-94 -84 -217 -86q-174 2 -178 180q2 168 129 267q125 100 311 147q187 51 379 68q193 12 332 12v-4q-96 -35 -182 -111q-88 -76 -166 -172
q-158 -201 -258 -358q-45 -74 -117 -191q-74 -120 -172 -243q-98 -121 -221 -205q-123 -86 -273 -88q-127 2 -196 61q-70 58 -53 131q34 -4 55 19q20 20 20 53q-2 70 -75 72q-47 -2 -72 -31q-29 -31 -29 -76v0zM1765 1826q-33 -2 -51 -36q-21 -35 -27 -91q-4 -36 -27 -69
q-22 -33 -53 -62q-73 -57 -78 -73q0 -9 11 -9q12 0 53 31q41 27 92 70q51 45 88 94q35 49 37 90q0 21 -8 37q-13 16 -37 18v0z" />
    <glyph glyph-name="Eth" unicode="&#xc8;" horiz-adv-x="1366" 
d="M700 369q47 69 125 125q76 53 160 55q158 -2 156 -184q-2 -93 -43 -160q-43 -68 -115 -113q-150 -92 -307 -92q-162 2 -260 104q-101 99 -101 232q0 112 39 192q39 76 101 127q63 52 141 90q76 37 156 70q139 64 137 217q-2 129 69 262q37 64 101 101q61 38 149 38
q205 3 209 -180q0 -75 -61 -166q-31 -41 -76 -67q-47 -31 -109 -31q-59 0 -90 10l-2 -22q29 -10 92 -12q123 0 228 75q104 72 108 209q-2 113 -90 162q-84 47 -188 47q-236 -4 -353 -135q-118 -131 -118 -315q0 -113 -17 -152q-22 -41 -90 -68q-88 -38 -172 -79
q-84 -43 -149 -99q-144 -106 -146 -307q6 -326 471 -336q215 4 402 135q88 60 141 134q53 71 53 143q0 86 -55 139t-166 55q-219 -6 -344 -194zM1057 1826q-21 -2 -33 -18t-12 -37q0 -41 40 -90q35 -49 87 -94q51 -43 92 -70q41 -31 51 -31t10 9q-4 16 -74 73q-28 29 -53 62
q-26 33 -31 69q-4 56 -22 91q-21 34 -55 36v0z" />
    <glyph glyph-name="brokenbar" unicode="&#xcb;" horiz-adv-x="1366" 
d="M700 369q47 69 125 125q76 53 160 55q158 -2 156 -184q-2 -93 -43 -160q-43 -68 -115 -113q-150 -92 -307 -92q-162 2 -260 104q-101 99 -101 232q0 112 39 192q39 76 101 127q63 52 141 90q76 37 156 70q139 64 137 217q-2 129 69 262q37 64 101 101q61 38 149 38
q205 3 209 -180q0 -75 -61 -166q-31 -41 -76 -67q-47 -31 -109 -31q-59 0 -90 10l-2 -22q29 -10 92 -12q123 0 228 75q104 72 108 209q-2 113 -90 162q-84 47 -188 47q-236 -4 -353 -135q-118 -131 -118 -315q0 -113 -17 -152q-22 -41 -90 -68q-88 -38 -172 -79
q-84 -43 -149 -99q-144 -106 -146 -307q6 -326 471 -336q215 4 402 135q88 60 141 134q53 71 53 143q0 86 -55 139t-166 55q-219 -6 -344 -194zM1470 1724q-78 -2 -80 -78q0 -24 17 -45q12 -24 37 -24q34 0 57 24q20 21 20 51q0 25 -12 47q-12 23 -39 25v0zM1175 1724
q-78 -2 -80 -78q0 -24 17 -45q12 -24 37 -24q34 0 57 24q20 21 20 51q0 25 -12 47q-12 23 -39 25v0z" />
    <glyph glyph-name="Zcaron" unicode="&#xca;" horiz-adv-x="1366" 
d="M700 369q47 69 125 125q76 53 160 55q158 -2 156 -184q-2 -93 -43 -160q-43 -68 -115 -113q-150 -92 -307 -92q-162 2 -260 104q-101 99 -101 232q0 112 39 192q39 76 101 127q63 52 141 90q76 37 156 70q139 64 137 217q-2 129 69 262q37 64 101 101q61 38 149 38
q205 3 209 -180q0 -75 -61 -166q-31 -41 -76 -67q-47 -31 -109 -31q-59 0 -90 10l-2 -22q29 -10 92 -12q123 0 228 75q104 72 108 209q-2 113 -90 162q-84 47 -188 47q-236 -4 -353 -135q-118 -131 -118 -315q0 -113 -17 -152q-22 -41 -90 -68q-88 -38 -172 -79
q-84 -43 -149 -99q-144 -106 -146 -307q6 -326 471 -336q215 4 402 135q88 60 141 134q53 71 53 143q0 86 -55 139t-166 55q-219 -6 -344 -194zM1060 1486q141 99 262 220v0q57 -113 155 -224l17 11q-113 161 -115 333h-33q-133 -174 -295 -325z" />
    <glyph glyph-name="degree" unicode="&#xc9;" horiz-adv-x="1366" 
d="M700 369q47 69 125 125q76 53 160 55q158 -2 156 -184q-2 -93 -43 -160q-43 -68 -115 -113q-150 -92 -307 -92q-162 2 -260 104q-101 99 -101 232q0 112 39 192q39 76 101 127q63 52 141 90q76 37 156 70q139 64 137 217q-2 129 69 262q37 64 101 101q61 38 149 38
q205 3 209 -180q0 -75 -61 -166q-31 -41 -76 -67q-47 -31 -109 -31q-59 0 -90 10l-2 -22q29 -10 92 -12q123 0 228 75q104 72 108 209q-2 113 -90 162q-84 47 -188 47q-236 -4 -353 -135q-118 -131 -118 -315q0 -113 -17 -152q-22 -41 -90 -68q-88 -38 -172 -79
q-84 -43 -149 -99q-144 -106 -146 -307q6 -326 471 -336q215 4 402 135q88 60 141 134q53 71 53 143q0 86 -55 139t-166 55q-219 -6 -344 -194zM1464 1826q-33 -2 -51 -36q-21 -35 -27 -91q-4 -36 -27 -69q-22 -33 -53 -62q-73 -57 -78 -73q0 -9 11 -9q12 0 53 31
q41 27 92 70q51 45 88 94q35 49 37 90q0 21 -8 37q-13 16 -37 18v0z" />
    <glyph glyph-name="dagger" unicode="&#xc7;" horiz-adv-x="1366" 
d="M1094 1139q-2 -27 -2 -56q6 -90 63 -129q53 -39 135 -39q158 2 277 97q118 92 122 237q0 207 -256 209q-159 -2 -354 -100q-194 -99 -372 -264q-177 -164 -291 -361q-119 -199 -121 -397q0 -55 20 -119q21 -63 66 -121q45 -55 119 -90q71 -37 176 -39q286 8 434 180
q149 166 149 324q0 229 -254 225l3 -24q174 -2 178 -168q-4 -187 -150 -344q-143 -162 -352 -168q-137 4 -197 102q-63 94 -61 217q2 215 108 414q52 98 119 190q66 90 144 168q159 162 331 256q172 92 314 94q82 0 129 -28q45 -33 45 -117q-4 -145 -105 -244
q-102 -102 -219 -104q-67 0 -119 35q-57 33 -57 114q0 27 2 50h-24zM233 -358q75 -21 155 -19q76 0 178 29q47 18 80 47q33 31 33 76q-2 69 -68 88q-63 18 -133 18l68 111h-23l-92 -152q88 2 123 -12t35 -61q-4 -72 -78 -95q-74 -24 -137 -24q-70 0 -139 10z" />
    <glyph glyph-name="Iacute" unicode="&#xc3;" horiz-adv-x="1933" 
d="M1503 637q-41 -100 -72 -209q-14 -55 -24 -111q-10 -57 -10 -116q0 -88 45 -150q43 -65 137 -67q78 2 158 55q79 51 159 133q162 174 303 365l-14 6q-78 -113 -252 -301q-80 -84 -162 -146q-79 -63 -143 -63q-63 0 -86 47q-22 41 -22 104q0 142 65 318q64 176 162 356
q209 377 430 592l-6 8q-166 -49 -320 -156q-153 -106 -286 -239q-269 -281 -392 -449q-182 -229 -385 -405q-98 -84 -194 -133q-98 -51 -189 -51q-34 0 -65 10q-35 10 -53 37q18 6 30 24q9 17 9 35q-2 72 -70 76q-37 0 -55 -23q-23 -26 -23 -61q-2 -41 37 -88
q39 -49 168 -51q98 2 207 57q104 53 213 143q217 191 420 453h280zM1239 661q176 228 375 422q196 191 411 301l4 -4q-337 -334 -516 -719h-274zM2332 1589q72 -6 115 43q41 47 43 108q-2 13 -10 13q-15 0 -15 -19q-2 -26 -30 -47q-31 -24 -76 -24q-62 2 -143 38
q-37 17 -72 29q-35 10 -60 10q-77 -2 -114 -49q-37 -45 -37 -98q-2 -21 8 -21q12 2 35 45q12 21 31 33q18 13 45 13q69 -3 137 -37q37 -13 74 -23q32 -14 69 -14v0z" />
    <glyph glyph-name="udieresis" unicode="&#xc5;" horiz-adv-x="1933" 
d="M1503 637q-41 -100 -72 -209q-14 -55 -24 -111q-10 -57 -10 -116q0 -88 45 -150q43 -65 137 -67q78 2 158 55q79 51 159 133q162 174 303 365l-14 6q-78 -113 -252 -301q-80 -84 -162 -146q-79 -63 -143 -63q-63 0 -86 47q-22 41 -22 104q0 142 65 318q64 176 162 356
q209 377 430 592l-6 8q-166 -49 -320 -156q-153 -106 -286 -239q-269 -281 -392 -449q-182 -229 -385 -405q-98 -84 -194 -133q-98 -51 -189 -51q-34 0 -65 10q-35 10 -53 37q18 6 30 24q9 17 9 35q-2 72 -70 76q-37 0 -55 -23q-23 -26 -23 -61q-2 -41 37 -88
q39 -49 168 -51q98 2 207 57q104 53 213 143q217 191 420 453h280zM1239 661q176 228 375 422q196 191 411 301l4 -4q-337 -334 -516 -719h-274zM2036 1599q0 -61 41 -94q35 -35 86 -35q97 0 160 66q63 61 66 149q-3 62 -37 96q-35 33 -90 33q-93 -2 -156 -63
q-70 -60 -70 -152v0zM2339 1722q-2 -72 -53 -150q-24 -36 -55 -59q-33 -27 -70 -27q-76 2 -76 76q3 74 56 152q26 37 57 61q31 23 66 23q75 -4 75 -76v0z" />
    <glyph glyph-name="Egrave" unicode="&#xc0;" horiz-adv-x="1933" 
d="M1503 637q-41 -100 -72 -209q-14 -55 -24 -111q-10 -57 -10 -116q0 -88 45 -150q43 -65 137 -67q78 2 158 55q79 51 159 133q162 174 303 365l-14 6q-78 -113 -252 -301q-80 -84 -162 -146q-79 -63 -143 -63q-63 0 -86 47q-22 41 -22 104q0 142 65 318q64 176 162 356
q209 377 430 592l-6 8q-166 -49 -320 -156q-153 -106 -286 -239q-269 -281 -392 -449q-182 -229 -385 -405q-98 -84 -194 -133q-98 -51 -189 -51q-34 0 -65 10q-35 10 -53 37q18 6 30 24q9 17 9 35q-2 72 -70 76q-37 0 -55 -23q-23 -26 -23 -61q-2 -41 37 -88
q39 -49 168 -51q98 2 207 57q104 53 213 143q217 191 420 453h280zM1239 661q176 228 375 422q196 191 411 301l4 -4q-337 -334 -516 -719h-274zM1958 1826q-21 -2 -33 -18t-12 -37q0 -41 40 -90q35 -49 87 -94q51 -43 92 -70q41 -31 51 -31t10 9q-4 16 -74 73
q-28 29 -53 62q-26 33 -31 69q-4 56 -22 91q-21 34 -55 36v0z" />
    <glyph glyph-name="ucircumflex" unicode="&#xc4;" horiz-adv-x="1933" 
d="M1503 637q-41 -100 -72 -209q-14 -55 -24 -111q-10 -57 -10 -116q0 -88 45 -150q43 -65 137 -67q78 2 158 55q79 51 159 133q162 174 303 365l-14 6q-78 -113 -252 -301q-80 -84 -162 -146q-79 -63 -143 -63q-63 0 -86 47q-22 41 -22 104q0 142 65 318q64 176 162 356
q209 377 430 592l-6 8q-166 -49 -320 -156q-153 -106 -286 -239q-269 -281 -392 -449q-182 -229 -385 -405q-98 -84 -194 -133q-98 -51 -189 -51q-34 0 -65 10q-35 10 -53 37q18 6 30 24q9 17 9 35q-2 72 -70 76q-37 0 -55 -23q-23 -26 -23 -61q-2 -41 37 -88
q39 -49 168 -51q98 2 207 57q104 53 213 143q217 191 420 453h280zM1239 661q176 228 375 422q196 191 411 301l4 -4q-337 -334 -516 -719h-274zM2371 1724q-78 -2 -80 -78q0 -24 17 -45q12 -24 37 -24q34 0 57 24q20 21 20 51q0 25 -12 47q-12 23 -39 25v0zM2076 1724
q-78 -2 -80 -78q0 -24 17 -45q12 -24 37 -24q34 0 57 24q20 21 20 51q0 25 -12 47q-12 23 -39 25v0z" />
    <glyph glyph-name="scaron" unicode="&#xc2;" horiz-adv-x="1933" 
d="M1503 637q-41 -100 -72 -209q-14 -55 -24 -111q-10 -57 -10 -116q0 -88 45 -150q43 -65 137 -67q78 2 158 55q79 51 159 133q162 174 303 365l-14 6q-78 -113 -252 -301q-80 -84 -162 -146q-79 -63 -143 -63q-63 0 -86 47q-22 41 -22 104q0 142 65 318q64 176 162 356
q209 377 430 592l-6 8q-166 -49 -320 -156q-153 -106 -286 -239q-269 -281 -392 -449q-182 -229 -385 -405q-98 -84 -194 -133q-98 -51 -189 -51q-34 0 -65 10q-35 10 -53 37q18 6 30 24q9 17 9 35q-2 72 -70 76q-37 0 -55 -23q-23 -26 -23 -61q-2 -41 37 -88
q39 -49 168 -51q98 2 207 57q104 53 213 143q217 191 420 453h280zM1239 661q176 228 375 422q196 191 411 301l4 -4q-337 -334 -516 -719h-274zM1960 1486q141 99 262 220v0q57 -113 155 -224l17 11q-113 161 -115 333h-33q-133 -174 -295 -325z" />
    <glyph glyph-name="zcaron" unicode="&#xc1;" horiz-adv-x="1933" 
d="M1503 637q-41 -100 -72 -209q-14 -55 -24 -111q-10 -57 -10 -116q0 -88 45 -150q43 -65 137 -67q78 2 158 55q79 51 159 133q162 174 303 365l-14 6q-78 -113 -252 -301q-80 -84 -162 -146q-79 -63 -143 -63q-63 0 -86 47q-22 41 -22 104q0 142 65 318q64 176 162 356
q209 377 430 592l-6 8q-166 -49 -320 -156q-153 -106 -286 -239q-269 -281 -392 -449q-182 -229 -385 -405q-98 -84 -194 -133q-98 -51 -189 -51q-34 0 -65 10q-35 10 -53 37q18 6 30 24q9 17 9 35q-2 72 -70 76q-37 0 -55 -23q-23 -26 -23 -61q-2 -41 37 -88
q39 -49 168 -51q98 2 207 57q104 53 213 143q217 191 420 453h280zM1239 661q176 228 375 422q196 191 411 301l4 -4q-337 -334 -516 -719h-274zM2365 1826q-33 -2 -51 -36q-21 -35 -27 -91q-4 -36 -27 -69q-22 -33 -53 -62q-73 -57 -78 -73q0 -9 11 -9q12 0 53 31
q41 27 92 70q51 45 88 94q35 49 37 90q0 21 -8 37q-13 16 -37 18v0z" />
    </font>
</defs>
</svg>
